<svg width="49" height="24" viewBox="0 0 49 24" fill="none" xmlns="http://www.w3.org/2000/svg">
<path fill-rule="evenodd" clip-rule="evenodd" d="M5.65749 23.1497L5.65749 12.6207L0.823226 12.6207C0.571687 12.6207 0.368608 12.4167 0.368608 12.1661C0.368608 12.0273 0.431027 11.9033 0.527917 11.8195L11.5275 0.90104C11.7045 0.724965 11.9905 0.724965 12.1675 0.90104L23.1923 11.8438C23.3694 12.0209 23.3703 12.3078 23.1942 12.4848C23.1057 12.5742 22.9893 12.619 22.8719 12.619L18.0376 12.6199L18.0376 23.1489C18.0376 23.4004 17.8336 23.6035 17.583 23.6035L6.11096 23.6035C5.85942 23.6035 5.65634 23.3995 5.65634 23.1489L5.65749 23.1497Z" fill="black"/>
<path fill-rule="evenodd" clip-rule="evenodd" d="M42.7619 1.22285V11.7519H47.5962C47.8477 11.7519 48.0508 11.9559 48.0508 12.2065C48.0508 12.3453 47.9884 12.4692 47.8915 12.553L36.892 23.4715C36.7149 23.6476 36.4289 23.6476 36.2519 23.4715L25.2271 12.5287C25.0501 12.3517 25.0492 12.0648 25.2252 11.8878C25.3137 11.7983 25.4302 11.7536 25.5476 11.7536L30.3818 11.7527V1.22366C30.3818 0.97212 30.5859 0.769043 30.8365 0.769043H42.3085C42.56 0.769043 42.7631 0.973067 42.7631 1.22366L42.7619 1.22285Z" fill="black"/>
</svg>
