<svg width="22" height="24" viewBox="0 0 22 24" fill="none" xmlns="http://www.w3.org/2000/svg">
<path fill-rule="evenodd" clip-rule="evenodd" d="M4.83881 5.87566C4.83881 5.10405 4.99078 4.34001 5.28606 3.62714C5.58134 2.91427 6.01414 2.26654 6.55975 1.72094C7.10535 1.17533 7.75308 0.742537 8.46595 0.447257C9.17881 0.151978 9.94286 0 10.7145 0C11.4861 0 12.2501 0.151978 12.963 0.447257C13.6758 0.742537 14.3236 1.17533 14.8692 1.72094C15.4148 2.26654 15.8476 2.91427 16.1429 3.62714C16.4381 4.34001 16.5901 5.10405 16.5901 5.87566C16.5901 7.43398 15.9711 8.92847 14.8692 10.0304C13.7673 11.1323 12.2728 11.7513 10.7145 11.7513C9.15614 11.7513 7.66164 11.1323 6.55975 10.0304C5.45785 8.92847 4.83881 7.43398 4.83881 5.87566ZM10.7145 2.07376C9.70614 2.07376 8.73911 2.47432 8.02612 3.18731C7.31312 3.9003 6.91257 4.86733 6.91257 5.87566C6.91257 6.88398 7.31312 7.85101 8.02612 8.564C8.73911 9.27699 9.70614 9.67755 10.7145 9.67755C11.7228 9.67755 12.6898 9.27699 13.4028 8.564C14.1158 7.85101 14.5164 6.88398 14.5164 5.87566C14.5164 4.86733 14.1158 3.9003 13.4028 3.18731C12.6898 2.47432 11.7228 2.07376 10.7145 2.07376Z" fill="white"/>
<path fill-rule="evenodd" clip-rule="evenodd" d="M5.1844 15.8989C4.35941 15.8989 3.5682 16.2266 2.98485 16.81C2.40149 17.3933 2.07376 18.1845 2.07376 19.0095V20.652C2.07376 20.6768 2.09173 20.699 2.11662 20.7031C7.81117 21.6322 13.6191 21.6322 19.3122 20.7031C19.3243 20.7011 19.3353 20.6949 19.3432 20.6855C19.351 20.6761 19.3553 20.6642 19.3551 20.652V19.0095C19.3551 18.1845 19.0274 17.3933 18.444 16.81C17.8607 16.2266 17.0695 15.8989 16.2445 15.8989H15.7744C15.7374 15.8986 15.7005 15.9042 15.6652 15.9155L14.4693 16.3067C12.0294 17.1033 9.39943 17.1033 6.95954 16.3067L5.76229 15.9155C5.72788 15.9045 5.69197 15.8989 5.65584 15.8989H5.1844ZM0 19.0095C0 17.6345 0.546212 16.3159 1.51848 15.3436C2.49074 14.3713 3.80941 13.8251 5.1844 13.8251H5.65445C5.91022 13.8251 6.1646 13.8666 6.40654 13.944L7.60379 14.3353C9.62507 14.9951 11.8038 14.9951 13.8251 14.3353L15.0223 13.944C15.2643 13.8652 15.5186 13.8251 15.773 13.8251H16.2445C17.6194 13.8251 18.9381 14.3713 19.9104 15.3436C20.8826 16.3159 21.4289 17.6345 21.4289 19.0095V20.652C21.4289 21.6944 20.674 22.5819 19.6454 22.7492C13.7306 23.7148 7.69828 23.7148 1.78343 22.7492C1.28563 22.6682 0.832879 22.4127 0.506148 22.0285C0.179417 21.6442 7.67909e-06 21.1563 0 20.652V19.0095Z" fill="white"/>
</svg>
