<svg width="43" height="20" viewBox="0 0 43 20" fill="none" xmlns="http://www.w3.org/2000/svg">
<path d="M10.8648 14.9968L16.4607 9.401C16.5913 9.26569 16.7477 9.15777 16.9205 9.08352C17.0933 9.00928 17.2792 8.9702 17.4673 8.96856C17.6554 8.96693 17.842 9.00277 18.0161 9.074C18.1902 9.14523 18.3484 9.25043 18.4814 9.38344C18.6144 9.51645 18.7196 9.67463 18.7908 9.84873C18.8621 10.0228 18.8979 10.2094 18.8963 10.3975C18.8946 10.5856 18.8555 10.7715 18.7813 10.9443C18.7071 11.1172 18.5991 11.2735 18.4638 11.4042L10.4497 19.4183C10.3185 19.5503 10.1624 19.655 9.99053 19.7265C9.81864 19.798 9.63432 19.8348 9.44816 19.8348C9.262 19.8348 9.07767 19.798 8.90578 19.7265C8.7339 19.655 8.57783 19.5503 8.44658 19.4183L0.432492 11.4042C0.297186 11.2735 0.189261 11.1172 0.115015 10.9443C0.0407686 10.7715 0.00168806 10.5856 5.34882e-05 10.3975C-0.00158108 10.2094 0.0342634 10.0228 0.105495 9.84873C0.176726 9.67463 0.281918 9.51645 0.414932 9.38344C0.547947 9.25043 0.70612 9.14523 0.880223 9.074C1.05433 9.00277 1.24087 8.96693 1.42898 8.96856C1.61708 8.9702 1.80298 9.00928 1.97581 9.08352C2.14865 9.15777 2.30498 9.26569 2.43566 9.401L8.03149 14.9968V1.41667C8.03149 1.04094 8.18075 0.680608 8.44642 0.414932C8.7121 0.149255 9.07243 0 9.44816 0C9.82388 0 10.1842 0.149255 10.4499 0.414932C10.7156 0.680608 10.8648 1.04094 10.8648 1.41667V14.9968Z" fill="#0F1030"/>
<path d="M31.1703 4.83794L25.5745 10.4338C25.4438 10.5691 25.2875 10.677 25.1147 10.7513C24.9418 10.8255 24.7559 10.8646 24.5678 10.8662C24.3797 10.8678 24.1932 10.832 24.0191 10.7608C23.845 10.6895 23.6868 10.5844 23.5538 10.4513C23.4208 10.3183 23.3156 10.1601 23.2443 9.98605C23.1731 9.81194 23.1373 9.6254 23.1389 9.43729C23.1405 9.24919 23.1796 9.06329 23.2539 8.89045C23.3281 8.71761 23.436 8.56129 23.5713 8.43061L31.5854 0.416526C31.7167 0.284514 31.8727 0.179755 32.0446 0.108268C32.2165 0.0367805 32.4008 -1.99157e-05 32.587 -1.98995e-05C32.7732 -1.98832e-05 32.9575 0.0367805 33.1294 0.108268C33.3013 0.179755 33.4573 0.284515 33.5886 0.416526L41.6027 8.43061C41.738 8.56129 41.8459 8.71762 41.9201 8.89045C41.9944 9.06329 42.0335 9.24919 42.0351 9.43729C42.0367 9.6254 42.0009 9.81194 41.9297 9.98605C41.8584 10.1602 41.7532 10.3183 41.6202 10.4513C41.4872 10.5844 41.329 10.6895 41.1549 10.7608C40.9808 10.832 40.7943 10.8679 40.6062 10.8662C40.4181 10.8646 40.2322 10.8255 40.0593 10.7513C39.8865 10.677 39.7302 10.5691 39.5995 10.4338L34.0037 4.83795L34.0037 18.4181C34.0037 18.7938 33.8544 19.1542 33.5887 19.4198C33.3231 19.6855 32.9627 19.8348 32.587 19.8348C32.2113 19.8348 31.8509 19.6855 31.5853 19.4198C31.3196 19.1542 31.1703 18.7938 31.1703 18.4181L31.1703 4.83794Z" fill="#0F1030"/>
</svg>
