<svg width="22" height="24" viewBox="0 0 22 24" fill="none" xmlns="http://www.w3.org/2000/svg">
<path fill-rule="evenodd" clip-rule="evenodd" d="M10.6252 1.88146e-07C9.0373 -0.000109004 7.47894 0.429248 6.11516 1.24259C4.75139 2.05594 3.63299 3.22299 2.87841 4.62014C2.12383 6.01729 1.76117 7.59251 1.82885 9.17896C1.89652 10.7654 2.39201 12.304 3.26284 13.6318L0.121419 19.0719C0.034212 19.2234 -0.00754927 19.3969 0.00112119 19.5714C0.00979165 19.746 0.0685277 19.9145 0.170316 20.0566C0.272104 20.1987 0.412644 20.3085 0.575155 20.3729C0.737666 20.4373 0.915282 20.4536 1.0868 20.4198L4.261 19.7957L5.30652 22.8557C5.36287 23.0215 5.46581 23.1675 5.60302 23.2763C5.74024 23.3851 5.9059 23.452 6.08017 23.4691C6.25444 23.4861 6.42992 23.4526 6.58561 23.3724C6.7413 23.2923 6.87058 23.169 6.95798 23.0172L10.0909 17.5917C10.4468 17.6132 10.8036 17.6132 11.1595 17.5917L14.2924 23.0172C14.3799 23.1689 14.5093 23.2922 14.665 23.3722C14.8208 23.4523 14.9963 23.4857 15.1706 23.4686C15.3449 23.4514 15.5105 23.3843 15.6477 23.2754C15.7848 23.1665 15.8877 23.0204 15.9439 22.8545L16.9858 19.7872L20.1624 20.4186C20.334 20.4527 20.5118 20.4366 20.6745 20.3723C20.8372 20.3081 20.978 20.1982 21.0799 20.0561C21.1819 19.9139 21.2407 19.7454 21.2494 19.5706C21.2581 19.3959 21.2163 19.2223 21.129 19.0707L17.9888 13.6318C18.8596 12.3039 19.3551 10.7652 19.4228 9.17866C19.4904 7.5921 19.1276 6.01679 18.3729 4.61961C17.6182 3.22242 16.4996 2.05539 15.1357 1.24213C13.7717 0.42887 12.2132 -0.000328065 10.6252 1.88146e-07ZM3.64292 8.80374C3.64292 6.95193 4.37855 5.17596 5.68798 3.86653C6.99741 2.5571 8.77338 1.82146 10.6252 1.82146C12.477 1.82146 14.253 2.5571 15.5624 3.86653C16.8718 5.17596 17.6075 6.95193 17.6075 8.80374C17.6075 10.6556 16.8718 12.4315 15.5624 13.741C14.253 15.0504 12.477 15.786 10.6252 15.786C8.77338 15.786 6.99741 15.0504 5.68798 13.741C4.37855 12.4315 3.64292 10.6556 3.64292 8.80374ZM8.17715 17.2626C6.79592 16.8626 5.53384 16.13 4.50143 15.1291L2.70183 18.2462L4.68965 17.8552C4.90567 17.8128 5.12973 17.8501 5.32038 17.9601C5.51103 18.0702 5.65536 18.2456 5.72667 18.4539L6.3824 20.3713L8.17715 17.2626ZM14.8656 20.3664L13.0732 17.2626C14.4545 16.8626 15.7165 16.13 16.749 15.1291L18.5461 18.2414L16.5571 17.8455C16.3404 17.8026 16.1155 17.8399 15.9243 17.9505C15.7331 18.0611 15.5885 18.2374 15.5176 18.4466L14.8656 20.3664Z" fill="white"/>
</svg>
