<svg width="67" height="75" viewBox="0 0 67 75" fill="none" xmlns="http://www.w3.org/2000/svg">
<path d="M33.0383 46.283C42.8275 46.283 50.8016 38.3088 50.8016 28.5196C50.8016 18.7304 42.8275 10.7562 33.0383 10.7562C23.2491 10.7562 15.2749 18.7304 15.2749 28.5196C15.2749 38.3237 23.2491 46.283 33.0383 46.283ZM33.0383 13.7317C41.191 13.7317 47.8262 20.3669 47.8262 28.5196C47.8262 36.6723 41.191 43.3075 33.0383 43.3075C24.8856 43.3075 18.2503 36.6723 18.2503 28.5196C18.2503 20.3669 24.8856 13.7317 33.0383 13.7317Z" fill="#0F1030"/>
<path d="M0.338922 67.5574C0.740606 68.0334 1.3952 68.2268 1.97541 68.0185L9.3545 65.4745L10.7232 73.1661C10.8273 73.776 11.3183 74.2521 11.9283 74.3711C12.0175 74.386 12.1068 74.386 12.196 74.386C12.7167 74.386 13.2077 74.1182 13.4755 73.657L25.645 52.9479C26.2996 53.2901 27.0137 53.8555 27.7576 54.4505C29.2453 55.6705 30.9264 57.0392 33.039 57.0392C35.1516 57.0392 36.8327 55.6705 38.3204 54.4505C39.0643 53.8406 39.7784 53.2752 40.433 52.9479L52.6025 73.657C52.8703 74.1182 53.3612 74.386 53.882 74.386C53.9712 74.386 54.0605 74.386 54.1497 74.3562C54.7597 74.2521 55.2358 73.7611 55.3548 73.1512L56.7235 65.4745L64.1026 68.0185C64.6828 68.2268 65.3374 68.0334 65.7391 67.5574C66.1408 67.0813 66.1854 66.3969 65.873 65.8614L53.1976 44.2894C53.3315 43.9919 53.4654 43.7092 53.629 43.486C54.1349 42.7868 55.087 42.1769 56.1135 41.5223C57.7203 40.4957 59.5204 39.3204 60.175 37.3418C60.7999 35.4375 60.0411 33.4588 59.3716 31.7182C58.9253 30.5578 58.5088 29.442 58.5088 28.5196C58.5088 27.5972 58.9253 26.4963 59.3716 25.321C60.0411 23.5804 60.785 21.6017 60.175 19.6974C59.5353 17.7187 57.7203 16.5583 56.1135 15.5169C55.1019 14.8623 54.1349 14.2375 53.629 13.5531C53.1083 12.839 52.8108 11.7381 52.4984 10.5479C52.0074 8.71804 51.457 6.65011 49.7907 5.44505C48.1542 4.25488 46.0268 4.35902 44.1374 4.44828C42.9026 4.50779 41.7422 4.5673 40.8942 4.28463C40.1057 4.03172 39.2279 3.31762 38.3055 2.57376C36.8327 1.3687 35.1516 0 33.039 0C30.9264 0 29.2453 1.3687 27.7576 2.58863C26.8352 3.33249 25.9723 4.0466 25.1838 4.29951C24.321 4.58218 23.1605 4.52267 21.9257 4.46316C20.0512 4.3739 17.9089 4.26976 16.2724 5.45993C14.621 6.66498 14.0557 8.73292 13.5796 10.5628C13.2672 11.7381 12.9697 12.8539 12.449 13.568C11.9431 14.2672 10.991 14.8772 9.96447 15.5318C8.35773 16.5583 6.54271 17.7336 5.90299 19.7123C5.27815 21.6166 6.03689 23.5952 6.70636 25.3359C7.15268 26.4963 7.56924 27.6121 7.56924 28.5345C7.56924 29.4569 7.15268 30.5578 6.70636 31.7331C6.03689 33.4737 5.29303 35.4524 5.90299 37.3566C6.54271 39.3353 8.35773 40.4957 9.96447 41.5371C10.9761 42.1917 11.9431 42.8166 12.449 43.5009C12.6126 43.7241 12.7465 44.0067 12.8804 44.3043L0.205026 65.8762C-0.107395 66.3969 -0.0627626 67.0813 0.338922 67.5574ZM56.054 62.0974C55.6375 61.9635 55.1911 62.0082 54.8192 62.2164C54.4473 62.4396 54.1795 62.8115 54.1051 63.243L53.1381 68.6731L43.6762 52.5611C43.8398 52.576 43.9886 52.576 44.1671 52.576C46.0417 52.6653 48.184 52.7843 49.8205 51.5792C50.9809 50.7312 51.5909 49.4667 52.0372 48.1426L61.2908 63.8827L56.054 62.0974ZM11.5861 39.0229C10.2918 38.1898 9.05696 37.3864 8.74454 36.4194C8.44699 35.5119 8.95282 34.1878 9.50327 32.7745C10.024 31.4058 10.5596 29.9924 10.5596 28.5196C10.5596 27.0467 10.024 25.6334 9.50327 24.2647C8.9677 22.8514 8.46187 21.5273 8.75941 20.6198C9.07184 19.6528 10.3066 18.8643 11.601 18.0163C12.806 17.2427 14.0408 16.4393 14.8739 15.3086C15.7219 14.1482 16.0939 12.72 16.4807 11.3215C16.8824 9.83383 17.2543 8.43537 18.0577 7.85516C18.8462 7.27495 20.2892 7.34934 21.8067 7.42372C23.2498 7.49811 24.7375 7.57249 26.1211 7.12618C27.4452 6.69474 28.5758 5.77235 29.6619 4.87972C30.8372 3.9127 31.9827 2.97544 33.039 2.97544C34.0953 2.97544 35.2408 3.9127 36.4459 4.8946C37.5319 5.78723 38.6626 6.70962 39.9866 7.14106C41.3554 7.58737 42.8579 7.51298 44.301 7.4386C45.8185 7.36421 47.2616 7.28983 48.0501 7.87004C48.8535 8.45025 49.2254 9.86358 49.6271 11.3364C49.999 12.72 50.3858 14.1631 51.2189 15.3235C52.0521 16.4691 53.2869 17.2576 54.4919 18.0312C55.7862 18.8643 57.021 19.6677 57.3335 20.6347C57.631 21.5422 57.1252 22.8663 56.5747 24.2796C56.054 25.6483 55.5184 27.0616 55.5184 28.5345C55.5184 30.0073 56.054 31.4206 56.5747 32.7893C57.1103 34.2027 57.6161 35.5267 57.3335 36.4343C57.021 37.4013 55.7862 38.1898 54.4919 39.0378C53.2869 39.8114 52.0521 40.6147 51.2189 41.7603C50.7131 42.4595 50.3858 43.248 50.1031 44.0811V44.096C49.9246 44.6465 49.761 45.1969 49.6122 45.7474C49.2105 47.2351 48.8386 48.6336 48.0352 49.2138C47.2467 49.794 45.8036 49.7196 44.2862 49.6452C42.8431 49.5708 41.3554 49.4964 39.9718 49.9428C38.6626 50.3742 37.5319 51.2966 36.431 52.1892C35.2259 53.1711 34.0804 54.1084 33.0241 54.1084C31.9678 54.1084 30.8223 53.1711 29.6172 52.1892C28.5312 51.2966 27.4005 50.3742 26.0765 49.9428C25.7938 49.8535 25.5111 49.8089 25.2285 49.7642C25.1838 49.7494 25.1392 49.7345 25.0946 49.7345C24.5441 49.6452 23.9788 49.5857 23.4135 49.5857C22.863 49.5857 22.3125 49.6155 21.777 49.6452C20.2595 49.7196 18.8164 49.794 18.0279 49.2138C17.2245 48.6336 16.8526 47.2202 16.4509 45.7474C16.079 44.3638 15.6922 42.9207 14.8442 41.7603C14.0259 40.585 12.7763 39.7965 11.5861 39.0229ZM14.0706 48.1575C14.502 49.4667 15.1269 50.7461 16.2873 51.5941C17.9238 52.7843 20.0661 52.6802 21.9406 52.5909C22.1043 52.576 22.2679 52.576 22.4167 52.576L12.9548 68.6731L11.9878 63.243C11.9134 62.8115 11.6456 62.4396 11.2737 62.2164C10.9017 61.9933 10.4405 61.9487 10.0389 62.0974L4.81696 63.8976L14.0706 48.1575Z" fill="#0F1030"/>
<path d="M25.2875 36.7318C25.0049 37.5947 25.3173 38.5319 26.0463 39.0675C26.7752 39.6031 27.772 39.6031 28.501 39.0675L33.0385 35.7797L37.5761 39.0675C37.948 39.3353 38.3795 39.4692 38.796 39.4692C39.2275 39.4692 39.6589 39.3353 40.0308 39.0675C40.7598 38.5319 41.0722 37.5947 40.7896 36.7318L39.0638 31.4058L43.6014 28.1179C44.3303 27.5823 44.6428 26.6451 44.3601 25.7822C44.0774 24.9193 43.2741 24.3391 42.3666 24.3391H36.7578L35.0321 19.0131C34.7494 18.1502 33.9461 17.57 33.0385 17.57C32.131 17.57 31.3277 18.1502 31.045 19.0131L29.3192 24.3391H23.7105C22.803 24.3391 21.9997 24.9193 21.717 25.7822C21.4343 26.6451 21.7468 27.5823 22.4757 28.1179L27.0133 31.4058L25.2875 36.7318ZM26.4479 27.3145H29.9738C30.8814 27.3145 31.6847 26.7343 31.9674 25.8715L33.0385 22.5241L34.1246 25.8715C34.4072 26.7343 35.2106 27.3145 36.1181 27.3145H39.644L36.7876 29.3825C36.0586 29.9181 35.7462 30.8553 36.0289 31.7182L37.1149 35.0656L34.2734 32.9976C33.5444 32.4621 32.5625 32.4621 31.8186 32.9976L28.9771 35.0656L30.0631 31.7182C30.3458 30.8553 30.0334 29.9181 29.3044 29.3825L26.4479 27.3145Z" fill="#0F1030"/>
</svg>
