<svg width="98" height="102" viewBox="0 0 98 102" fill="none" xmlns="http://www.w3.org/2000/svg">
<path d="M25.9237 0.541618C25.7478 0.566049 25.1126 0.654001 24.4872 0.727296C17.8812 1.51397 12.003 4.71928 7.93837 9.72271C4.63535 13.8124 2.19718 19.4022 1.21013 25.1583C0.63356 28.5248 0.897416 32.1259 1.93328 34.9257C4.07337 40.7305 9.53611 44.6052 17.2951 45.7974C18.0182 45.9098 18.7853 46.0369 18.9857 46.0613C19.3619 46.1248 19.3864 46.1737 19.8506 47.7226C21.2871 52.5891 24.2042 57.2311 27.3557 59.6693C31.6214 62.9968 35.6378 64.4723 41.5254 64.8975C46.0305 65.2248 51.9085 64.4088 57.0098 62.7475C58.6711 62.21 58.974 62.0732 59.3111 61.697C59.6385 61.3207 59.6971 61.1448 59.6971 60.622C59.6971 60.0699 59.6483 59.9331 59.2867 59.5715C58.9349 59.2197 58.7248 59.1464 57.6987 58.9607C56.1498 58.6724 54.6693 58.1985 53.8582 57.7343C52.4461 56.933 51.4444 55.5453 51.4444 54.3433C51.4444 53.542 51.1708 52.941 50.6675 52.6283C50.091 52.2765 49.7294 52.3156 47.9411 52.8677C43.6607 54.2065 41.1004 54.6463 37.4456 54.6463C35.882 54.6463 35.0562 54.5828 34.1034 54.3971C31.7532 53.9476 29.3492 52.9704 27.8101 51.8564C26.2222 50.7032 24.3703 48.6413 23.4468 46.9898L23.0461 46.2911L24.9713 46.2031C33.4635 45.8415 40.9197 43.2372 46.6461 38.6589C48.283 37.3445 49.7879 35.5708 50.5258 34.0562C51.4493 32.1799 51.6252 30.1765 51.0144 28.3638C50.687 27.4012 50.5893 27.2253 49.8271 26.5021C45.9768 22.7984 41.5694 21.098 37.1909 21.5964C31.1614 22.2951 24.9707 27.0494 19.5426 35.1169L18.7803 36.2407L18.2526 36.1674C17.3878 36.055 15.2867 35.5029 14.3486 35.156C12.5456 34.5061 10.5227 33.3676 9.03242 32.1803C7.55678 31.0027 5.23094 28.3887 4.56648 27.1525C4.35148 26.7665 4.36614 26.7127 4.63977 25.8527C5.05021 24.5775 6.71645 21.377 7.63007 20.087C8.51936 18.8362 10.7083 16.5103 11.8322 15.6211C14.8079 13.2562 18.6875 11.5069 22.8407 10.6666C25.6405 10.1047 27.5559 9.94343 30.7955 10.0167C34.0838 10.0802 34.3476 10.0411 34.7337 9.30334C34.9828 8.83916 34.9486 8.38963 34.548 6.9775C34.2499 5.92698 34.2743 4.82752 34.6115 3.60118C34.9242 2.50179 34.9731 2.01322 34.7972 1.59781C34.5333 0.972379 34.0105 0.747614 32.4713 0.596147C31.2058 0.483765 26.6421 0.44468 25.919 0.547284L25.9237 0.541618ZM30.0623 3.71767H31.2496L31.1617 4.55808C31.1128 5.03205 31.0982 5.71123 31.1372 6.05811L31.2105 6.72263H29.9743C22.2542 6.72263 15.228 8.92627 10.0482 12.9525C9.11003 13.6903 9.02209 13.7294 9.23707 13.363C9.72568 12.5372 11.1623 10.8759 12.4375 9.64941C15.5793 6.65911 19.2782 4.87076 24.047 4.02055C25.3711 3.79579 27.7506 3.59546 28.425 3.66875C28.6644 3.69318 29.4026 3.71767 30.0623 3.71767ZM41.4177 25.1098C41.9307 25.2613 42.8054 25.5838 43.3673 25.8623C44.3689 26.3363 46.3088 27.5627 46.3088 27.7239C46.3088 27.763 45.7811 28.1246 45.1312 28.5106L43.9439 29.2093L42.9667 28.8966C38.8281 27.5725 34.0103 27.4601 30.1066 28.6083C29.6326 28.7452 29.2075 28.8575 29.1831 28.8575C29.0854 28.8575 30.4095 27.8559 31.2988 27.2696C33.1018 26.0676 34.7777 25.3297 36.742 24.9047C37.817 24.6653 40.2454 24.7777 41.4181 25.105L41.4177 25.1098ZM48.1362 31.0758C47.8967 32.5514 47.1003 33.8169 45.4341 35.4049C44.3445 36.4554 42.1946 37.9799 40.5283 38.918C35.9353 41.4833 29.4221 43.0224 23.2315 43.0077C19.2785 43.0077 16.7768 42.6462 13.723 41.6592C12.3598 41.2194 10.1708 40.12 9.14457 39.3578C8.3188 38.7569 7.02887 37.4669 6.36917 36.607C5.76817 35.8056 4.53191 33.0694 4.53191 32.5173C4.53191 32.4929 5.02052 32.9033 5.6313 33.4554C9.05652 36.5679 12.3254 38.2341 16.7913 39.1722C18.4672 39.524 19.6448 39.6217 21.9071 39.6217C26.6955 39.6217 31.6402 38.5224 37.2451 36.2063C39.8445 35.1313 44.4522 32.8054 46.7536 31.3885C47.4426 30.9634 48.0534 30.6116 48.1168 30.6116C48.1802 30.6116 48.1901 30.8266 48.1412 31.0758L48.1362 31.0758ZM38.481 31.1735C39.2335 31.2712 39.859 31.3739 39.8834 31.3983C39.9567 31.4618 36.9419 32.8983 35.7448 33.3625C33.0916 34.413 30.1159 35.3267 27.8634 35.7909C26.6272 36.0548 24.2867 36.3675 23.6858 36.3675L23.2363 36.3528L24.0474 35.615C27.927 32.0481 33.0917 30.4602 38.481 31.1735ZM29.4856 56.3758C31.9483 57.3628 33.888 57.739 36.9908 57.8417C40.2059 57.9394 42.7173 57.6169 46.4699 56.6152C47.496 56.3514 48.3706 56.1266 48.4341 56.1266C48.4976 56.1266 48.5709 56.3025 48.6198 56.5126C48.7468 57.0746 49.8462 58.6527 50.5938 59.3124C50.9456 59.6398 51.5173 60.0649 51.8446 60.2506C52.1818 60.4363 52.4065 60.6268 52.343 60.661C52.1916 60.7587 49.7924 61.2131 48.18 61.4477C46.1279 61.7604 41.2613 61.7604 39.3507 61.4623C34.7969 60.749 31.0833 58.9997 28.479 56.3612C27.7803 55.6478 27.6924 55.5208 28.0393 55.7358C28.2787 55.8726 28.9286 56.1609 29.4758 56.3759L29.4856 56.3758Z" fill="#343434"/>
<path d="M43.9484 9.25843C44.4224 10.1575 44.9501 11.1494 45.0869 11.4328L45.3605 11.9703L45.0967 12.498C44.9452 12.796 44.4224 13.7732 43.9435 14.687L43.0542 16.3385L47.0609 13.8075L51.0675 16.3385L50.1782 14.687C49.7042 13.7733 49.1765 12.7961 49.0251 12.498L48.7612 11.9703L49.0348 11.4328C49.1717 11.1445 49.6994 10.1575 50.1733 9.25843L51.0626 7.59717L50.0854 8.20794C49.5577 8.53531 48.6586 9.10699 48.0968 9.47343L47.0609 10.1233L46.0348 9.47343C45.4582 9.11186 44.5592 8.53529 44.0314 8.20794L43.0542 7.59717L43.9435 9.25843H43.9484Z" fill="#343434"/>
<path d="M64.196 14.2769C63.722 15.5522 63.7318 15.5522 62.6178 15.3763C62.0803 15.2884 61.6307 15.2493 61.5917 15.2786C61.5672 15.3177 61.792 15.6401 62.1194 16.0164C62.4321 16.3926 62.6959 16.7933 62.6959 16.9154C62.6959 17.0425 62.4321 17.4431 62.1194 17.8145C61.792 18.1907 61.5672 18.5132 61.5917 18.5523C61.6307 18.5767 62.0901 18.5376 62.6178 18.4643C63.7416 18.3031 63.7074 18.2787 64.196 19.554L64.494 20.3553L64.8214 19.5784C65.3589 18.2298 65.2709 18.2885 66.385 18.4643C66.9224 18.5376 67.3866 18.5767 67.4208 18.5523C67.4453 18.5132 67.2205 18.1907 66.8931 17.8145C66.5804 17.4383 66.3165 17.0376 66.3165 16.9154C66.3165 16.7884 66.5804 16.3877 66.8931 16.0164C67.2205 15.6401 67.4453 15.3177 67.4208 15.2786C67.3817 15.2541 66.9224 15.2932 66.3947 15.3763C65.2709 15.5522 65.3686 15.6157 64.8165 14.2623L64.4891 13.4756L64.1911 14.2769H64.196Z" fill="#343434"/>
<path d="M77.3455 22.7351C77.1208 23.3459 76.8569 23.9127 76.7592 24.0006C76.5979 24.1374 75.9579 24.0739 74.5312 23.7856C74.194 23.7123 74.2038 23.7465 74.9416 24.6749C75.3667 25.2124 75.7038 25.7499 75.7038 25.8622C75.7038 25.9893 75.3667 26.5023 74.966 27.0007C74.5556 27.5138 74.2429 27.9389 74.2527 27.9535C74.2673 27.9682 74.8048 27.89 75.44 27.7923C76.427 27.6164 76.6273 27.6164 76.7642 27.7532C76.8619 27.8509 77.1257 28.4275 77.3505 29.0284L77.7756 30.1425L78.1274 29.1164C78.3277 28.5643 78.5769 27.9926 78.6893 27.8411C78.9043 27.5919 78.9141 27.5919 80.077 27.7776C80.7269 27.89 81.2643 27.9633 81.279 27.9535C81.2937 27.9389 80.9809 27.5138 80.5656 27.0007C80.165 26.5023 79.8278 25.9893 79.8278 25.8622C79.8278 25.7499 80.165 25.2124 80.5901 24.6749C81.3279 23.7514 81.3425 23.7123 81.0005 23.7856C79.476 24.0837 78.9238 24.1374 78.7626 23.9713C78.6649 23.8736 78.401 23.3068 78.1763 22.6961L77.7658 21.6064L77.3407 22.7303L77.3455 22.7351Z" fill="#343434"/>
<path d="M18.7884 22.1336C18.6907 22.3584 18.5148 22.7102 18.378 22.8958C18.1386 23.2476 18.1044 23.2476 17.3666 23.1695C16.9561 23.1304 16.4919 23.0571 16.3551 23.0326C16.1939 22.9936 16.316 23.1597 16.7069 23.5213C17.0343 23.8193 17.2933 24.1711 17.2933 24.3079C17.2933 24.435 17.0294 24.7819 16.7069 25.0848C16.1939 25.5344 16.1548 25.5979 16.4186 25.549C16.5945 25.5099 17.0685 25.4757 17.4838 25.4513L18.2363 25.4269L18.9887 26.8536L19.7412 25.4269L20.4937 25.4513C20.9041 25.4757 21.383 25.5148 21.5589 25.549C21.8227 25.6125 21.7592 25.5099 21.2217 24.9871C20.8601 24.65 20.5572 24.3372 20.5572 24.2884C20.5572 24.2493 20.8553 23.9366 21.2217 23.5994C21.7592 23.0864 21.8227 22.9887 21.5589 23.0473C21.383 23.0864 20.909 23.1206 20.4937 23.145L19.7412 23.1694L19.3552 22.4463L18.9692 21.7085L18.808 22.1336L18.7884 22.1336Z" fill="#343434"/>
<path d="M58.4945 22.4713C57.7958 22.8964 56.7551 24.4747 56.2078 25.9845C54.996 29.2631 55.5433 32.8398 57.786 36.3431C58.2991 37.1444 58.7486 37.3692 59.8871 37.3692C60.3366 37.3692 60.6982 37.3936 60.6982 37.4327C60.6982 37.4718 60.5858 37.8578 60.4343 38.2829C59.5695 40.8481 59.5108 44.1609 60.2731 47.4151C60.6346 48.9397 61.0598 49.6774 61.9246 50.3419C62.2226 50.5667 62.6771 50.8061 62.9262 50.8696C63.1754 50.9429 64.4654 51.0064 65.7651 51.0309C68.042 51.0699 68.1691 51.0553 68.7407 50.767C69.5665 50.3663 70.4166 49.3793 70.6414 48.578C70.7294 48.2262 70.8808 47.376 70.9541 46.6871C71.2522 44.1463 71.9167 42.2358 73.3287 39.8464C74.218 38.3317 74.4281 37.5694 74.2034 36.6313C73.8271 35.0531 72.8548 34.2811 70.8271 33.9292C69.3906 33.68 67.0598 33.079 66.1999 32.7419C65.0858 32.3021 64.6999 32.3901 63.6346 33.3429L63.0092 33.895L62.9213 33.4846C62.8577 33.2451 62.7844 32.3852 62.7453 31.5447C62.633 29.6294 62.8089 28.6326 63.4099 27.6553C63.6591 27.2547 63.9718 26.7318 64.1232 26.4924C64.6607 25.5934 64.3382 24.064 63.4343 23.3017C62.8968 22.8522 62.7356 22.8033 61.0303 22.5004C59.2517 22.173 58.9781 22.173 58.4895 22.476L58.4945 22.4713ZM60.6346 25.7353C60.6737 25.7988 60.5711 26.0969 60.3952 26.3998C59.7942 27.4112 59.545 28.7159 59.5205 30.8267C59.5059 32.5759 59.4814 32.918 59.3935 32.4636C59.3691 32.3756 59.2958 32.1265 59.2078 31.9261C58.5433 30.299 58.7681 27.5237 59.6964 26.0089C59.9456 25.6083 60.4587 25.4568 60.6346 25.7353ZM67.6999 36.5288C68.6234 36.7682 69.7033 37.0028 70.0893 37.0565C71.1643 37.1934 71.1887 37.2324 70.617 38.1461C69.1024 40.5355 67.9785 43.7896 67.7636 46.3744C67.7147 46.9607 67.6268 47.5275 67.5632 47.6399C67.4753 47.8256 67.2114 47.8549 65.6626 47.8256C64.6756 47.8011 63.8107 47.7523 63.7374 47.7132C63.4393 47.5275 62.9507 44.5225 62.9507 42.8466C62.9507 40.3839 63.625 38.2536 64.9003 36.69C65.3498 36.1281 65.5404 35.9766 65.7505 36.0255C65.8873 36.0646 66.7766 36.2894 67.7001 36.5239L67.6999 36.5288Z" fill="#343434"/>
<path d="M86.3354 35.1899C84.0341 35.4049 81.806 36.001 80.3695 36.817C77.4182 38.4685 75.4296 41.4687 75.1266 44.7472L75.0533 45.573L74.3644 46.0616C72.1608 47.6496 70.5385 50.4786 70.0841 53.4691C69.8202 55.1841 69.9961 58.6093 70.4359 60.51C70.6607 61.4726 70.7095 61.4237 68.7355 62.4498C64.1425 64.8539 59.1684 68.3425 56.1143 71.3035L55.3374 72.0413L53.4221 71.4159C46.2297 69.0413 39.5651 67.59 31.796 66.7398C29.6314 66.4906 28.6689 66.4662 23.3528 66.4662C16.9226 66.4662 15.9747 66.5297 11.5332 67.2187C7.28224 67.8685 2.80154 68.9973 1.67777 69.6715C1.20381 69.9598 0.900879 70.4826 0.900879 71.02C0.900879 71.5184 1.05235 71.7969 1.7755 72.6471C4.20392 75.5006 5.46453 78.75 5.85543 83.2061C5.91895 83.9293 5.98246 84.1198 6.31961 84.496C6.60789 84.8087 6.85709 84.9455 7.23332 84.9944C7.85875 85.0677 8.19589 84.9065 9.5738 83.8559C14.9535 79.7271 22.5464 77.2499 32.0404 76.5267C34.5031 76.341 40.1221 76.3752 43.0001 76.5902C45.7266 76.7905 49.8065 77.2303 50.344 77.3768L50.6811 77.4648L50.1192 78.3394C49.269 79.6392 48.6436 80.9535 48.1306 82.478C47.7202 83.6653 47.6567 84.0416 47.5931 85.356C47.5052 87.6721 47.9547 88.9229 49.4205 90.3838C50.4564 91.4197 51.6241 92.0207 53.6862 92.5484C54.4875 92.7634 57.3898 93.5501 60.1409 94.3124C62.8917 95.0648 67.9831 96.4623 71.4621 97.4151C74.941 98.3679 79.6416 99.653 81.9088 100.278C84.1857 100.904 86.2135 101.417 86.4139 101.417C86.9416 101.417 87.5914 100.977 87.7771 100.503C87.8748 100.288 88.4025 97.2246 88.9644 93.7212C89.5263 90.208 90.2396 85.8154 90.5426 83.9635C90.8406 82.1019 91.5785 77.5969 92.1697 73.9567C92.7463 70.3018 93.3082 66.9011 93.4059 66.388C93.7333 64.7267 93.4939 62.9091 92.7658 61.4725C92.3798 60.6956 91.1046 59.4106 90.2251 58.9218C89.3504 58.4235 87.6843 57.9348 86.4481 57.8225L85.4855 57.7345L86.1598 57.07C87.3618 55.8924 87.5084 54.5439 86.6729 52.2034C85.1972 48.0648 81.7184 44.7716 78.816 44.7472C78.5521 44.7472 78.342 44.7325 78.342 44.7081C78.342 44.5077 78.8697 42.9295 79.0652 42.5435C79.7639 41.1655 81.3275 39.778 82.8568 39.1769C84.0344 38.7127 85.8471 38.3658 87.0589 38.3658C88.6225 38.3658 90.9386 38.7176 93.3865 39.3186C96.1374 39.9929 96.4893 40.0076 97.0414 39.4554C97.2808 39.216 97.5056 38.8691 97.5544 38.6785C97.6815 38.2046 97.3785 37.3886 96.9681 37.0906C96.5919 36.8023 93.9778 36.0791 91.867 35.6638C90.5038 35.4 87.5379 35.0775 86.9906 35.1361C86.8783 35.1361 86.59 35.1752 86.3505 35.185L86.3354 35.1899ZM79.8661 48.3489C80.6528 48.774 82.1431 50.3621 82.7929 51.4517C83.345 52.3898 83.9558 53.968 83.9558 54.4518C83.9558 54.8622 83.5942 54.8524 82.6414 54.3882C80.814 53.538 79.1869 51.3344 78.5028 48.8083C78.239 47.8555 78.2536 47.8311 78.8009 47.9337C79.0501 47.9825 79.5387 48.1584 79.866 48.3441L79.8661 48.3489ZM75.9377 51.2513C77.0126 53.9143 78.928 56.1033 81.1903 57.2418L82.4021 57.8428L81.4004 57.9943C79.7635 58.2435 77.5207 58.82 75.5224 59.4943C74.4963 59.8461 73.6314 60.1197 73.6217 60.0953C73.4849 59.9682 73.1819 56.9046 73.1819 55.6929C73.1819 53.9289 73.309 53.2058 73.822 51.9159C74.2227 50.9289 74.5207 50.4257 75.0582 49.8393L75.3856 49.4875L75.5224 50.0249C75.5957 50.323 75.7863 50.8751 75.9328 51.2514L75.9377 51.2513ZM87.21 61.1605C88.4462 61.4488 89.5603 62.2501 90.0635 63.198C90.5033 64.0384 90.2492 66.2616 89.526 67.9277C86.7116 74.4214 77.4278 82.3864 67.8211 86.563C63.3161 88.5272 59.6906 89.4264 56.3778 89.441C54.8386 89.4556 54.5015 89.4166 53.5878 89.1283C51.9119 88.6006 51.0714 87.8285 50.8124 86.563C50.5632 85.3854 50.9736 83.4359 51.8385 81.7111C52.1903 81.0221 53.49 78.9943 54.0421 78.2858L54.2815 77.9878L55.8304 78.2761C59.2557 78.9015 65.2754 80.3528 68.3244 81.3055C70.4157 81.9456 70.7772 81.9945 71.2903 81.6671C71.8424 81.33 72.1161 80.8658 72.1161 80.2892C72.1161 79.3999 71.8033 79.0872 69.9515 78.1491C67.7771 77.0497 63.834 75.2857 61.0978 74.1717C59.8958 73.6831 58.8941 73.2727 58.8697 73.2336C58.7183 73.0821 61.9089 70.5071 64.2005 68.9289C66.9416 67.0379 71.3539 64.502 71.4906 64.7267C71.5151 64.7756 71.6763 65.2153 71.8278 65.704C72.59 68.0786 74.0901 71.2205 75.4191 73.2727C76.2937 74.6115 77.6325 76.2142 78.1602 76.5269C79.2352 77.2012 80.5887 76.4634 80.5887 75.1881C80.5887 74.6506 80.4127 74.3379 79.6358 73.5268C77.9843 71.7776 75.9077 67.8589 74.7057 64.2333C74.5543 63.7594 74.4565 63.344 74.4907 63.3099C74.5298 63.2708 75.3654 62.958 76.3524 62.6209C79.0789 61.6828 81.1702 61.2088 83.7696 60.9694C84.5221 60.8961 86.5694 61.0183 87.2095 61.1697L87.21 61.1605ZM27.0563 69.6428C32.6119 69.9164 38.6658 70.7813 44.1818 72.0956C46.7471 72.7064 51.9117 74.1967 51.6626 74.2456C51.5502 74.27 50.8368 74.1967 50.099 74.0941C46.3708 73.5664 42.9212 73.2928 38.5529 73.1804C30.437 72.9947 22.7659 74.1185 16.5991 76.4052C14.7962 77.0795 11.5224 78.6822 10.0321 79.6301C8.68359 80.4803 8.80571 80.5193 8.46857 79.0535C7.97995 76.8645 6.85609 74.2357 5.75183 72.6233L5.17526 71.7976L5.7616 71.6608C13.0517 69.8822 19.5598 69.2714 27.0512 69.633L27.0563 69.6428ZM88.3095 77.485C87.9235 79.8744 87.7476 80.3972 86.746 82.0243C85.0701 84.7264 82.6074 87.101 79.3777 89.1288C76.7783 90.7559 73.1624 92.207 69.6689 93.0328L68.5939 93.282L66.0433 92.5931C64.6556 92.2168 63.4048 91.8553 63.2679 91.8064C63.092 91.7331 63.4682 91.567 64.7044 91.1663C69.097 89.7542 73.5581 87.5506 77.7258 84.7605C81.7667 82.0438 84.5566 79.6936 87.4053 76.6056C88.0796 75.8678 88.6415 75.2668 88.6562 75.2668C88.6562 75.2668 88.5047 76.2684 88.3044 77.4802L88.3095 77.485ZM85.8714 92.5929C85.4218 95.422 85.0309 97.7332 85.0212 97.7576C84.9967 97.782 82.6709 97.1712 79.8419 96.3796C77.0275 95.6027 74.7505 94.9284 74.7994 94.8893C74.8483 94.8503 75.2245 94.689 75.6398 94.5278C77.003 94.0001 79.8664 92.5879 81.0537 91.8502C82.6808 90.8388 84.4691 89.4853 85.6467 88.3713C86.1988 87.8436 86.6581 87.4332 86.6728 87.4478C86.6875 87.4625 86.3356 89.7737 85.8715 92.5881L85.8714 92.5929Z" fill="#343434"/>
<path d="M0.715284 44.1596C0.876532 44.5212 1.31628 45.474 1.70229 46.2997C2.08829 47.1108 2.401 47.8487 2.401 47.9366C2.401 48.0245 2.08829 48.7624 1.70229 49.5735C1.31628 50.3992 0.87652 51.3521 0.715284 51.7136L0.426998 52.3634L2.15181 51.1126C3.10461 50.4383 3.91577 49.8764 3.96455 49.8764C4.01333 49.8764 4.8294 50.4383 5.77729 51.1126L7.5021 52.3634L7.21381 51.7136C7.05257 51.352 6.61281 50.3992 6.22681 49.5735C5.84081 48.7624 5.52809 48.0245 5.52809 47.9366C5.52809 47.8487 5.84081 47.1108 6.22681 46.2997C6.61281 45.474 7.05258 44.5211 7.21381 44.1596L7.5021 43.5098L5.73814 44.785L3.95954 46.0603L2.18095 44.785L0.416992 43.5098L0.705277 44.1596H0.715284Z" fill="#343434"/>
<path d="M51.6875 45.4106C51.3504 46.124 51.3748 46.1093 50.1875 45.9481L49.4985 45.8602L50.036 46.3976C50.3243 46.6957 50.5637 47.0231 50.5637 47.1208C50.5637 47.2185 50.3243 47.5459 50.036 47.8439L49.4985 48.3814L50.1875 48.2935C51.3748 48.1322 51.3504 48.1176 51.6875 48.8309C51.8634 49.1925 52.0247 49.4955 52.0637 49.4955C52.1028 49.4955 52.2641 49.1974 52.44 48.8309C52.7771 48.1322 52.7527 48.1322 53.9302 48.2788L54.6192 48.3521L54.0915 47.8244C53.8032 47.5263 53.5638 47.2136 53.5638 47.111C53.5638 47.0133 53.8032 46.6859 54.1013 46.3879L54.629 45.8504L53.94 45.9383C52.7527 46.0996 52.7771 46.1142 52.44 45.4008C52.2641 45.0393 52.1028 44.7363 52.0638 44.7363C52.0247 44.7363 51.8634 45.0344 51.6875 45.4008L51.6875 45.4106Z" fill="#343434"/>
<path d="M7.78632 54.7045C4.0973 55.1443 3.0467 55.5694 2.83181 56.7079C2.75851 57.1477 2.85623 57.4213 4.35635 60.3872C6.43302 64.5014 6.54535 64.5893 8.57312 63.6902C9.83861 63.1381 12.1253 62.4638 13.6742 62.1999C14.3974 62.0729 15.5261 61.9996 16.6401 61.9996C18.6435 62.0142 19.0148 61.9019 19.3569 61.2618C19.6549 60.6754 19.5816 60.1868 18.8683 58.2323C18.1305 56.1802 17.9448 55.8429 17.4415 55.5791C17.0409 55.3641 15.4284 55.0807 13.6646 54.8902C12.3258 54.7387 8.4459 54.6264 7.78632 54.7045ZM14.0895 58.1834C15.9804 58.4228 16.0635 58.6476 14.3778 58.8577C12.9511 59.0336 10.4738 59.5955 8.99812 60.0841C8.46064 60.26 7.99646 60.3822 7.98669 60.3724C7.88897 60.2747 6.78469 58.1688 6.78469 58.0955C6.78469 57.8463 11.9641 57.9098 14.0895 58.1834Z" fill="#343434"/>
<path d="M25.8599 82.272C23.7442 82.5212 22.0341 83.0244 20.2946 83.9088C18.8287 84.6613 17.617 85.5457 16.9671 86.3373C16.5029 86.9138 16.4785 86.9871 16.4931 87.764C16.5176 89.1663 17.2309 90.9302 18.5306 92.7821C19.2831 93.8472 21.1447 95.6942 22.0682 96.2952C23.3924 97.1454 25.0585 97.2724 26.4852 96.6079C27.3843 96.2073 27.7361 95.8848 28.5863 94.717C29.3974 93.5932 30.0228 92.9287 31.1369 92.0149C32.2901 91.0621 32.7982 90.124 32.7982 88.9611C32.7982 87.9985 32.6369 87.5098 31.8209 86.0977C31.4691 85.487 31.0587 84.6318 30.9219 84.2214C30.6092 83.2833 30.2818 82.7214 29.886 82.4575C29.5098 82.218 27.2868 82.1058 25.8599 82.272ZM28.4593 86.5523C28.7867 87.1924 29.1825 87.979 29.3584 88.2917C29.5343 88.6044 29.6467 88.9416 29.5978 89.0442C29.5587 89.1419 29.0457 89.6061 28.4447 90.0947C27.7069 90.6957 27.0961 91.3602 26.4561 92.2104C25.3909 93.6469 25.2199 93.7984 24.5554 93.813C23.9544 93.813 23.7541 93.6762 22.5032 92.4351C21.3794 91.3357 20.2996 89.7819 19.9625 88.7948L19.7231 88.1303L20.197 87.7199C21.2329 86.8208 23.3877 85.9169 25.0636 85.6677C25.562 85.5944 26.1141 85.5065 26.2901 85.482C26.466 85.4576 26.8911 85.4332 27.2429 85.4185L27.8829 85.4039L28.4595 86.557L28.4593 86.5523Z" fill="#343434"/>
<path d="M41.0803 86.6649L40.6797 87.564L39.6682 87.476C39.1063 87.4272 38.5542 87.349 38.4418 87.3148C38.3294 87.2659 38.5689 87.5786 38.9695 88.0037C39.3555 88.4142 39.6829 88.7904 39.6829 88.8442C39.6829 88.893 39.3555 89.2693 38.9695 89.6846C38.5689 90.1097 38.3294 90.4224 38.4418 90.3735C38.5542 90.3345 39.1063 90.2612 39.6682 90.2123L40.6797 90.1243L41.481 91.9225L42.3019 90.1243L43.3133 90.2221C43.8752 90.2612 44.4273 90.3345 44.5397 90.3735C44.6521 90.4126 44.4127 90.1097 44.0267 89.709C43.626 89.2986 43.3035 88.9077 43.3035 88.8442C43.3035 88.7806 43.6309 88.3946 44.0267 87.9793C44.4127 87.5786 44.6521 87.2806 44.5397 87.3148C44.4274 87.3539 43.8752 87.4272 43.3133 87.4663L42.3019 87.564L41.481 85.7659L41.0803 86.6649Z" fill="#343434"/>
</svg>
