<svg width="19" height="27" viewBox="0 0 19 27" fill="none" xmlns="http://www.w3.org/2000/svg">
<path d="M8.62983 12.557C8.79219 12.557 8.95573 12.495 9.07989 12.3708L12.3746 9.07733C12.9595 8.48761 12.0666 7.58991 11.4745 8.17724L8.63096 11.0208L7.24262 9.63243C6.6529 9.04628 5.75519 9.94161 6.34253 10.5325L8.1821 12.3721C8.30625 12.4962 8.46979 12.5583 8.63216 12.5583L8.62983 12.557Z" fill="#696969"/>
<path d="M18.3542 12.1591L17.8911 10.4234C17.786 10.23 18.3232 8.60527 18.353 8.38798C18.5393 7.70157 18.3017 6.96382 17.7442 6.50422C17.601 6.35381 16.1995 5.34507 16.1804 5.14692L15.5286 3.45416C15.266 2.79281 14.6405 2.34039 13.935 2.301L12.1348 2.19953C12.0333 2.19356 11.939 2.16372 11.8626 2.11597L10.3465 1.13471C9.73771 0.741951 8.98086 0.74076 8.36966 1.13591L6.86075 2.1124C6.72466 2.25206 4.98655 2.27236 4.78241 2.3022C4.0757 2.3416 3.45017 2.79404 3.18515 3.46135C3.08726 3.65713 2.55365 5.2842 2.37341 5.37255L0.968342 6.51022C0.414438 6.96624 0.178085 7.70396 0.363097 8.38799C0.400102 8.61361 0.924151 10.2276 0.828651 10.4162L0.364289 12.1591C0.178064 12.8455 0.41562 13.5844 0.973109 14.044C1.13068 14.2016 2.50827 15.1972 2.53694 15.4013L3.18992 17.0953C3.22931 17.1943 3.28064 17.2863 3.33555 17.377L1.04473 24.0168C0.928934 24.3547 1.04115 24.7295 1.32407 24.9468C1.60699 25.164 1.99615 25.1783 2.29341 24.9814L4.4362 23.556L5.5822 25.8564C5.9081 26.5571 7.02306 26.4079 7.14484 25.6427L8.35172 19.4017C8.65971 19.6058 9.01066 19.7097 9.35926 19.7097C9.70786 19.7097 10.0588 19.6058 10.3668 19.4017L11.5725 25.6415C11.6943 26.4007 12.8116 26.563 13.1363 25.8552L14.2811 23.556L16.4239 24.9802C17.0518 25.4266 17.9496 24.7414 17.6726 24.0144L15.383 17.3746C15.5119 17.1991 15.7112 16.6082 15.7984 16.4005C15.9261 16.0722 15.7638 15.7033 15.4355 15.5756C15.1084 15.449 14.7383 15.6102 14.6118 15.9385L14.3468 16.6213C14.268 16.8219 14.0818 16.9615 13.8645 16.9723C13.2103 17.0523 11.7229 16.9436 11.1714 17.3602C10.7965 17.6026 10.0337 18.0956 9.65772 18.3403C9.22318 18.6483 8.71466 18.0645 8.26222 17.8234C8.25983 17.8234 7.54237 17.3567 7.53999 17.3567C7.00518 16.9496 5.49389 17.0511 4.86001 16.9735C4.71676 16.9639 4.59499 16.9102 4.49949 16.8159C4.38847 16.8111 3.78563 15.0348 3.72234 14.9333C3.53254 14.2887 2.24925 13.4865 1.77771 13.0556C1.60939 12.9171 1.53657 12.695 1.59267 12.4885C1.7216 11.8511 2.28862 10.4519 2.05823 9.80373L1.59267 8.05606C1.53776 7.85193 1.61058 7.6299 1.77413 7.495C2.25282 7.05689 3.53372 6.26065 3.72591 5.60528L4.37293 3.92328C4.45411 3.71915 4.63795 3.58544 4.8552 3.57352L6.66015 3.47085C7.33941 3.49473 8.50092 2.51942 9.062 2.20548C9.24703 2.0861 9.47505 2.0873 9.65768 2.20428C10.2331 2.5266 11.3707 3.49234 12.0631 3.47085L13.8669 3.57232C14.0829 3.58426 14.2668 3.71796 14.3456 3.91732C14.6261 4.52375 14.9699 5.96222 15.5453 6.36094L16.942 7.49023C17.1103 7.62871 17.1831 7.85075 17.127 8.05728L16.6591 9.8121C16.4311 10.4376 17.0029 11.8678 17.127 12.4897C17.2798 12.9851 16.5851 13.2847 16.2711 13.5927C15.9977 13.8136 15.9559 14.2147 16.178 14.4881C16.3988 14.7602 16.8011 14.8032 17.0733 14.5812L17.7466 14.0344C18.304 13.5844 18.5428 12.8478 18.3566 12.1578L18.3542 12.1591ZM12.1325 18.3475C12.4166 18.3165 14.0735 18.2783 14.3123 18.1792L16.042 23.1966L14.5701 22.2189C14.1714 21.9384 13.5686 22.0995 13.3621 22.54L12.5742 24.1218L11.5177 18.6542C11.6837 18.5647 11.9296 18.3379 12.1325 18.3486L12.1325 18.3475ZM6.58275 18.3475C6.78927 18.338 7.034 18.5624 7.19872 18.6543L6.14225 24.1218L5.35438 22.5413C5.14905 22.1008 4.54264 21.9384 4.1475 22.2178L2.6744 23.1967L4.40417 18.1793C4.63815 18.2796 6.30462 18.3165 6.58275 18.3475Z" fill="#696969"/>
<path d="M5.21804 6.72635C3.96577 6.00293 3.24715 9.42662 3.30802 10.2729C3.63988 18.2986 15.0761 18.2974 15.408 10.2729C15.488 5.75576 10.3442 2.72113 6.43708 4.97862C5.71247 5.4012 6.3201 6.48514 7.05782 6.09119C10.1115 4.30892 14.2227 6.72626 14.1343 10.273C14.1343 12.9065 11.9916 15.0493 9.35809 15.0493C5.60957 15.1209 3.24727 10.6731 5.39015 7.60973C5.58712 7.31845 5.50953 6.92212 5.21825 6.72516L5.21804 6.72635Z" fill="#696969"/>
</svg>
