<svg width="55" height="77" viewBox="0 0 55 77" fill="none" xmlns="http://www.w3.org/2000/svg">
<path d="M25.5887 35.4963C26.0707 35.4963 26.5564 35.312 26.925 34.9433L36.7081 25.1639C38.4451 23.4128 35.7936 20.7472 34.0355 22.4912L25.592 30.9346L21.4695 26.8121C19.7184 25.0717 17.0529 27.7302 18.7969 29.4848L24.2592 34.9471C24.6278 35.3158 25.1134 35.5001 25.5956 35.5001L25.5887 35.4963Z" fill="#343434"/>
<path d="M54.4636 34.3148L53.0883 29.1608C52.7764 28.5866 54.3715 23.7623 54.4601 23.1171C55.013 21.0789 54.3076 18.8883 52.6523 17.5236C52.2269 17.077 48.0654 14.0817 48.0087 13.4933L46.0733 8.46691C45.2935 6.50312 43.4361 5.15975 41.3412 5.04278L35.9959 4.74149C35.6946 4.72376 35.4146 4.63514 35.1877 4.49336L30.686 1.57966C28.8782 0.413426 26.6308 0.409887 24.816 1.58321L20.3355 4.48275C19.9314 4.89747 14.7704 4.95774 14.1642 5.04635C12.0657 5.16332 10.2083 6.50678 9.42137 8.48826C9.13071 9.06959 7.54624 13.9009 7.01104 14.1633L2.83891 17.5414C1.19418 18.8955 0.49237 21.086 1.04173 23.1171C1.15161 23.7871 2.7077 28.5795 2.42412 29.1395L1.04527 34.3147C0.492307 36.3529 1.19769 38.5471 2.85307 39.9118C3.32096 40.3797 7.41149 43.3359 7.49661 43.9421L9.43553 48.972C9.55251 49.2663 9.70493 49.5392 9.86798 49.8086L3.06574 69.5245C2.7219 70.5277 3.0551 71.6406 3.89519 72.2858C4.73528 72.931 5.89082 72.9735 6.77349 72.3886L13.1362 68.1562L16.5391 74.9868C17.5068 77.0676 20.8174 76.6245 21.1791 74.3523L24.7627 55.8206C25.6772 56.4267 26.7193 56.7351 27.7544 56.7351C28.7896 56.7351 29.8317 56.4267 30.7462 55.8206L34.3263 74.3487C34.6878 76.6031 38.0057 77.0851 38.9698 74.9832L42.3692 68.1562L48.7319 72.385C50.5964 73.7107 53.262 71.6761 52.4396 69.5173L45.6409 49.8014C46.0237 49.2803 46.6156 47.5257 46.8744 46.9089C47.2537 45.9342 46.7716 44.8389 45.7968 44.4596C44.8256 44.0839 43.7268 44.5624 43.351 45.5372L42.5641 47.5648C42.3302 48.1603 41.7772 48.575 41.1321 48.6069C39.1896 48.8443 34.7729 48.5218 33.1353 49.7588C32.0222 50.4784 29.7572 51.9423 28.6407 52.669C27.3504 53.5835 25.8404 51.8502 24.4969 51.1342C24.4898 51.1342 22.3595 49.7482 22.3524 49.7482C20.7644 48.5395 16.2768 48.8408 14.3946 48.6104C13.9693 48.582 13.6077 48.4225 13.3241 48.1425C12.9945 48.1283 11.2044 42.8539 11.0165 42.5525C10.4529 40.6384 6.64237 38.2563 5.2422 36.9768C4.7424 36.5656 4.52618 35.9062 4.69277 35.293C5.0756 33.4002 6.75928 29.2457 6.07516 27.321L4.69277 22.1315C4.52971 21.5254 4.74594 20.8661 5.23156 20.4656C6.65297 19.1647 10.4564 16.8003 11.0271 14.8543L12.9483 9.85989C13.1894 9.25375 13.7352 8.85671 14.3803 8.82132L19.7399 8.51648C21.7568 8.58737 25.2057 5.69135 26.8718 4.75914C27.4212 4.40467 28.0983 4.40822 28.6405 4.7556C30.3491 5.71267 33.7272 8.58027 35.7831 8.51647L41.139 8.81777C41.7806 8.85321 42.3265 9.25022 42.5605 9.84217C43.3935 11.6429 44.4144 15.9142 46.1229 17.0981L50.2701 20.4514C50.7699 20.8626 50.9862 21.5219 50.8196 22.1351L49.4301 27.3458C48.7531 29.2033 50.451 33.4498 50.8196 35.2965C51.2733 36.7676 49.2103 37.6573 48.278 38.5718C47.4663 39.2276 47.3423 40.4186 48.0015 41.2304C48.6573 42.0385 49.8519 42.1661 50.66 41.5068L52.6592 39.8833C54.3146 38.547 55.0236 36.3599 54.4706 34.3111L54.4636 34.3148ZM35.9891 52.6904C36.8327 52.5983 41.7528 52.4848 42.4617 52.1906L47.5979 67.0889L43.2274 64.1859C42.0434 63.3529 40.2534 63.8314 39.6402 65.1394L37.3007 69.8361L34.1637 53.6011C34.6564 53.3353 35.3866 52.6618 35.9892 52.6937L35.9891 52.6904ZM19.51 52.6904C20.1232 52.6621 20.8499 53.3285 21.3391 53.6014L18.202 69.8364L15.8626 65.1432C15.2529 63.8352 13.4522 63.3531 12.2789 64.1826L7.9048 67.0892L13.0411 52.1909C13.7358 52.4886 18.6842 52.5983 19.51 52.6904Z" fill="#343434"/>
<path d="M15.4575 18.1831C11.7391 16.035 9.60526 26.2011 9.78602 28.7139C10.7714 52.545 44.7296 52.5414 45.7151 28.7139C45.9526 15.3011 30.6789 6.29023 19.0773 12.9935C16.9257 14.2483 18.7299 17.4669 20.9205 16.2971C29.9878 11.0049 42.1953 18.1828 41.9331 28.7145C41.9331 36.534 35.5704 42.8968 27.7507 42.8968C16.6201 43.1095 9.60563 29.9023 15.9686 20.8061C16.5534 19.9412 16.323 18.7644 15.4581 18.1796L15.4575 18.1831Z" fill="#343434"/>
</svg>
