<svg width="116" height="116" viewBox="0 0 116 116" fill="none" xmlns="http://www.w3.org/2000/svg">
<path d="M101.5 101.5V54.375" stroke="#0F1030" stroke-width="8" stroke-linecap="round" stroke-linejoin="round"/>
<path d="M14.5 54.375V101.5" stroke="#0F1030" stroke-width="8" stroke-linecap="round" stroke-linejoin="round"/>
<path d="M86.6519 10.875H29.3479C24.4082 10.875 19.9519 13.5962 18.0379 17.777L8.22623 39.1935C4.92023 46.4 10.4012 54.5635 18.9127 54.8293H19.3671C26.4817 54.8293 32.2479 49.126 32.2479 42.9925C32.2479 49.1115 38.0141 54.8293 45.1287 54.8293C52.2434 54.8293 57.9999 49.532 57.9999 42.9925C57.9999 49.1115 63.7661 54.8293 70.8807 54.8293C77.9954 54.8293 83.7616 49.532 83.7616 42.9925C83.7616 49.532 89.5277 54.8293 96.6424 54.8293H97.0822C105.589 54.5635 111.08 46.4 107.774 39.1935L97.9619 17.777C96.0479 13.5962 91.5867 10.875 86.6519 10.875Z" stroke="#0F1030" stroke-width="8" stroke-linecap="round" stroke-linejoin="round"/>
<path d="M7.25 105.125H108.75" stroke="#0F1030" stroke-width="8" stroke-linecap="round" stroke-linejoin="round"/>
<path d="M57.9834 60.6998C55.3165 60.6998 52.7589 61.7592 50.8731 63.6449C48.9874 65.5307 47.928 68.0883 47.928 70.7552C47.928 71.5171 48.2307 72.2479 48.7695 72.7867C49.3082 73.3254 50.039 73.6281 50.8009 73.6281C51.5629 73.6281 52.2937 73.3254 52.8324 72.7867C53.3712 72.2479 53.6739 71.5171 53.6739 70.7552C53.6739 69.9028 53.9267 69.0696 54.4002 68.361C54.8737 67.6523 55.5468 67.0999 56.3342 66.7737C57.1217 66.4476 57.9881 66.3622 58.8241 66.5285C59.66 66.6948 60.4279 67.1052 61.0306 67.7079C61.6333 68.3106 62.0437 69.0785 62.21 69.9144C62.3763 70.7504 62.2909 71.6169 61.9648 72.4043C61.6386 73.1918 61.0863 73.8648 60.3776 74.3383C59.6689 74.8119 58.8357 75.0646 57.9834 75.0646C57.2214 75.0646 56.4907 75.3673 55.9519 75.9061C55.4131 76.4449 55.1104 77.1756 55.1104 77.9376V83.6835C55.1104 84.4455 55.4131 85.1762 55.9519 85.715C56.4907 86.2538 57.2214 86.5565 57.9834 86.5565C58.7453 86.5565 59.4761 86.2538 60.0149 85.715C60.5536 85.1762 60.8563 84.4455 60.8563 83.6835V80.3509C63.178 79.6729 65.1763 78.1785 66.483 76.1432C67.7897 74.108 68.3167 71.669 67.9668 69.2758C67.6169 66.8826 66.4138 64.6965 64.5791 63.1205C62.7444 61.5445 60.4019 60.6848 57.9834 60.6998Z" fill="#0F1030"/>
<path d="M57.9831 95.1754C58.745 95.1754 59.4758 94.8727 60.0146 94.3339C60.5534 93.7951 60.856 93.0644 60.856 92.3024C60.856 91.5405 60.5534 90.8097 60.0146 90.2709C59.4758 89.7321 58.745 89.4294 57.9831 89.4294C57.2211 89.4294 56.4904 89.7321 55.9516 90.2709C55.4128 90.8097 55.1101 91.5405 55.1101 92.3024C55.1101 93.0644 55.4128 93.7951 55.9516 94.3339C56.4904 94.8727 57.2211 95.1754 57.9831 95.1754Z" fill="#0F1030"/>
</svg>
