<svg width="11" height="15" viewBox="0 0 11 15" fill="none" xmlns="http://www.w3.org/2000/svg">
<path d="M10.3954 1.55931V1.03954C10.3954 0.467792 9.92759 0 9.35585 0H1.03954C0.467792 0 0 0.467792 0 1.03954V1.55931C0 2.32338 0.421005 2.98868 1.03954 3.34731V8.83608C0.467792 8.83608 0 9.30387 0 9.87562V13.514C0 14.0857 0.467792 14.5535 1.03954 14.5535H9.35585C9.92759 14.5535 10.3954 14.0857 10.3954 13.514V9.87562C10.3954 9.30387 9.92759 8.83608 9.35585 8.83608V3.34731C9.97438 2.98868 10.3954 2.32338 10.3954 1.55931ZM9.35585 1.55931C9.35585 2.13105 8.88805 2.59885 8.31631 2.59885C7.74456 2.59885 7.27677 2.13105 7.27677 1.55931V1.03954H9.35585V1.55931ZM6.23723 1.55931C6.23723 2.13105 5.76944 2.59885 5.19769 2.59885C4.62595 2.59885 4.15815 2.13105 4.15815 1.55931V1.03954H6.23723V1.55931ZM1.03954 1.03954H3.11862V1.55931C3.11862 2.13105 2.65082 2.59885 2.07908 2.59885C1.50733 2.59885 1.03954 2.13105 1.03954 1.55931V1.03954ZM9.35585 13.514H1.03954V9.87562H9.35585V13.514ZM4.67792 6.23723C4.67792 5.95135 4.91181 5.71746 5.19769 5.71746C5.48357 5.71746 5.71746 5.95135 5.71746 6.23723C5.71746 6.52311 5.48357 6.757 5.19769 6.757C4.91181 6.757 4.67792 6.52311 4.67792 6.23723ZM5.19769 7.79654C5.76944 7.79654 6.23723 8.26433 6.23723 8.83608H4.15815C4.15815 8.26433 4.62595 7.79654 5.19769 7.79654ZM8.31631 8.83608H7.27677C7.27677 8.15517 6.94412 7.55224 6.43474 7.17282C6.63226 6.91293 6.757 6.59067 6.757 6.23723C6.757 5.37962 6.0553 4.67792 5.19769 4.67792C4.34008 4.67792 3.63838 5.37962 3.63838 6.23723C3.63838 6.59067 3.76313 6.91293 3.96064 7.17282C3.45127 7.55224 3.11862 8.14998 3.11862 8.83608H2.07908V3.63839C2.7028 3.63839 3.25896 3.35771 3.63838 2.9211C4.01781 3.35771 4.57397 3.63839 5.19769 3.63839C5.82142 3.63839 6.37758 3.35771 6.757 2.9211C7.13642 3.35771 7.69258 3.63839 8.31631 3.63839V8.83608Z" fill="#0F1030"/>
</svg>
