<svg width="96" height="96" viewBox="0 0 96 96" fill="none" xmlns="http://www.w3.org/2000/svg">
<path d="M92.5093 89.146H87.4514V34.8856C89.9196 32.4579 91.4977 29.14 91.4977 25.4175V19.3481C91.4977 18.9031 91.3762 18.4578 91.1739 18.0533V18.0128L83.0814 1.82776C82.5554 0.775697 81.5036 0.128418 80.3705 0.128418H68.2318C66.5729 0.128418 65.1971 1.50402 65.1971 3.16311C65.1971 4.82195 66.5729 6.1978 68.2318 6.1978H78.5091L83.567 16.3134H12.434L17.4918 6.1978H56.093C57.7518 6.1978 59.1277 4.82195 59.1277 3.16311C59.1277 1.50402 57.7518 0.128418 56.093 0.128418H15.6305C14.4974 0.128418 13.4456 0.775697 12.9196 1.82776L4.82706 18.0128V18.0533C4.62479 18.4578 4.50328 18.9031 4.50328 19.3481V25.4175C4.50328 29.14 6.08136 32.4579 8.54953 34.8856V89.146H3.49172C1.83288 89.146 0.457031 90.5216 0.457031 92.1806C0.457031 93.8395 1.83288 95.2153 3.49172 95.2153H92.5093C94.1681 95.2153 95.5439 93.8395 95.5439 92.1806C95.5439 90.5216 94.1681 89.146 92.5093 89.146ZM51.0352 22.3828H65.1971V25.4175C65.1971 29.3017 62.0006 32.4984 58.1161 32.4984C54.2316 32.4984 51.0352 29.3017 51.0352 25.4175V22.3828ZM30.8039 22.3828H44.9658V25.4175C44.9658 29.3017 41.7693 32.4984 37.8849 32.4984C34.0004 32.4984 30.8039 29.3017 30.8039 25.4175V22.3828ZM10.5727 25.4175V22.3828H24.7345V25.4175C24.7345 29.3017 21.5381 32.4984 17.6536 32.4984C13.7691 32.4984 10.5727 29.3017 10.5727 25.4175ZM81.3821 89.146H14.6189V70.9378H81.3821V89.146ZM81.3821 64.8684H14.6189V38.163C15.59 38.4058 16.6015 38.5678 17.6536 38.5678C21.7404 38.5678 25.3416 36.6659 27.7692 33.7123C30.1969 36.6659 33.7981 38.5678 37.8849 38.5678C41.9716 38.5678 45.5728 36.6659 48.0005 33.7123C50.4282 36.6659 54.0294 38.5678 58.1161 38.5678C62.2029 38.5678 65.8041 36.6659 68.2318 33.7123C70.6594 36.6659 74.2606 38.5678 78.3474 38.5678C79.3994 38.5678 80.411 38.4058 81.3821 38.163V64.8684ZM85.4283 25.4175C85.4283 29.3017 82.2319 32.4984 78.3474 32.4984C74.4629 32.4984 71.2664 29.3017 71.2664 25.4175V22.3828H85.4283V25.4175Z" fill="#343434"/>
</svg>
