<svg width="24" height="24" viewBox="0 0 24 24" fill="none" xmlns="http://www.w3.org/2000/svg">
<path d="M17.4948 18.7269H5.66738C5.25927 18.7269 4.92816 19.058 4.92816 19.4661C4.92816 19.8742 5.25927 20.2053 5.66738 20.2053H17.4948C17.903 20.2053 18.2341 19.8742 18.2341 19.4661C18.2341 19.058 17.903 18.7269 17.4948 18.7269Z" fill="white"/>
<path d="M22.4229 21.6837H21.1909V8.46647C21.7921 7.87511 22.1765 7.0669 22.1765 6.16014V4.68171C22.1765 4.5733 22.1469 4.46484 22.0976 4.3663V4.35643L20.1264 0.413942C19.9983 0.15767 19.742 0 19.466 0H16.5092C16.1051 0 15.77 0.335082 15.77 0.739217C15.77 1.14329 16.1051 1.47843 16.5092 1.47843H19.0126L20.2447 3.94249H2.91746L4.14949 1.47843H13.5523C13.9564 1.47843 14.2915 1.14329 14.2915 0.739217C14.2915 0.335082 13.9564 0 13.5523 0H3.69608C3.42008 0 3.16387 0.15767 3.03574 0.413942L1.06449 4.35643V4.3663C1.01522 4.46484 0.985622 4.5733 0.985622 4.68171V6.16014C0.985622 7.06689 1.37002 7.87511 1.97124 8.46647V21.6837H0.739217C0.335141 21.6837 0 22.0188 0 22.4229C0 22.827 0.335141 23.1621 0.739217 23.1621H22.4229C22.827 23.1621 23.1621 22.827 23.1621 22.4229C23.1621 22.0188 22.827 21.6837 22.4229 21.6837ZM12.3203 5.42092H15.77V6.16014C15.77 7.1063 14.9913 7.88498 14.0451 7.88498C13.0989 7.88498 12.3203 7.1063 12.3203 6.16014V5.42092ZM7.39217 5.42092H10.8418V6.16014C10.8418 7.1063 10.0632 7.88498 9.11701 7.88498C8.17079 7.88498 7.39217 7.1063 7.39217 6.16014V5.42092ZM2.46406 6.16014V5.42092H5.91373V6.16014C5.91373 7.1063 5.13511 7.88498 4.18889 7.88498C3.24268 7.88498 2.46406 7.1063 2.46406 6.16014ZM19.7124 21.6837H3.44968V17.2484H19.7124V21.6837ZM19.7124 15.77H3.44968V9.26481C3.68622 9.32395 3.93262 9.36341 4.18889 9.36341C5.18438 9.36341 6.0616 8.90014 6.65295 8.18066C7.2443 8.90014 8.12152 9.36341 9.11701 9.36341C10.1125 9.36341 10.9897 8.90014 11.5811 8.18066C12.1724 8.90014 13.0496 9.36341 14.0451 9.36341C15.0406 9.36341 15.9178 8.90014 16.5092 8.18066C17.1005 8.90014 17.9777 9.36341 18.9732 9.36341C19.2295 9.36341 19.4759 9.32395 19.7124 9.26481V15.77ZM20.6981 6.16014C20.6981 7.1063 19.9194 7.88498 18.9732 7.88498C18.027 7.88498 17.2484 7.1063 17.2484 6.16014V5.42092H20.6981V6.16014Z" fill="white"/>
</svg>
