<svg width="62" height="55" viewBox="0 0 62 55" fill="none" xmlns="http://www.w3.org/2000/svg">
<path d="M31.0005 21.5254C26.1064 21.5254 21.9707 25.661 21.9707 30.5552C21.9707 35.4494 26.1064 39.585 31.0005 39.585C35.8947 39.585 40.0303 35.4494 40.0303 30.5552C40.0303 25.661 35.8947 21.5254 31.0005 21.5254Z" fill="#343434"/>
<path d="M55.0797 9.48587H47.296L39.1481 1.33797C38.8691 1.05792 38.5374 0.83582 38.1722 0.684465C37.807 0.533109 37.4155 0.455484 37.0201 0.456058H24.9804C24.585 0.455484 24.1935 0.533109 23.8283 0.684465C23.4631 0.83582 23.1314 1.05792 22.8523 1.33797L14.7044 9.48587H6.92075C3.60079 9.48587 0.900879 12.1858 0.900879 15.5057V48.615C0.900879 51.935 3.60079 54.6349 6.92075 54.6349H55.0797C58.3997 54.6349 61.0996 51.935 61.0996 48.615V15.5057C61.0996 12.1858 58.3997 9.48587 55.0797 9.48587ZM31.0002 45.6051C22.8433 45.6051 15.9506 38.7123 15.9506 30.5554C15.9506 22.3985 22.8433 15.5057 31.0002 15.5057C39.1572 15.5057 46.0499 22.3985 46.0499 30.5554C46.0499 38.7123 39.1572 45.6051 31.0002 45.6051Z" fill="#343434"/>
</svg>
