<svg width="113" height="96" viewBox="0 0 113 96" fill="none" xmlns="http://www.w3.org/2000/svg">
<path d="M95.2947 5.29414C95.2947 6.26826 96.0853 7.05886 97.0594 7.05886L100.589 7.05886C101.561 7.05886 102.354 7.85122 102.354 8.82357L102.354 10.5883L93.53 10.5883C90.6112 10.5883 88.2359 12.9636 88.2359 15.8824L88.2359 26.4707C88.2359 29.3896 90.6112 31.7649 93.53 31.7649L102.354 31.7649L102.354 33.5296C102.354 34.502 101.561 35.2943 100.589 35.2943L97.0594 35.2943C96.0853 35.2943 95.2947 36.0849 95.2947 37.059C95.2947 38.0332 96.0853 38.8238 97.0594 38.8238L100.589 38.8238C102.887 38.8238 104.828 37.3432 105.558 35.2943L107.648 35.2943C110.567 35.2943 112.942 32.919 112.942 30.0002L112.942 12.353C112.942 9.43417 110.567 7.05886 107.648 7.05886L105.558 7.05886C104.828 5.01002 102.887 3.52942 100.589 3.52942L97.0594 3.52942C96.0853 3.52942 95.2947 4.32002 95.2947 5.29414ZM93.53 28.2355C92.5577 28.2355 91.7653 27.4431 91.7653 26.4707L91.7653 15.8824C91.7653 14.9101 92.5577 14.1177 93.53 14.1177L102.354 14.1177L102.354 28.2355L93.53 28.2355ZM107.648 10.5883C108.62 10.5883 109.412 11.3807 109.412 12.353L109.412 30.0002C109.412 30.9725 108.62 31.7649 107.648 31.7649L105.883 31.7649L105.883 10.5883L107.648 10.5883Z" fill="#0F1030"/>
<path d="M95.2947 58.2357C95.2947 59.2116 96.0853 60.0004 97.0594 60.0004L100.589 60.0004C101.561 60.0004 102.354 60.791 102.354 61.7651L102.354 63.5298L93.53 63.5298C90.6112 63.5298 88.2359 65.9051 88.2359 68.824L88.2359 79.4123C88.2359 82.3311 90.6112 84.7064 93.53 84.7064L102.354 84.7064L102.354 86.4711C102.354 87.4453 101.561 88.2359 100.589 88.2359L97.0594 88.2359C96.0853 88.2359 95.2947 89.0247 95.2947 90.0006C95.2947 90.9765 96.0853 91.7653 97.0594 91.7653L100.589 91.7653C102.887 91.7653 104.828 90.2847 105.558 88.2359L107.648 88.2359C110.567 88.2359 112.942 85.8606 112.942 82.9417L112.942 65.2945C112.942 62.3757 110.567 60.0004 107.648 60.0004L105.558 60.0004C104.828 57.9515 102.887 56.471 100.589 56.471L97.0594 56.471C96.0853 56.471 95.2947 57.2598 95.2947 58.2357ZM93.53 81.177C92.5577 81.177 91.7653 80.3864 91.7653 79.4123L91.7653 68.824C91.7653 67.8498 92.5577 67.0593 93.53 67.0593L102.354 67.0593L102.354 81.177L93.53 81.177ZM107.648 63.5298C108.62 63.5298 109.412 64.3204 109.412 65.2945L109.412 82.9417C109.412 83.9158 108.62 84.7064 107.648 84.7064L105.883 84.7064L105.883 63.5298L107.648 63.5298Z" fill="#0F1030"/>
<path d="M17.6472 90.0006C17.6472 89.0247 16.8566 88.2359 15.8825 88.2359L12.353 88.2359C11.3807 88.2359 10.5883 87.4453 10.5883 86.4711L10.5883 84.7064L19.4119 84.7064C22.3307 84.7064 24.7061 82.3311 24.7061 79.4123L24.7061 68.824C24.7061 65.9051 22.3307 63.5298 19.4119 63.5298L10.5883 63.5298L10.5883 61.7651C10.5883 60.791 11.3807 60.0004 12.353 60.0004L15.8825 60.0004C16.8566 60.0004 17.6472 59.2116 17.6472 58.2357C17.6472 57.2598 16.8566 56.471 15.8825 56.471L12.353 56.471C10.0554 56.471 8.11419 57.9515 7.38359 60.0004L5.29417 60.0004C2.37533 60.0004 1.91661e-05 62.3757 1.90386e-05 65.2945L1.82672e-05 82.9417C1.81396e-05 85.8605 2.37533 88.2359 5.29417 88.2359L7.38359 88.2359C8.11418 90.2847 10.0554 91.7653 12.353 91.7653L15.8825 91.7653C16.8566 91.7653 17.6472 90.9765 17.6472 90.0006ZM19.4119 67.0593C20.3843 67.0593 21.1766 67.8498 21.1766 68.824L21.1766 79.4123C21.1766 80.3864 20.3843 81.177 19.4119 81.177L10.5883 81.177L10.5883 67.0593L19.4119 67.0593ZM5.29417 84.7064C4.32181 84.7064 3.52945 83.9158 3.52945 82.9417L3.52945 65.2945C3.52945 64.3204 4.32181 63.5298 5.29417 63.5298L7.05889 63.5298L7.05889 84.7064L5.29417 84.7064Z" fill="#0F1030"/>
<path d="M17.6472 37.059C17.6472 36.0849 16.8566 35.2943 15.8825 35.2943L12.353 35.2943C11.3807 35.2943 10.5883 34.502 10.5883 33.5296L10.5883 31.7649L19.4119 31.7649C22.3307 31.7649 24.7061 29.3896 24.7061 26.4707L24.7061 15.8824C24.7061 12.9636 22.3307 10.5883 19.4119 10.5883L10.5883 10.5883L10.5883 8.82357C10.5883 7.85122 11.3807 7.05886 12.353 7.05886L15.8825 7.05886C16.8566 7.05886 17.6472 6.26826 17.6472 5.29414C17.6472 4.32002 16.8566 3.52942 15.8825 3.52942L12.353 3.52942C10.0554 3.52942 8.11419 5.01002 7.38359 7.05886L5.29417 7.05886C2.37533 7.05886 1.91661e-05 9.43417 1.90386e-05 12.353L1.82672e-05 30.0002C1.81396e-05 32.919 2.37533 35.2943 5.29417 35.2943L7.38359 35.2943C8.11418 37.3432 10.0554 38.8238 12.353 38.8238L15.8825 38.8238C16.8566 38.8238 17.6472 38.0332 17.6472 37.059ZM19.4119 14.1177C20.3843 14.1177 21.1766 14.9101 21.1766 15.8824L21.1766 26.4707C21.1766 27.4431 20.3843 28.2355 19.4119 28.2355L10.5883 28.2355L10.5883 14.1177L19.4119 14.1177ZM5.29417 31.7649C4.32181 31.7649 3.52945 30.9725 3.52945 30.0002L3.52945 12.353C3.52945 11.3806 4.32181 10.5883 5.29417 10.5883L7.05889 10.5883L7.05889 31.7649L5.29417 31.7649Z" fill="#0F1030"/>
<path d="M82.8643 90.0006L82.8643 5.29416C82.8643 2.37531 80.489 4.83302e-06 77.5701 4.70543e-06L35.374 2.86098e-06C32.4551 2.73339e-06 30.0798 2.37531 30.0798 5.29415L30.0798 90.0006C30.0798 92.9194 32.4551 95.2947 35.374 95.2947L77.5701 95.2947C80.4889 95.2947 82.8643 92.9194 82.8643 90.0006ZM35.3722 91.7653C34.3998 91.7653 33.6075 90.9747 33.6075 90.0006L33.6075 5.29415C33.6075 4.32179 34.3998 3.52944 35.3722 3.52944L77.5701 3.52944C78.5425 3.52944 79.3348 4.3218 79.3348 5.29416L79.3348 90.0006C79.3348 90.9747 78.5425 91.7653 77.5701 91.7653L35.3722 91.7653Z" fill="#0F1030"/>
<path d="M75.8052 86.4711L75.8052 8.82356C75.8052 7.84944 75.0146 7.05884 74.0405 7.05884L38.9032 7.05884C37.9291 7.05884 37.1385 7.84943 37.1385 8.82356L37.1385 86.4711C37.1385 87.447 37.9291 88.2358 38.9032 88.2358L74.0405 88.2358C75.0146 88.2358 75.8052 87.447 75.8052 86.4711ZM40.6661 84.7064L40.6661 10.5883L72.2757 10.5883L72.2757 84.7064L40.6661 84.7064Z" fill="#0F1030"/>
</svg>
