<svg width="20" height="20" viewBox="0 0 20 20" fill="none" xmlns="http://www.w3.org/2000/svg">
<path d="M17.247 6.75364C17.268 6.59424 17.279 6.43484 17.279 6.27635C17.279 4.09697 15.3158 2.34814 13.1374 2.64404C12.819 2.07869 12.3562 1.60812 11.7961 1.28054C11.2361 0.952953 10.5991 0.780135 9.95026 0.779785C9.30146 0.780135 8.66441 0.952953 8.10438 1.28054C7.54435 1.60812 7.08147 2.07869 6.76316 2.64404C4.58011 2.34814 2.6215 4.09697 2.6215 6.27635C2.6215 6.43484 2.63249 6.59424 2.65356 6.75364C2.0884 7.07217 1.61799 7.5351 1.29043 8.09508C0.962878 8.65506 0.789941 9.29199 0.789307 9.94073C0.789307 11.2828 1.52401 12.4921 2.65356 13.1278C2.63243 13.286 2.62172 13.4455 2.6215 13.6051C2.6215 15.7845 4.58011 17.5287 6.76316 17.2374C7.08147 17.8028 7.54435 18.2734 8.10438 18.6009C8.66441 18.9285 9.30146 19.1013 9.95026 19.1017C10.5991 19.1013 11.2361 18.9285 11.7961 18.6009C12.3562 18.2734 12.819 17.8028 13.1374 17.2374C15.3158 17.5287 17.279 15.7845 17.279 13.6051C17.279 13.4466 17.268 13.2872 17.247 13.1278C17.8121 12.8093 18.2825 12.3464 18.6101 11.7864C18.9376 11.2264 19.1106 10.5895 19.1112 9.94073C19.1106 9.29199 18.9376 8.65506 18.6101 8.09508C18.2825 7.5351 17.8121 7.07217 17.247 6.75364ZM8.99294 13.9862L5.63362 10.5838L6.93814 9.29764L9.00576 11.3918L12.9697 7.45812L14.2596 8.75897L8.99294 13.9862Z" fill="#4E4E4E"/>
</svg>
