<svg width="106" height="100" viewBox="0 0 106 100" fill="none" xmlns="http://www.w3.org/2000/svg">
<path d="M97.2902 1.61915C66.0703 21.2816 35.7136 58.4408 35.7136 58.4408C29.5249 51.9984 22.9863 45.9016 16.1275 40.178C14.3287 38.6782 12.0394 37.8956 9.6989 37.9804C7.35843 38.0653 5.13174 39.0115 3.44621 40.6375C1.76068 42.2635 0.735075 44.4548 0.56624 46.7907C0.397405 49.1266 1.09724 51.4426 2.53142 53.2941C12.2939 65.9917 20.7855 79.6175 27.8839 93.9753C28.6527 95.5183 29.8323 96.8193 31.293 97.7349C32.7537 98.6505 34.4387 99.1453 36.1625 99.1647C37.8864 99.1841 39.5821 98.7274 41.063 97.8449C42.544 96.9624 43.7526 95.6883 44.5559 94.163C63.9726 57.6362 80.787 37.1597 104.198 9.52889C105.02 8.55947 105.468 7.32707 105.459 6.0557C105.45 4.78434 104.985 3.55842 104.149 2.60079C103.312 1.64317 102.16 1.01741 100.902 0.83727C99.643 0.657131 98.3616 0.93457 97.2902 1.61915Z" fill="#343434"/>
</svg>
