<svg width="80" height="81" viewBox="0 0 80 81" fill="none" xmlns="http://www.w3.org/2000/svg">
<path fill-rule="evenodd" clip-rule="evenodd" d="M41.8927 24.5955C38.2662 21.8067 34.9431 19.8693 32.4677 19.0731C30.1236 18.3216 28.3586 18.6111 27.3899 19.5626C27.3727 19.5798 27.3555 19.5936 27.3417 19.6108C26.9073 20.059 26.6109 20.6725 26.4936 21.4378L12.1496 56.2725L9.42978 62.8739C6.97884 62.7119 4.47265 63.5668 2.59736 65.4386C-0.849835 68.8858 -0.849835 74.4842 2.59736 77.9277C6.0411 81.3748 11.6394 81.3748 15.0864 77.9277C16.9582 76.0558 17.8131 73.5497 17.6511 71.0952L24.2284 68.3857L59.0868 54.0311C59.8521 53.9139 60.4657 53.614 60.9138 53.1831C60.9311 53.1658 60.9449 53.1486 60.9621 53.1348C61.9101 52.1661 62.1996 50.4011 61.4516 48.057C60.6587 45.5819 58.7179 42.2588 55.9291 38.632C60.4036 36.0983 67.8048 34.1816 78.0223 39.0009C78.7083 39.3249 79.5322 39.0285 79.8562 38.3425C80.1803 37.653 79.8873 36.8326 79.1978 36.5051C71.1934 32.7304 64.7364 32.72 59.873 34.0266C57.6461 34.6264 55.7432 35.502 54.1713 36.4396C52.9924 35.0331 51.7031 33.5956 50.3139 32.1616L66.1466 16.3288C66.6844 15.791 66.6844 14.9154 66.1466 14.3777C65.6089 13.84 64.7332 13.8399 64.1955 14.3777L48.3628 30.2105C46.9287 28.8213 45.4912 27.5285 44.0847 26.353C45.0223 24.7846 45.898 22.8816 46.4978 20.6513C47.8009 15.7873 47.794 9.32719 44.0192 1.32652C43.6952 0.637072 42.8713 0.340599 42.1819 0.668101C41.4959 0.992143 41.1994 1.81605 41.5235 2.50201C46.3427 12.7195 44.4265 20.1213 41.8927 24.5955ZM14.794 70.4648C14.5665 69.3376 14.015 68.262 13.1394 67.3829C10.7677 65.0147 6.91709 65.0147 4.54883 67.3829C2.17714 69.7546 2.17714 73.6052 4.54883 75.9735C6.91709 78.3452 10.7677 78.3452 13.1394 75.9735C14.6217 74.4912 15.1767 72.4297 14.8044 70.5131C14.7975 70.4958 14.7975 70.4786 14.794 70.4648ZM13.8357 59.4133L12.1535 63.4949C13.2221 63.9258 14.2219 64.5739 15.0871 65.4356C15.9489 66.3009 16.597 67.3041 17.0279 68.3692L21.1094 66.687C19.8685 65.5908 18.6136 64.4119 17.3623 63.1605C16.1109 61.9091 14.932 60.6544 13.8357 59.4133ZM18.1999 48.8058L15.0078 56.5587C16.3109 58.0893 17.7552 59.6543 19.3099 61.2124C20.8646 62.7671 22.4331 64.2114 23.9637 65.5145L31.7165 62.3224C29.4069 60.5229 26.9731 58.3718 24.5635 55.9588C22.1504 53.5492 20.0028 51.1155 18.1999 48.8058ZM22.7089 37.8611L19.4202 45.8518C21.33 48.4476 23.743 51.2399 26.5147 54.0114C29.2863 56.783 32.0785 59.1926 34.6743 61.1059L42.665 57.8172C39.3384 55.6455 35.5292 52.5291 31.7644 48.7646C28.0035 45.0002 24.8837 41.1876 22.7118 37.864L22.7089 37.8611ZM27.473 26.2855L24.005 34.714C26.0527 38.2508 29.4586 42.5599 33.7089 46.8138C37.9628 51.0677 42.2718 54.4702 45.8088 56.5177L54.2373 53.0498C50.1558 51.2331 44.4954 47.0998 38.9596 41.5633C33.4234 36.027 29.29 30.3661 27.473 26.2855ZM40.3688 26.8956C37.7696 24.879 35.3428 23.3277 33.2986 22.3763C32.1541 21.842 31.1509 21.5007 30.327 21.4076C29.9823 21.3697 29.6859 21.3387 29.4721 21.4283L29.1515 22.2074C29.1584 22.3108 29.1722 22.428 29.186 22.5452C29.2756 23.3691 29.6204 24.3722 30.1513 25.5167C31.9369 29.3397 35.8117 34.5137 40.9097 39.6128C46.0078 44.7118 51.1828 48.5859 55.0058 50.3712C56.1503 50.9021 57.15 51.2468 57.9773 51.3365C58.0945 51.3503 58.2117 51.3641 58.3151 51.371L59.0942 51.0504C59.1838 50.8366 59.1563 50.5402 59.1149 50.1955C59.0253 49.375 58.6805 48.3684 58.1462 47.2239C57.1948 45.1797 55.6435 42.7494 53.6268 40.1537C51.7861 41.5671 50.8553 42.7943 50.8553 42.7943C50.4003 43.4044 49.5384 43.532 48.9248 43.0769C48.3147 42.6253 48.1871 41.7601 48.6422 41.1499C48.6422 41.1499 49.7246 39.6779 51.8792 38.0026C50.7967 36.7237 49.6178 35.4172 48.3561 34.1142L44.8606 37.6096C44.3228 38.1474 43.4472 38.1474 42.9095 37.6096C42.3717 37.0719 42.3717 36.1962 42.9095 35.6585L46.405 32.1631C45.1019 30.9014 43.7954 29.719 42.5165 28.64C40.8412 30.7945 39.3692 31.877 39.3692 31.877C38.759 32.332 37.8938 32.2044 37.4422 31.5943C36.9872 30.9807 37.1147 30.1189 37.7249 29.6638C37.7249 29.6638 38.9555 28.7331 40.3655 26.8923L40.3688 26.8956ZM73.8382 46.1243C73.8382 43.5492 71.7492 41.4601 69.1741 41.4601C66.6024 41.4601 64.5135 43.5492 64.5135 46.1243C64.5135 48.6959 66.6025 50.7849 69.1741 50.7849C71.7492 50.7849 73.8382 48.6958 73.8382 46.1243ZM71.0804 46.1243C71.0804 47.1757 70.229 48.0271 69.1741 48.0271C68.1227 48.0271 67.2712 47.1756 67.2712 46.1243C67.2712 45.0694 68.1227 44.2179 69.1741 44.2179C70.2289 44.2179 71.0804 45.0694 71.0804 46.1243ZM77.1924 22.6138C77.4751 22.1519 77.4613 21.5658 77.1579 21.1177C76.8546 20.6696 76.3168 20.4352 75.7859 20.5317L71.5769 21.2522L67.9435 19.0114C67.4815 18.7287 66.8989 18.7391 66.4474 19.0424C65.9992 19.3458 65.7683 19.8836 65.8614 20.4179L66.5818 24.6235L64.3411 28.2569C64.0584 28.7188 64.0688 29.3049 64.3721 29.753C64.6755 30.2011 65.2132 30.4321 65.7476 30.339L69.9532 29.6151L73.5866 31.8558C74.0485 32.1385 74.6311 32.1247 75.0827 31.8214C75.5308 31.518 75.7618 30.9802 75.6687 30.4459L74.9448 26.2403L77.1855 22.6069L77.1924 22.6138ZM73.2418 23.7652L72.3318 25.2441C72.156 25.5302 72.0905 25.8715 72.1457 26.2024L72.4387 27.9122L70.9598 27.0022C70.6771 26.8264 70.3324 26.7609 70.0049 26.816L68.2917 27.109L69.2052 25.6301C69.3776 25.3475 69.4465 25.0027 69.3914 24.6718L69.0949 22.962L70.5738 23.872C70.8599 24.0479 71.2012 24.1133 71.5321 24.0582L73.2419 23.7617L73.2418 23.7652ZM58.4671 15.3609C58.4671 12.7892 56.3781 10.6967 53.803 10.6967C51.2313 10.6967 49.1424 12.7857 49.1424 15.3609C49.1424 17.9325 51.2314 20.0215 53.803 20.0215C56.3746 20.0215 58.4671 17.9324 58.4671 15.3609ZM42.3096 8.05965C42.5923 7.59772 42.5819 7.01169 42.2786 6.56356C41.9752 6.11543 41.4375 5.88446 40.9031 5.97753L36.6975 6.70145L33.0641 4.46072C32.6022 4.17805 32.0196 4.19183 31.568 4.49519C31.1199 4.79855 30.8889 5.33631 30.982 5.87064L31.7059 10.0762L29.4652 13.7096C29.1825 14.1716 29.1963 14.7576 29.4997 15.2057C29.803 15.6539 30.3408 15.8883 30.8717 15.7918L35.0807 15.0713L38.7141 17.312C39.176 17.5947 39.7586 17.5843 40.2102 17.281C40.6583 16.9776 40.8893 16.4399 40.7962 15.9055L40.0758 11.6999L42.3165 8.06654L42.3096 8.05965ZM55.7094 15.3609C55.7094 16.4123 54.8579 17.2637 53.803 17.2637C52.7516 17.2637 51.9002 16.4122 51.9002 15.3609C51.9002 14.306 52.7516 13.4545 53.803 13.4545C54.8578 13.4545 55.7094 14.306 55.7094 15.3609ZM38.3596 9.20751L37.446 10.6864C37.2737 10.9691 37.2047 11.3138 37.2599 11.6447L37.5563 13.3545L36.0774 12.4445C35.7913 12.2687 35.45 12.2032 35.1191 12.2583L33.4093 12.5548L34.3193 11.0759C34.4952 10.7898 34.5607 10.4485 34.5055 10.1176L34.2125 8.40779L35.6914 9.31782C35.974 9.49363 36.3188 9.55913 36.6497 9.50397L38.3595 9.21096L38.3596 9.20751Z" fill="#343434"/>
</svg>
