<svg width="66" height="66" viewBox="0 0 66 66" fill="none" xmlns="http://www.w3.org/2000/svg">
<path d="M7.8671 64.9597L43.6321 52.3181C44.5095 52.2645 45.2355 51.9898 45.7783 51.4753C53.0159 45.2605 20.6414 12.5574 13.9372 19.5517C13.3816 20.1294 13.1291 20.8932 13.0723 21.6917L0.352347 57.4252C-1.30791 62.0871 3.1836 66.6165 7.87081 64.9594L7.8671 64.9597ZM22.2944 57.5391C20.7573 50.6457 20.2901 43.4051 20.9341 36.3696C23.0962 38.8884 25.3719 41.2177 27.8465 43.4335C27.938 47.3095 28.3705 51.236 29.1185 55.1281L22.2976 57.5396L22.2944 57.5391ZM31.2046 54.3891C30.6427 51.3874 30.2735 48.3699 30.1124 45.3715C32.8332 47.603 36.3147 50.0997 39.5591 51.438L31.2041 54.3923L31.2046 54.3891ZM15.6371 20.9981C19.1186 18.735 36.1279 31.8653 42.719 43.6859C44.5213 46.9212 44.8464 48.9886 44.3856 49.7272L43.2051 50.1439C35.5351 49.9166 15.5172 30.1419 15.1988 22.2192L15.6344 20.9946L15.6371 20.9981ZM12.9226 28.6207L13.9295 25.7895C14.9364 28.2483 16.7324 31.0953 18.9891 33.9926C17.9948 42.0129 18.421 50.3713 20.2169 58.2747L13.4465 60.6671C10.407 48.9984 10.8142 36.1613 12.9226 28.6207ZM2.40854 58.1582L9.21052 39.05C8.7276 46.5368 9.45672 54.1027 11.3758 61.4L7.1368 62.8993C4.18879 63.941 1.36069 61.1065 2.40854 58.1616V58.1582ZM26.7027 11.2166C27.0626 12.1067 28.7133 15.3956 30.8218 15.3956C34.1329 15.3956 34.3443 7.68463 34.1991 4.55998C34.1455 3.44894 33.5994 2.42945 32.6935 1.76033C30.9039 0.440977 29.4362 1.14483 26.5671 1.88342C23.9599 2.55572 22.8773 5.65215 24.4902 7.80158C25.314 8.90632 26.0588 10.0519 26.7027 11.2166ZM27.1131 4.0043L30.0296 3.25309C30.9859 3.01005 31.9675 3.67919 32.0149 4.66398C32.0969 6.3905 32.0149 8.16752 31.7718 9.94461C31.3899 12.7411 30.8092 13.1925 30.8249 13.2115C30.3609 13.142 29.3857 11.7627 28.9279 10.8758C28.8332 10.1688 26.8257 7.27125 26.245 6.49474C25.5632 5.5857 26.0146 4.28526 27.1161 4.00439L27.1131 4.0043ZM43.7536 26.8497L58.2448 15.5187C60.2523 14.212 60.5521 11.3839 58.854 9.68571L55.6818 6.51355C53.9868 4.8154 51.1587 5.11211 49.8488 7.12273L38.454 21.7052C36.1877 25.3129 40.736 29.1606 43.7504 26.847L43.7536 26.8497ZM40.2816 22.9169C52.478 7.3211 51.8493 7.71865 52.8375 7.60876C53.3236 7.55194 53.7939 7.71923 54.138 8.06327C57.4805 11.4058 57.8751 11.5416 57.7647 12.5326C57.651 13.5269 58.0487 12.8988 42.4566 25.0886C41.0488 25.9218 39.4483 24.3214 40.2816 22.9169ZM14.8917 9.06644C13.9416 7.97431 15.5956 6.5382 16.5425 7.63348L20.7784 12.5132C21.7284 13.6054 20.0776 15.0383 19.1275 13.9462L14.8917 9.06644ZM39.3661 6.50661L41.8691 0.664154C42.4373 -0.66465 44.4479 0.197016 43.8797 1.52584L41.3767 7.36829C40.8085 8.69709 38.798 7.83542 39.3661 6.50661ZM61.0883 31.4513C57.9983 31.3092 50.3254 31.4923 50.2527 34.7875C50.2053 36.9149 53.5353 38.5878 54.4317 38.9507C55.5932 39.5946 56.7422 40.3363 57.8469 41.1634C58.8569 41.9177 60.1731 42.126 61.3663 41.7063C63.7241 40.8762 63.8662 38.7014 64.5163 36.17C65.1065 33.8626 63.4495 31.568 61.0885 31.4544L61.0883 31.4513ZM61.647 38.5373C61.3629 39.6389 60.0657 40.0902 59.1567 39.4084C58.4244 38.8624 55.4921 36.8202 54.7756 36.7255C53.8855 36.2678 52.4999 35.2925 52.4273 34.8917C52.4305 34.8854 52.8061 34.273 55.7068 33.8785C57.4806 33.6355 59.2577 33.5534 60.9874 33.6355C61.4451 33.6575 61.8491 33.8785 62.13 34.2573C62.7077 35.0432 62.4487 35.4219 61.647 38.5373ZM51.7042 46.5197C50.6121 45.5728 52.0482 43.9188 53.1372 44.8689L58.0169 49.1047C58.7808 49.7676 58.3042 51.0238 57.3004 51.0238C56.7228 51.0238 56.8838 51.0143 51.7042 46.5197ZM64.9834 23.7777C58.658 26.4891 59.0273 26.3722 58.7117 26.3722C57.5281 26.3722 57.1935 24.7404 58.2824 24.2732L64.1249 21.7702C65.4442 21.1957 66.3217 23.2094 64.9865 23.7808L64.9834 23.7777Z" fill="#0F1030"/>
</svg>
