<svg width="58" height="64" viewBox="0 0 58 64" fill="none" xmlns="http://www.w3.org/2000/svg">
<path d="M18.1911 6.89094L19.8571 6.76673L20.4879 8.31332C20.6364 8.67378 20.9871 8.90516 21.3744 8.90516H21.4499C21.8688 8.8735 22.2098 8.58123 22.3048 8.18177L22.7042 6.55968L24.3701 6.43547C24.7817 6.4038 25.1301 6.11154 25.225 5.71208C25.3249 5.30778 25.1495 4.88888 24.8012 4.67695L23.3862 3.79769L23.7661 2.1756C23.866 1.7713 23.6979 1.35239 23.3472 1.13317C22.9916 0.913975 22.5435 0.945636 22.2244 1.21355L20.9531 2.29251L19.538 1.41325C19.1824 1.19406 18.7343 1.22572 18.4152 1.49363C18.0962 1.76154 17.9914 2.20479 18.1522 2.58475L18.7781 4.13377L17.4994 5.21274C17.1877 5.48065 17.0805 5.9166 17.2364 6.30386C17.3996 6.68381 17.7796 6.92261 18.1911 6.89094ZM20.0056 5.01315C20.3174 4.75011 20.4294 4.31415 20.2735 3.92203L20.0933 3.48607L20.4927 3.7345C20.8483 3.95369 21.2965 3.92203 21.6155 3.65412L21.976 3.34968L21.864 3.81C21.7641 4.2143 21.9322 4.6332 22.2877 4.85242L22.6872 5.10085L22.2195 5.13738C21.8079 5.16904 21.4596 5.46131 21.3647 5.86077L21.2526 6.31621L21.0724 5.86807C20.9238 5.51249 20.5731 5.28841 20.181 5.28841H20.125L19.6573 5.32495L20.0056 5.01315Z" fill="#343434"/>
<path d="M6.65141 6.43556L8.31734 6.55977L8.71677 8.17451C8.81662 8.57881 9.16004 8.87351 9.57164 8.90518H9.64714C10.0344 8.90518 10.3827 8.67381 10.5337 8.31335L11.1645 6.76676L12.8304 6.89097C13.242 6.92263 13.6292 6.68638 13.7851 6.29913C13.941 5.91188 13.8338 5.47593 13.5172 5.20801L12.2312 4.13391L12.862 2.59462C13.0252 2.20737 12.9181 1.77141 12.599 1.50349C12.2799 1.23558 11.8318 1.19905 11.4762 1.41582L10.0612 2.29508L8.78979 1.21611C8.47073 0.9482 8.02257 0.916539 7.66699 1.13574C7.30653 1.35981 7.14335 1.77869 7.24321 2.17573L7.64263 3.79783L6.22031 4.66973C5.86472 4.88892 5.69667 5.30538 5.79652 5.70486C5.89638 6.11647 6.2398 6.40388 6.65141 6.43556ZM8.72162 4.84513C9.0699 4.62594 9.24525 4.20948 9.1454 3.81L9.03337 3.34969L9.39382 3.65413C9.71288 3.92204 10.161 3.9537 10.5093 3.7345L10.9161 3.48608L10.7358 3.92935C10.5873 4.30929 10.692 4.74526 11.0037 5.01317L11.3642 5.31762L10.8771 5.28108C10.4777 5.25673 10.0977 5.49297 9.93455 5.87292L9.75919 6.30888L9.64715 5.85344C9.54729 5.44913 9.20388 5.16173 8.78741 5.13005L8.31978 5.09352L8.72162 4.84513Z" fill="#343434"/>
<path d="M56.6066 15.6879L54.9918 15.2763L54.8798 13.6055C54.8481 13.1939 54.5607 12.8456 54.1564 12.7458C53.757 12.6459 53.3405 12.814 53.114 13.1647L52.2274 14.5749L50.6127 14.1633C50.2084 14.0634 49.7895 14.2315 49.5703 14.5822C49.3511 14.9378 49.3779 15.3859 49.6458 15.6977L50.7125 16.9812L49.8211 18.3914C49.6019 18.7396 49.6287 19.1902 49.8966 19.5142C50.1645 19.8332 50.6005 19.9453 50.9804 19.7894L52.527 19.1732L53.5938 20.4519C53.7813 20.6759 54.0492 20.8001 54.3293 20.8001C54.4486 20.8001 54.5655 20.7807 54.6776 20.7319C55.0648 20.5834 55.3084 20.1961 55.2816 19.7772L55.1696 18.1113L56.7161 17.4951C57.1034 17.3393 57.3469 16.9593 57.3153 16.5404C57.2982 16.1313 57.0035 15.7878 56.6066 15.6879ZM54.2928 16.8984C53.9056 17.0542 53.6693 17.4342 53.6937 17.8458L53.7253 18.3134L53.4209 17.9529C53.2334 17.7289 52.9655 17.6095 52.6902 17.6095C52.5709 17.6095 52.454 17.6339 52.3346 17.6777L51.8987 17.8531L52.1471 17.4537C52.3712 17.1054 52.3395 16.6499 52.0716 16.3309L51.772 15.9704L52.2397 16.0898C52.6318 16.1823 53.0434 16.0143 53.2674 15.6708L53.5159 15.2714L53.5475 15.739C53.5719 16.1506 53.8593 16.494 54.2635 16.5988L54.719 16.7181L54.2928 16.8984Z" fill="#343434"/>
<path d="M40.4879 9.4654L41.8348 10.4445L41.3185 12.0276C41.1869 12.4197 41.3306 12.8508 41.6619 13.0943C41.998 13.3379 42.4485 13.3428 42.7847 13.1017L44.1315 12.1226L45.4784 13.1017C45.6465 13.2259 45.8462 13.2892 46.0459 13.2892C46.2383 13.2892 46.438 13.2259 46.6061 13.109C46.9422 12.8654 47.0859 12.4368 46.9544 12.0422L46.438 10.4591L47.7849 9.48001C48.121 9.23646 48.2598 8.80782 48.1283 8.40834C47.9968 8.01622 47.6363 7.75317 47.2296 7.75317H47.2223H45.5515L45.0352 6.17005C44.9037 5.77792 44.5432 5.51001 44.1316 5.51001C43.7127 5.51001 43.3522 5.77305 43.2207 6.17005L42.7044 7.75317H41.0385H41.0312C40.6196 7.75317 40.2518 8.01621 40.1276 8.40834C40.0131 8.79316 40.1518 9.22186 40.4879 9.4654ZM43.0866 9.20479C43.5056 9.20479 43.866 8.93688 43.9975 8.54476L44.1412 8.09662L44.2849 8.54476C44.4164 8.93688 44.7769 9.20479 45.1958 9.20479H45.6707L45.2908 9.48488C44.9547 9.72843 44.8158 10.1571 44.9425 10.5516L45.0862 10.9998L44.6989 10.7197C44.5309 10.6003 44.3385 10.5443 44.1436 10.5443C43.9439 10.5443 43.7515 10.6076 43.5835 10.7245L43.2035 10.9998L43.3521 10.5394C43.4714 10.1522 43.3326 9.7357 43.0038 9.48486L42.6239 9.20965H43.0866L43.0866 9.20479Z" fill="#343434"/>
<path d="M5.18484 16.928C5.37724 16.928 5.57209 16.8525 5.71578 16.704C5.99587 16.4117 5.9837 15.949 5.69143 15.6688L1.41947 11.5917C1.1272 11.3116 0.664472 11.3238 0.384334 11.6161C0.104196 11.9083 0.116423 12.3711 0.408689 12.6512L4.68065 16.7234C4.82435 16.8598 5.00461 16.928 5.18484 16.928Z" fill="#343434"/>
<path d="M25.2683 16.6794C25.412 16.8158 25.5922 16.8791 25.7725 16.8791C25.9649 16.8791 26.1597 16.8036 26.3034 16.655L30.0931 12.6778C30.3732 12.3855 30.361 11.9228 30.0688 11.6426C29.7765 11.3625 29.3138 11.3747 29.0336 11.667L25.2439 15.6442C24.9638 15.9365 24.9761 16.3992 25.2683 16.6794Z" fill="#343434"/>
<path d="M15.2605 23.7131C15.6648 23.7131 15.9911 23.3818 15.9911 22.9824V7.6069C15.9911 7.2026 15.6599 6.87622 15.2605 6.87622C14.8562 6.87622 14.5298 7.20745 14.5298 7.6069V22.9749C14.5322 23.3889 14.8561 23.7131 15.2605 23.7131Z" fill="#343434"/>
<path d="M4.56898 10.6806C4.87342 10.761 11.9874 12.7629 10.0806 22.7465C10.0051 23.1459 10.2681 23.5259 10.6602 23.6014C10.7041 23.6087 10.7528 23.6136 10.7966 23.6136C11.14 23.6136 11.4445 23.37 11.5127 23.0217C12.6403 17.1229 10.8137 13.7011 9.08201 11.8667C7.18713 9.85981 5.02197 9.28507 4.93674 9.26069C4.54462 9.16083 4.15007 9.39708 4.04533 9.78433C3.94547 10.1765 4.17442 10.5758 4.56898 10.6806Z" fill="#343434"/>
<path d="M21.2232 11.8665C19.4891 13.7005 17.6625 17.1297 18.7925 23.0215C18.8607 23.3698 19.1676 23.6133 19.5086 23.6133C19.5524 23.6133 19.6011 23.606 19.645 23.6012C20.0444 23.5257 20.3001 23.1409 20.2246 22.7463C18.3103 12.7628 25.4318 10.7633 25.7362 10.6803C26.1283 10.5805 26.3597 10.1811 26.2599 9.78893C26.16 9.3968 25.7606 9.15814 25.3684 9.26529C25.2808 9.28478 23.118 9.85716 21.2232 11.8665Z" fill="#343434"/>
<path d="M34.3895 14.6604C34.4138 14.6604 34.4333 14.6604 34.4577 14.6531C34.862 14.6166 35.1567 14.261 35.1177 13.8543L34.5624 7.9749C34.5259 7.57059 34.163 7.27589 33.7636 7.31486C33.3593 7.35139 33.0646 7.70698 33.1036 8.11369L33.6589 13.9931C33.7051 14.373 34.0217 14.6604 34.3895 14.6604Z" fill="#343434"/>
<path d="M55.3766 26.1366L49.9015 26.6529C49.4972 26.6894 49.2025 27.045 49.2415 27.4517C49.278 27.8317 49.5971 28.1118 49.9722 28.1118C49.9965 28.1118 50.016 28.1118 50.0404 28.1045L55.5154 27.5881C55.9197 27.5516 56.2144 27.196 56.1755 26.7893C56.1389 26.3996 55.776 26.1 55.3766 26.1366Z" fill="#343434"/>
<path d="M44.1416 33.6504L29.7818 21.1929C29.1218 20.6132 28.2474 20.394 27.3877 20.5815C26.5328 20.7691 25.8362 21.3365 25.4807 22.133L24.1095 25.1701C24.0096 25.1579 23.9049 25.1506 23.7977 25.1506L4.78598 25.1531C3.90673 25.1531 3.1079 25.5574 2.57936 26.2563C2.05572 26.9602 1.89987 27.8468 2.14827 28.6821L10.4021 56.2645L12.0096 61.6446C12.3213 62.6723 13.2127 63.3348 14.2844 63.3348H14.2917C15.3633 63.3348 16.2547 62.6675 16.5616 61.6396L18.8997 53.8266L32.2681 45.3532C32.2754 45.3459 32.2803 45.3459 32.2803 45.341L39.7062 40.6331C39.7135 40.6331 39.7183 40.6258 39.7183 40.6258L43.8076 38.0319C44.5505 37.557 45.0108 36.785 45.079 35.9131C45.1448 35.0533 44.8016 34.2252 44.1416 33.6504ZM31.9909 43.809C30.9874 42.6302 30.5636 41.2347 30.3834 40.2166C30.2957 39.7051 30.2836 39.369 30.2836 39.369V39.3252C30.191 38.2146 29.7526 37.3061 28.9806 36.6193C28.2012 35.9593 27.2416 35.6524 26.1261 35.7085C26.1139 35.7085 26.0945 35.7085 26.0774 35.7158C26.0701 35.7158 25.7413 35.7523 25.2225 35.7352C24.9985 35.7279 24.6989 35.7109 24.3506 35.6597L26.0896 29.8558C27.7287 30.8398 29.4872 31.059 30.4858 31.0955C31.0411 31.1077 31.4332 31.0761 31.5282 31.0712C32.2589 31.0347 32.8507 31.2149 33.3232 31.6192C33.7981 32.0381 34.0661 32.6104 34.127 33.3265C34.1343 33.4264 34.1513 33.8185 34.2512 34.3616C34.5264 35.9082 35.3545 38.5337 37.8485 40.0973L31.9909 43.809ZM25.5121 47.9104C25.2758 47.2991 25.1443 46.7317 25.0688 46.32C24.9811 45.8086 24.9689 45.4724 24.9689 45.4724V45.4286C24.8764 44.3131 24.438 43.4022 23.666 42.7227C23.2982 42.411 22.8866 42.1747 22.4384 42.0237L22.5188 41.7558V41.7485L23.9217 37.0723C24.4258 37.1527 24.8642 37.1843 25.1687 37.1916C25.7167 37.2111 26.1112 37.1795 26.216 37.1673C26.9466 37.1307 27.5385 37.3158 28.0109 37.7226C28.4859 38.1415 28.7538 38.7138 28.8147 39.4299C28.822 39.5298 28.8391 39.9219 28.9389 40.465C29.1435 41.6244 29.6258 43.2074 30.7461 44.5933L25.5121 47.9104ZM17.0824 54.7446C17.0702 54.7324 17.0629 54.7203 17.0507 54.713C16.247 53.9336 15.3239 53.5342 14.2937 53.5293C13.2708 53.5366 12.3428 53.9336 11.5366 54.713C11.5244 54.7251 11.5171 54.7324 11.505 54.7446C11.505 54.7446 11.4928 54.7568 11.4806 54.769L9.92185 49.5569C10.7256 49.1648 11.3686 48.7093 11.7996 48.3586C12.2307 48.0103 12.4986 47.7278 12.5717 47.6547C13.0954 47.1506 13.6628 46.8997 14.2936 46.8948C14.9293 46.9021 15.4919 47.1505 16.0204 47.6547C16.0959 47.7302 16.3638 48.0103 16.7925 48.3586C17.2236 48.702 17.8642 49.1574 18.663 49.5496L17.5719 53.1981V53.2054L17.1042 54.7568C17.0872 54.7495 17.0824 54.7446 17.0824 54.7446ZM19.0819 48.1299C18.5023 47.8255 18.0346 47.487 17.7107 47.2263C17.3113 46.9024 17.0799 46.6516 17.0799 46.6516C17.0678 46.6394 17.0605 46.6272 17.0483 46.6199C16.2445 45.8405 15.3215 45.4411 14.2912 45.4362C13.2683 45.4436 12.3404 45.8405 11.5415 46.6199L11.5098 46.6516C11.5098 46.6516 11.2784 46.9 10.879 47.2263C10.5551 47.4894 10.0802 47.8255 9.50053 48.1372L7.72256 42.2067C9.46886 41.8949 10.8766 41.0157 11.7997 40.2728C12.2308 39.9246 12.4987 39.642 12.5718 39.569C13.0954 39.0648 13.6629 38.814 14.2937 38.8091C14.9293 38.8164 15.492 39.0648 16.0205 39.569C16.096 39.6445 16.3639 39.9246 16.7925 40.2728C17.7083 41.0157 19.1185 41.8876 20.8647 42.1993L20.8209 42.3479C20.8209 42.3552 20.8136 42.3601 20.8136 42.3674L19.0819 48.1299ZM5.31633 34.1498C8.22926 34.6053 10.5722 33.1708 11.7995 32.1795C12.2306 31.8312 12.4985 31.5487 12.5716 31.4756C13.0952 30.9714 13.6627 30.7206 14.2935 30.7157C14.9291 30.723 15.4918 30.9714 16.0202 31.4756C16.0957 31.5511 16.3637 31.8312 16.7923 32.1795C17.8591 33.0392 19.7661 34.2375 22.1603 34.2375C22.5207 34.2375 22.891 34.2058 23.2709 34.1498L22.6961 36.0569V36.0642L21.2859 40.7769C19.7637 40.5456 18.5167 39.7735 17.7129 39.1257C17.3135 38.8017 17.0821 38.5509 17.0821 38.5509C17.07 38.5387 17.0627 38.5265 17.0505 38.5192C16.2467 37.7398 15.3237 37.3404 14.2934 37.3356C13.2705 37.3429 12.3426 37.7399 11.5364 38.5192L11.5047 38.5509C11.5047 38.5509 11.2733 38.7993 10.8739 39.1257C10.0629 39.7735 8.81588 40.5529 7.2961 40.7843L5.31633 34.1498ZM3.75759 27.1305C4.00114 26.7993 4.38109 26.6142 4.78536 26.6142H23.7946C23.9432 26.6142 24.0942 26.6385 24.2306 26.6897H24.2379C24.4692 26.7773 24.6738 26.9259 24.8248 27.1256C25.0684 27.4569 25.1439 27.8685 25.0245 28.2606L24.9685 28.4408C24.9612 28.453 24.9612 28.4725 24.9563 28.4846L23.741 32.5447C21.0546 33.2924 18.8212 31.9407 17.7057 31.0346C17.3063 30.7107 17.0749 30.4598 17.0749 30.4598C17.0628 30.4477 17.0555 30.4355 17.0433 30.4282C16.2395 29.6488 15.3165 29.2494 14.2862 29.2445C13.2633 29.2518 12.3354 29.6488 11.5292 30.4282L11.4975 30.4598C11.4975 30.4598 11.2662 30.7083 10.8667 31.0346C9.75123 31.9382 7.51299 33.2924 4.82416 32.5447L3.54062 28.2606C3.43833 27.8709 3.50916 27.4593 3.75759 27.1305ZM15.1608 61.2284C15.0171 61.7082 14.6176 61.8763 14.2937 61.8763C13.9625 61.8763 13.563 61.7082 13.4218 61.2284L11.9556 56.3281C12.299 56.0407 12.5109 55.8166 12.5718 55.7484C13.0954 55.2442 13.6629 54.9934 14.2937 54.9885C14.9294 54.9958 15.492 55.2442 16.0205 55.7484C16.0838 55.8166 16.2957 56.0358 16.6367 56.3232L15.1608 61.2284ZM22.0143 43.4344C22.27 43.5269 22.5014 43.6584 22.706 43.8338C23.1809 44.2527 23.4415 44.8129 23.5097 45.5411C23.517 45.641 23.5341 46.0331 23.6291 46.5762C23.7216 47.1194 23.9091 47.8866 24.2598 48.7098L19.5471 51.6958L22.0143 43.4344ZM43.6172 35.8208C43.5856 36.2324 43.3688 36.5929 43.0254 36.8121L39.2479 39.2062C36.7295 38.0079 35.9307 35.5212 35.6749 34.1061C35.5872 33.5947 35.575 33.2585 35.575 33.2585V33.2147C35.4825 32.1041 35.0441 31.1956 34.2721 30.5088C33.4927 29.8415 32.5331 29.5371 31.4176 29.6053H31.3811C31.3738 29.6053 31.0377 29.6418 30.5213 29.6248C29.6105 29.5931 27.947 29.3812 26.5051 28.3778C26.6415 27.6301 26.4686 26.8677 26.0059 26.2515C25.85 26.0469 25.6698 25.8643 25.47 25.7157L26.8169 22.7297C26.985 22.3546 27.3089 22.094 27.7083 22.0063C28.1078 21.9186 28.5194 22.0258 28.8238 22.2937L43.1836 34.7562C43.4856 35.0217 43.6489 35.4092 43.6172 35.8208Z" fill="#343434"/>
<path d="M47.079 13.5693L37.0033 25.177C36.7403 25.4814 36.7719 25.9442 37.0788 26.2121C37.2152 26.3314 37.3905 26.3923 37.5586 26.3923C37.7632 26.3923 37.9629 26.3046 38.1139 26.1439L48.1896 14.5337C48.4527 14.2293 48.421 13.7665 48.1141 13.4986C47.8073 13.2307 47.3469 13.2624 47.079 13.5693Z" fill="#343434"/>
<path d="M33.7904 22.0788C33.4714 22.3273 33.4154 22.79 33.6662 23.1066C33.8099 23.2868 34.0267 23.3867 34.241 23.3867C34.3969 23.3867 34.5601 23.338 34.6891 23.2308C39.4092 19.5215 40.269 15.7364 40.1691 13.2112C40.0571 10.4542 38.7979 8.60317 38.7419 8.5228C38.5105 8.19157 38.0624 8.10389 37.7263 8.33527C37.395 8.56664 37.3073 9.02211 37.5339 9.35088C37.719 9.61392 41.7839 15.7927 33.7904 22.0788Z" fill="#343434"/>
<path d="M40.1961 27.9952C39.9915 28.3435 40.1157 28.794 40.464 28.9938C40.5833 29.062 40.7075 29.0936 40.8317 29.0936C41.0802 29.0936 41.331 28.9621 41.4674 28.7332C46.5674 19.9406 53.2577 23.0973 53.5377 23.2337C53.8982 23.414 54.3365 23.2654 54.5168 22.9025C54.697 22.5421 54.5484 22.1037 54.1855 21.9234C54.0979 21.8796 52.091 20.8957 49.3461 21.1684C46.8278 21.4193 43.2065 22.8076 40.1961 27.9952Z" fill="#343434"/>
</svg>
