<svg width="18" height="24" viewBox="0 0 18 24" fill="none" xmlns="http://www.w3.org/2000/svg">
<path fill-rule="evenodd" clip-rule="evenodd" d="M0 3.26645C0 2.40014 0.3285 1.5693 0.913235 0.956722C1.49797 0.344143 2.29104 0 3.11798 0H12.1737C12.4887 0.000189652 12.7991 0.07893 13.0793 0.229709C13.3594 0.380488 13.6013 0.598973 13.7849 0.867095L17.2022 5.8523C17.4437 6.20626 17.5741 6.63031 17.5741 7.06386V19.8957C17.5741 20.762 17.2456 21.5928 16.6608 22.2054C16.0761 22.818 15.283 23.1621 14.4561 23.1621H3.11798C2.29104 23.1621 1.49797 22.818 0.913235 22.2054C0.3285 21.5928 0 20.762 0 19.8957V3.26645ZM3.11798 1.7817C2.33565 1.7817 1.70072 2.44687 1.70072 3.26645V19.8957C1.70072 20.7153 2.33565 21.3804 3.11798 21.3804H14.4561C15.2384 21.3804 15.8733 20.7153 15.8733 19.8957V7.89532H12.1885C11.9629 7.89532 11.7466 7.80146 11.5872 7.63439C11.4277 7.46733 11.3381 7.24073 11.3381 7.00447V1.7817H3.11798Z" fill="white"/>
</svg>
