<svg width="44" height="57" viewBox="0 0 44 57" fill="none" xmlns="http://www.w3.org/2000/svg">
<path d="M29.4599 1.2161C29.2411 0.992842 28.9799 0.815533 28.6916 0.694576C28.4033 0.57362 28.0938 0.511452 27.7812 0.51172H7.53015C5.66202 0.51172 3.87039 1.25383 2.54942 2.57481C1.22844 3.89578 0.486328 5.68741 0.486328 7.55555V49.3841C0.486328 51.2523 1.22844 53.0439 2.54942 54.3649C3.87039 55.6858 5.66202 56.428 7.53015 56.428H36.5507C38.4189 56.428 40.2105 55.6858 41.5315 54.3649C42.8524 53.0439 43.5945 51.2523 43.5945 49.3841V16.6069C43.5935 15.9946 43.3534 15.4069 42.9254 14.9692L29.4599 1.2161ZM30.0469 8.5182L36.2161 14.8224H30.6222C30.4665 14.8224 30.3172 14.7606 30.2071 14.6505C30.097 14.5404 30.0352 14.3911 30.0352 14.2354L30.0469 8.5182ZM36.5625 51.7321H7.53015C6.90744 51.7321 6.31023 51.4847 5.86991 51.0444C5.42958 50.6041 5.18221 50.0068 5.18221 49.3841V7.55555C5.18221 6.93283 5.42958 6.33562 5.86991 5.8953C6.31023 5.45498 6.90744 5.2076 7.53015 5.2076H25.3393V14.2354C25.3393 15.6365 25.8959 16.9803 26.8866 17.971C27.8773 18.9617 29.2211 19.5183 30.6222 19.5183H38.8987V49.3841C38.8987 50.0068 38.6513 50.6041 38.211 51.0444C37.7706 51.4847 37.1734 51.7321 36.5507 51.7321H36.5625Z" fill="#343434"/>
<path d="M33.487 26.2739H17.6678C17.0451 26.2739 16.4478 26.5213 16.0075 26.9616C15.5672 27.4019 15.3198 27.9992 15.3198 28.6219C15.3198 29.2446 15.5672 29.8418 16.0075 30.2821C16.4478 30.7224 17.0451 30.9698 17.6678 30.9698H33.487C34.1097 30.9698 34.7069 30.7224 35.1473 30.2821C35.5876 29.8418 35.835 29.2446 35.835 28.6219C35.835 27.9992 35.5876 27.4019 35.1473 26.9616C34.7069 26.5213 34.1097 26.2739 33.487 26.2739Z" fill="#343434"/>
<path d="M10.5945 26.2741C9.97181 26.2741 9.3746 26.5215 8.93428 26.9618C8.49395 27.4021 8.24658 27.9993 8.24658 28.6221C8.24658 29.2448 8.49395 29.842 8.93428 30.2823C9.3746 30.7226 9.97181 30.97 10.5945 30.97H10.6239C11.2466 30.97 11.8438 30.7226 12.2841 30.2823C12.7244 29.842 12.9718 29.2448 12.9718 28.6221C12.9718 28.3112 12.9101 28.0035 12.7903 27.7167C12.6705 27.4299 12.4949 27.1698 12.2738 26.9513C12.0526 26.7329 11.7903 26.5606 11.5021 26.4443C11.2138 26.3281 10.9053 26.2702 10.5945 26.2741Z" fill="#343434"/>
<path d="M33.487 33.9116H17.6678C17.0451 33.9116 16.4478 34.159 16.0075 34.5993C15.5672 35.0396 15.3198 35.6369 15.3198 36.2596C15.3198 36.8823 15.5672 37.4795 16.0075 37.9198C16.4478 38.3601 17.0451 38.6075 17.6678 38.6075H33.487C34.1097 38.6075 34.7069 38.3601 35.1473 37.9198C35.5876 37.4795 35.835 36.8823 35.835 36.2596C35.835 35.6369 35.5876 35.0396 35.1473 34.5993C34.7069 34.159 34.1097 33.9116 33.487 33.9116Z" fill="#343434"/>
<path d="M10.5945 33.9118C9.97181 33.9118 9.3746 34.1592 8.93428 34.5995C8.49395 35.0398 8.24658 35.637 8.24658 36.2597C8.24658 36.8825 8.49395 37.4797 8.93428 37.92C9.3746 38.3603 9.97181 38.6077 10.5945 38.6077H10.6239C11.2466 38.6077 11.8438 38.3603 12.2841 37.92C12.7244 37.4797 12.9718 36.8825 12.9718 36.2597C12.9718 35.9489 12.9101 35.6412 12.7903 35.3544C12.6705 35.0676 12.4949 34.8075 12.2738 34.589C12.0526 34.3706 11.7903 34.1983 11.5021 34.082C11.2138 33.9658 10.9053 33.9079 10.5945 33.9118Z" fill="#343434"/>
<path d="M33.487 41.5415H17.6678C17.0451 41.5415 16.4478 41.7889 16.0075 42.2292C15.5672 42.6695 15.3198 43.2667 15.3198 43.8894C15.3198 44.5122 15.5672 45.1094 16.0075 45.5497C16.4478 45.99 17.0451 46.2374 17.6678 46.2374H33.487C34.1097 46.2374 34.7069 45.99 35.1473 45.5497C35.5876 45.1094 35.835 44.5122 35.835 43.8894C35.835 43.2667 35.5876 42.6695 35.1473 42.2292C34.7069 41.7889 34.1097 41.5415 33.487 41.5415Z" fill="#343434"/>
<path d="M10.5945 41.5417C9.97181 41.5417 9.3746 41.7891 8.93428 42.2294C8.49395 42.6697 8.24658 43.2669 8.24658 43.8896C8.24658 44.5123 8.49395 45.1096 8.93428 45.5499C9.3746 45.9902 9.97181 46.2376 10.5945 46.2376H10.6239C11.2466 46.2376 11.8438 45.9902 12.2841 45.5499C12.7244 45.1096 12.9718 44.5123 12.9718 43.8896C12.9718 43.5788 12.9101 43.2711 12.7903 42.9843C12.6705 42.6975 12.4949 42.4373 12.2738 42.2189C12.0526 42.0005 11.7903 41.8282 11.5021 41.7119C11.2138 41.5957 10.9053 41.5378 10.5945 41.5417Z" fill="#343434"/>
</svg>
