<svg width="53" height="55" viewBox="0 0 53 55" fill="none" xmlns="http://www.w3.org/2000/svg">
<path d="M42.075 38.7681L42.0745 31.8392C42.0745 31.8391 42.0745 31.8393 42.0745 31.8392C42.2413 30.1112 41.2766 29.2043 39.6412 28.2148C36.7897 26.568 33.9458 24.9215 31.0915 23.2662C29.2973 22.2366 27.9002 21.6039 25.9959 22.384L29.9262 15.8518C29.9265 15.8512 29.9267 15.8504 29.927 15.8497C30.6867 14.8237 30.757 13.6939 30.0922 12.5802C29.8939 11.8748 30.0641 12.3114 25.1803 3.44707C23.5891 0.593431 22.6183 0.191153 19.9725 0.118466C16.8044 0.0819498 13.6463 0.0430257 10.4786 8.88865e-05C9.29774 -0.00887404 7.03167 0.660856 6.34223 1.62085C5.30174 3.35035 8.99308 -2.78541 1.27448 10.0445C-0.200179 12.4687 -0.669267 13.6407 1.36437 17.1728C5.61552 24.7213 5.72321 24.9114 6.03129 25.2946C6.63906 26.8372 7.7809 27.8674 10.5256 27.6518C11.9239 27.6023 12.9165 27.6648 16.5718 27.7995C16.0641 28.0957 15.3186 28.5053 14.6563 29.2304C14.1991 29.7129 13.2487 30.9354 13.1776 31.8022L13.1772 42.1372C13.1622 45.1028 13.3651 46.4062 17.1049 48.4838C19.6506 49.9288 22.204 51.3738 24.7549 52.8056C25.0746 52.9931 25.3767 53.1518 25.714 53.2736C27.0904 54.3291 28.0022 54.3264 29.8399 53.6956C29.9689 53.6513 30.4698 53.3136 30.6724 53.1806C31.7234 52.9851 31.0315 52.8461 41.8169 50.2631C46.0436 49.2502 49.3818 48.4505 51.2273 47.5528C52.4977 46.9451 52.8212 45.3022 51.9239 44.2688C50.2783 42.3428 44.0847 40.1072 42.075 38.7681ZM28.5037 51.9419L28.2713 40.904C28.1986 39.699 28.5956 38.5267 29.6127 37.8362C29.7001 37.777 32.1339 36.6847 40.216 31.5648C40.5633 31.3445 40.8295 31.6644 40.8426 31.8971C40.8427 34.4375 40.8429 42.0887 40.843 43.8865C40.8626 44.5387 40.577 45.4022 39.8915 46.1917C38.7264 47.5953 35.52 48.6267 29.4784 52.489C29.1529 52.6989 28.5865 52.5745 28.5037 51.9419ZM30.4755 24.334C33.3278 25.9881 36.1725 27.6354 39.0135 29.2758C39.2828 29.4387 39.5091 29.6088 39.6568 29.7561C40.0133 30.1325 39.9164 30.2473 39.7632 30.389C39.3074 30.7173 33.0742 34.4143 31.1264 35.6292C28.516 37.2313 27.8143 37.037 25.8139 35.8853C25.7303 35.8376 18.6688 31.8123 16.7173 30.7124C15.3677 29.9449 16.1095 29.4997 16.6342 29.1911C25.8358 23.8223 25.7611 23.8243 26.4415 23.5315C27.8994 22.9243 28.9542 23.4612 30.4755 24.334ZM20.0066 1.3524C22.1726 1.41374 22.7434 1.60835 24.102 4.04458C28.8857 12.7278 28.8004 12.4655 28.9234 12.9574C29.0271 13.4256 28.8973 13.4524 28.7224 13.4891C28.3851 13.5137 21.2013 13.5011 19.0048 13.5258C16.324 13.5501 15.7765 13.0971 14.6916 11.1448C12.8242 7.80608 10.2224 3.19336 9.81369 2.46755C9.81209 2.46474 9.81118 2.46234 9.80963 2.45958C9.10835 1.22546 9.88786 1.23039 10.465 1.23282C13.6303 1.27575 16.7891 1.31468 20.0066 1.3524ZM2.43538 16.5629C0.666939 13.491 1.05759 12.7731 2.32784 10.6849L7.3679 2.30223C7.72496 1.81214 7.94807 2.02164 8.48014 2.54334C8.58498 2.81795 13.5682 11.6628 13.6146 11.7451C14.4048 13.1653 13.9034 14.4266 13.1531 15.8771L7.96671 24.9249C7.88279 25.0011 7.42142 25.0047 7.03253 24.5853C6.84965 24.3794 7.20201 25.0254 2.43538 16.5629ZM10.4714 26.4207C9.76707 26.473 8.5831 26.5998 9.01093 25.584C9.05804 25.5018 14.3912 16.1925 14.4727 16.0707C15.779 14.1208 17.2001 14.7851 19.1571 14.7575C19.1614 14.7574 19.1672 14.7574 19.1716 14.7573C20.425 14.7373 27.9914 14.7529 28.693 14.7253C28.8412 14.8421 28.9482 15.0633 28.8433 15.2611L23.8645 23.5353C22.094 24.5722 20.3242 25.6061 18.5543 26.6402C10.7883 26.3374 12.3346 26.415 10.4714 26.4207ZM17.7085 47.4088C14.3389 45.5369 14.4306 44.6949 14.4103 42.0344L14.4079 31.8576C14.468 31.1793 15.1836 31.1753 15.7435 31.5566C16.0871 31.7904 15.0666 31.1811 25.2007 36.9547C26.2608 37.5644 26.8589 38.7515 27.0069 39.9755C27.007 39.9768 27.0077 39.9779 27.0079 39.9792C27.0092 39.7822 27.0781 42.6107 27.2703 51.9224C27.2463 52.0133 26.9385 52.2121 26.596 52.2121C26.1898 52.2209 25.7195 51.9423 25.3681 51.7366C22.8091 50.3 20.2574 48.8558 17.7085 47.4088Z" fill="#0F1030"/>
<path d="M35.4485 42.9775C36.2194 42.9775 36.8229 42.2632 36.8229 41.3515C36.8229 40.4394 36.2194 39.7251 35.4485 39.7251C34.6777 39.7251 34.0737 40.4394 34.0737 41.3515C34.0737 42.2632 34.6777 42.9775 35.4485 42.9775Z" fill="#0F1030"/>
<path d="M8.7516 13.2072C8.7516 12.2951 8.14768 11.5808 7.37682 11.5808C6.60596 11.5808 6.00244 12.2951 6.00244 13.2072C6.00244 14.1189 6.60596 14.8332 7.37682 14.8332C8.14768 14.8332 8.7516 14.1189 8.7516 13.2072Z" fill="#0F1030"/>
<path d="M16.1434 18.5452C15.3726 18.5452 14.769 19.2594 14.769 20.1711C14.769 21.0833 15.3726 21.7975 16.1434 21.7975C16.9143 21.7975 17.5182 21.0833 17.5182 20.1711C17.5182 19.2594 16.9143 18.5452 16.1434 18.5452Z" fill="#0F1030"/>
<path d="M21.3265 18.688C20.5557 18.688 19.9521 19.4023 19.9521 20.3144C19.9521 21.2261 20.5557 21.9404 21.3265 21.9404C22.0974 21.9404 22.7009 21.2261 22.7009 20.3144C22.7009 19.4023 22.0974 18.688 21.3265 18.688Z" fill="#0F1030"/>
<path d="M14.9539 6.02092C15.7247 6.02092 16.3283 5.30664 16.3283 4.39494C16.3283 3.48283 15.7247 2.76855 14.9539 2.76855C14.183 2.76855 13.5791 3.48283 13.5791 4.39494C13.5791 5.30664 14.183 6.02092 14.9539 6.02092Z" fill="#0F1030"/>
<path d="M20.5686 6.02092C21.3395 6.02092 21.943 5.30664 21.943 4.39494C21.943 3.48283 21.3395 2.76855 20.5686 2.76855C19.7978 2.76855 19.1938 3.48283 19.1938 4.39494C19.1938 5.30664 19.7978 6.02092 20.5686 6.02092Z" fill="#0F1030"/>
<path d="M23.4798 11.4196C24.2507 11.4196 24.8546 10.7053 24.8546 9.79362C24.8546 8.88151 24.2507 8.16724 23.4798 8.16724C22.709 8.16724 22.1055 8.88151 22.1055 9.79362C22.1055 10.7053 22.709 11.4196 23.4798 11.4196Z" fill="#0F1030"/>
<path d="M17.5095 11.4196C18.2804 11.4196 18.8839 10.7053 18.8839 9.79362C18.8839 8.88151 18.2804 8.16724 17.5095 8.16724C16.7387 8.16724 16.1348 8.88151 16.1348 9.79362C16.1348 10.7053 16.7387 11.4196 17.5095 11.4196Z" fill="#0F1030"/>
<path d="M18.2674 39.2075C17.4966 39.2075 16.8931 39.9218 16.8931 40.8339C16.8931 41.7456 17.4966 42.4599 18.2674 42.4599C19.0383 42.4599 19.6418 41.7456 19.6418 40.8339C19.6418 39.9218 19.0383 39.2075 18.2674 39.2075Z" fill="#0F1030"/>
<path d="M22.722 41.2616C21.9512 41.2616 21.3477 41.9759 21.3477 42.8876C21.3477 43.7997 21.9512 44.514 22.722 44.514C23.4929 44.514 24.0964 43.7997 24.0964 42.8876C24.0964 41.9759 23.4929 41.2616 22.722 41.2616Z" fill="#0F1030"/>
<path d="M27.4969 31.7758C28.2677 31.7758 28.8712 31.0615 28.8712 30.1494C28.8712 29.2377 28.2677 28.5234 27.4969 28.5234C26.726 28.5234 26.1221 29.2377 26.1221 30.1494C26.1221 31.0615 26.726 31.7758 27.4969 31.7758Z" fill="#0F1030"/>
<path d="M21.6556 28.5408C20.8848 28.5408 20.2812 29.255 20.2812 30.1668C20.2812 31.0789 20.8848 31.7931 21.6556 31.7931C22.4265 31.7931 23.0304 31.0789 23.0304 30.1668C23.0304 29.255 22.4265 28.5408 21.6556 28.5408Z" fill="#0F1030"/>
<path d="M33.3373 31.5646C34.1081 31.5646 34.7121 30.8503 34.7121 29.9382C34.7121 29.0265 34.1081 28.3123 33.3373 28.3123C32.5664 28.3123 31.9629 29.0265 31.9629 29.9382C31.9629 30.8503 32.5664 31.5646 33.3373 31.5646Z" fill="#0F1030"/>
<path d="M38.0317 6.37288C37.7862 6.13733 37.3965 6.14416 37.1602 6.38894L34.8372 8.80223C34.6012 9.04741 34.6088 9.43745 34.854 9.6738C35.0999 9.90979 35.489 9.90219 35.7256 9.65695L38.0478 7.24406C38.2841 6.99888 38.2769 6.60884 38.0317 6.37288Z" fill="#0F1030"/>
<path d="M36.2258 15.2865L40.69 16.5356C41.0135 16.6271 41.357 16.4388 41.4496 16.1083C41.5415 15.7804 41.3501 15.4406 41.0223 15.3487L36.558 14.0995C36.229 14.0068 35.8899 14.199 35.7984 14.5268C35.7065 14.8547 35.8979 15.195 36.2258 15.2865Z" fill="#0F1030"/>
</svg>
