<svg width="75" height="75" viewBox="0 0 75 75" fill="none" xmlns="http://www.w3.org/2000/svg">
<path fill-rule="evenodd" clip-rule="evenodd" d="M7.50001 37.5C7.50001 45.4565 10.6607 53.0871 16.2868 58.7132C21.9129 64.3393 29.5435 67.5 37.5 67.5C45.4565 67.5 53.0871 64.3393 58.7132 58.7132C64.3393 53.0871 67.5 45.4565 67.5 37.5C67.5 29.5435 64.3393 21.9129 58.7132 16.2868C53.0871 10.6607 45.4565 7.5 37.5 7.5C29.5435 7.5 21.9129 10.6607 16.2868 16.2868C10.6607 21.9129 7.50001 29.5435 7.50001 37.5ZM46.1 40.15C46.8109 40.8124 47.7511 41.173 48.7226 41.1559C49.6941 41.1387 50.621 40.7452 51.3081 40.0581C51.9952 39.371 52.3887 38.4441 52.4059 37.4726C52.423 36.5011 52.0624 35.5609 51.4 34.85L40.15 23.6C39.4469 22.8977 38.4938 22.5033 37.5 22.5033C36.5063 22.5033 35.5531 22.8977 34.85 23.6L23.6 34.85C22.9376 35.5609 22.577 36.5011 22.5941 37.4726C22.6113 38.4441 23.0048 39.371 23.6919 40.0581C24.379 40.7452 25.3059 41.1387 26.2774 41.1559C27.2489 41.173 28.1891 40.8124 28.9 40.15L33.75 35.3031L33.75 48.75C33.75 49.7446 34.1451 50.6984 34.8484 51.4017C35.5516 52.1049 36.5054 52.5 37.5 52.5C38.4946 52.5 39.4484 52.1049 40.1517 51.4017C40.8549 50.6984 41.25 49.7446 41.25 48.75L41.25 35.3031L46.1 40.15Z" fill="#0F1030"/>
</svg>
