<svg width="55" height="38" viewBox="0 0 55 38" fill="none" xmlns="http://www.w3.org/2000/svg">
<path d="M46.9497 33.2797C36.6441 39.253 20.1684 39.253 9.92847 33.2797C6.31824 31.2448 3.75827 28.5536 2.57674 25.5341C0.0824026 24.6152 -1.36169 21.5957 1.85469 19.7578C1.85469 13.6532 1.72341 9.18966 9.92847 4.46355C14.6546 1.70665 21.2186 0 28.4391 0C35.5939 0 42.1579 1.70665 46.9497 4.46355C55.8768 9.64914 54.9578 14.7035 54.9578 21.9239C54.9578 26.3875 51.8727 30.4572 46.9497 33.2797ZM14.5889 26.7813L29.2268 18.3793L29.8832 14.8347C26.6668 17.3947 22.8596 14.9004 20.6935 16.2132L9.0095 23.7618L14.5889 26.7813ZM33.1652 11.5527C33.2965 11.4871 33.4277 11.3558 33.6247 11.2245L33.7559 11.1589C42.2236 5.64508 49.5753 9.12402 47.0153 16.2132C43.6676 25.6654 34.9375 23.0398 32.5088 23.8275L24.3694 29.0787C34.6749 30.0633 52.5291 26.3218 52.5291 15.8193C52.5291 7.67993 40.5825 3.47894 32.9683 2.69126C34.1498 3.34766 35.397 4.06971 36.5785 4.72611C35.7252 7.54865 35.2 8.9271 33.1652 11.5527ZM4.67723 18.1168L17.4115 10.765C17.2802 10.765 17.0833 6.8266 19.3807 6.36712L26.4042 2.49434C16.8864 2.88818 1.52649 8.33633 4.67723 18.1168ZM24.6976 13.8501C26.1417 13.9158 27.2575 14.244 28.4391 13.325C30.7365 11.5527 33.2308 8.33633 34.0185 5.71072L33.2965 5.31687C26.7981 13.9158 25.6822 11.0932 26.4699 10.5025L32.1149 4.59483L31.1303 4.00407C23.9099 11.8809 22.0719 9.45222 23.6473 8.53326L29.9488 3.34766L29.2268 2.95382C22.7283 8.40197 19.5776 7.28609 19.512 9.5835C19.512 10.6337 19.512 12.0122 18.4617 12.603L2.57674 21.7926C1.06701 22.6459 3.95519 24.4839 5.39928 23.4993L19.5776 14.4409C20.5622 13.8501 22.3345 13.5876 24.6976 13.8501ZM14.392 29.3413C12.8823 30.2602 15.7705 32.0982 17.2146 31.1136L31.3929 22.0552C33.7559 20.5455 37.6287 22.2521 40.2543 20.9393C44.8492 18.5762 47.3435 12.1435 43.4707 10.8307C39.5979 9.45222 31.3929 14.0471 31.3272 17.1978C31.3272 18.248 31.3272 19.6265 30.277 20.2173L14.392 29.3413ZM41.4359 29.4069C41.4359 31.4418 40.9764 33.7392 42.6174 33.7392C44.2584 33.7392 43.8646 31.4418 43.8646 29.4069C43.8646 27.8315 41.4359 27.8315 41.4359 29.4069ZM34.4123 18.9044C33.6903 18.445 34.3467 17.2634 35.1344 17.7229C39.401 20.3485 41.1733 14.8347 42.4205 15.9506C43.602 16.9352 38.679 21.5301 34.4123 18.9044Z" fill="#0F1030"/>
</svg>
