<svg width="116" height="84" viewBox="0 0 116 84" fill="none" xmlns="http://www.w3.org/2000/svg">
<path d="M115.643 21.9958C115.185 20.5839 113.964 19.5555 112.495 19.3419L96.1677 16.9685L88.8662 2.17384C88.2085 0.843022 86.852 0 85.3693 0C83.8853 0 82.53 0.843022 81.8723 2.17384L74.5709 16.9685L58.2446 19.3419C56.7761 19.5555 55.5547 20.5839 55.0965 21.9958C54.6383 23.4077 55.0205 24.9573 56.0836 25.9933L67.8962 37.5099L65.1085 53.7705C64.8575 55.2339 65.4585 56.7115 66.6594 57.5854C67.8615 58.4567 69.4561 58.5725 70.7664 57.8827L85.3706 50.2041L99.9748 57.8827C100.545 58.1826 101.168 58.3306 101.79 58.3306C102.598 58.3306 103.402 58.0796 104.082 57.5854C105.283 56.7127 105.884 55.2352 105.633 53.7705L102.844 37.5099L114.659 25.9933C115.719 24.9573 116.102 23.4077 115.643 21.9958ZM95.9283 33.3553C95.0093 34.2511 94.5897 35.5407 94.8072 36.8072L96.6078 47.3005L87.1827 42.3454C86.0463 41.7482 84.691 41.7482 83.5545 42.3454L74.1294 47.3005L75.9287 36.8072C76.1462 35.5407 75.7267 34.2511 74.8077 33.3553L67.1832 25.9226L77.7203 24.3923C78.9906 24.2082 80.0885 23.4115 80.6574 22.2596L85.3693 12.7122L90.0812 22.2596C90.6488 23.4115 91.7479 24.2082 93.0182 24.3923L103.553 25.9226L95.9283 33.3553Z" fill="#0F1030"/>
<path d="M57.5895 44.6055L41.2619 42.2322L33.9604 27.4375C33.3027 26.1067 31.9462 25.2637 30.4635 25.2637C28.9808 25.2637 27.6243 26.1067 26.9666 27.4375L19.6651 42.2322L3.33884 44.6055C1.87032 44.8192 0.648902 45.8475 0.190711 47.2594C-0.26748 48.6713 0.114775 50.2209 1.17788 51.257L12.9905 62.7749L10.2027 79.0342C9.95173 80.4976 10.5528 81.9751 11.7536 82.8491C12.9557 83.7217 14.5491 83.8362 15.8606 83.1464L30.4648 75.4691L45.0664 83.1464C45.6366 83.4462 46.2595 83.5943 46.8812 83.5943C47.6882 83.5943 48.4939 83.3433 49.1734 82.8491C50.3742 81.9764 50.9753 80.4989 50.7243 79.0342L47.9366 62.7749L59.7517 51.257C60.8148 50.2209 61.1971 48.6726 60.7389 47.2594C60.2807 45.8462 59.0567 44.8192 57.5895 44.6055ZM41.0225 58.6203C40.1035 59.516 39.684 60.8057 39.9015 62.0721L41.7008 72.5642L32.2783 67.6103C31.1418 67.0131 29.7865 67.0131 28.65 67.6103L19.225 72.5655L21.0243 62.0721C21.2418 60.8057 20.8222 59.516 19.9032 58.6203L12.2787 51.1875L22.8158 49.6546C24.0862 49.4706 25.184 48.6739 25.7529 47.522L30.4648 37.9746L35.1767 47.522C35.7443 48.6739 36.8434 49.4706 38.1138 49.6546L48.6509 51.1849L41.0225 58.6203Z" fill="#0F1030"/>
</svg>
