<svg width="144" height="98" viewBox="0 0 144 98" fill="none" xmlns="http://www.w3.org/2000/svg">
<path fill-rule="evenodd" clip-rule="evenodd" d="M49.8367 3.26282L60.4307 26.4418C60.5375 26.6896 60.7091 26.9039 60.9275 27.0623C61.1459 27.2207 61.403 27.3173 61.6717 27.3418L86.9897 30.2548C87.8233 30.3464 88.6129 30.6767 89.2635 31.2059C89.9141 31.7352 90.3981 32.441 90.6574 33.2386C90.9167 34.0362 90.9403 34.8917 90.7254 35.7024C90.5104 36.5131 90.0661 37.2445 89.4457 37.8088L70.6757 55.0448C70.4716 55.2228 70.3195 55.4526 70.2355 55.71C70.1516 55.9674 70.1388 56.2428 70.1987 56.5068L75.2517 81.4858C75.423 82.3064 75.3535 83.159 75.0516 83.9411C74.7497 84.7231 74.2282 85.4012 73.5499 85.8938C72.8716 86.3864 72.0654 86.6724 71.2283 86.7175C70.3912 86.7625 69.5589 86.5647 68.8317 86.1478L46.6367 73.6228C46.4031 73.4872 46.1378 73.4158 45.8677 73.4158C45.5976 73.4158 45.3323 73.4872 45.0987 73.6228L22.8987 86.1478C22.1713 86.5635 21.3394 86.7603 20.5029 86.7147C19.6664 86.6691 18.8608 86.3829 18.183 85.8906C17.5051 85.3983 16.9838 84.7208 16.6817 83.9394C16.3795 83.1581 16.3094 82.3061 16.4797 81.4858L21.5327 56.5068C21.5925 56.2428 21.5798 55.9674 21.4958 55.71C21.4118 55.4526 21.2597 55.2228 21.0557 55.0448L2.28966 37.8068C1.6684 37.2429 1.22328 36.5114 1.00783 35.7005C0.792383 34.8896 0.815783 34.0337 1.07522 33.2357C1.33465 32.4378 1.81907 31.7318 2.47022 31.2026C3.12137 30.6734 3.91153 30.3436 4.74566 30.2528L30.0677 27.3398C30.3363 27.3153 30.5934 27.2187 30.8118 27.0603C31.0302 26.9019 31.2019 26.6876 31.3087 26.4398L41.8987 3.26282C42.2423 2.49773 42.7998 1.84828 43.5039 1.39264C44.2081 0.936992 45.0289 0.69458 45.8677 0.69458C46.7064 0.69458 47.5272 0.936992 48.2314 1.39264C48.9356 1.84828 49.493 2.49773 49.8367 3.26282Z" fill="#343434"/>
<path fill-rule="evenodd" clip-rule="evenodd" d="M112.838 36.175L120.661 53.2906C120.739 53.4735 120.866 53.6318 121.027 53.7488C121.189 53.8657 121.379 53.937 121.577 53.9551L140.272 56.1061C140.888 56.1738 141.471 56.4176 141.951 56.8084C142.431 57.1993 142.789 57.7204 142.98 58.3094C143.172 58.8983 143.189 59.53 143.03 60.1287C142.872 60.7273 142.544 61.2674 142.085 61.6841L128.226 74.4113C128.075 74.5427 127.963 74.7125 127.901 74.9025C127.839 75.0926 127.829 75.2959 127.873 75.4909L131.605 93.9356C131.731 94.5415 131.68 95.1711 131.457 95.7486C131.234 96.3261 130.849 96.8268 130.348 97.1905C129.847 97.5542 129.252 97.7654 128.634 97.7987C128.015 97.832 127.401 97.6859 126.864 97.3781L110.475 88.1295C110.302 88.0294 110.107 87.9766 109.907 87.9766C109.708 87.9766 109.512 88.0294 109.339 88.1295L92.9465 97.3781C92.4094 97.685 91.7952 97.8304 91.1775 97.7967C90.5598 97.763 89.965 97.5517 89.4644 97.1882C88.9639 96.8246 88.579 96.3243 88.3559 95.7474C88.1328 95.1704 88.081 94.5413 88.2067 93.9356L91.9379 75.4909C91.9821 75.2959 91.9726 75.0926 91.9106 74.9025C91.8486 74.7125 91.7363 74.5427 91.5856 74.4113L77.7287 61.6826C77.2699 61.2662 76.9412 60.7261 76.7821 60.1273C76.623 59.5285 76.6403 58.8965 76.8319 58.3073C77.0235 57.718 77.3812 57.1967 77.862 56.806C78.3428 56.4152 78.9263 56.1717 79.5422 56.1047L98.2402 53.9537C98.4386 53.9355 98.6284 53.8642 98.7897 53.7473C98.951 53.6303 99.0777 53.472 99.1566 53.2891L106.976 36.175C107.23 35.61 107.642 35.1305 108.162 34.794C108.682 34.4576 109.288 34.2786 109.907 34.2786C110.526 34.2786 111.133 34.4576 111.652 34.794C112.172 35.1305 112.584 35.61 112.838 36.175Z" fill="#343434"/>
</svg>
