<svg width="212" height="218" viewBox="0 0 212 218" fill="none" xmlns="http://www.w3.org/2000/svg">
<path d="M79.5214 94.7519C72.5668 98.1994 69.477 106.997 73.3419 113.881C74.5801 116.187 76.4187 118.115 78.663 119.462C80.9074 120.808 83.474 121.523 86.0912 121.53C92.2707 121.53 98.0653 117.703 99.995 111.583C101.107 107.917 100.833 103.97 99.2253 100.492C95.3604 93.9876 86.8609 90.9304 79.5214 94.7519ZM90.7258 108.905C89.9506 111.583 87.2512 112.732 84.5463 111.968C81.8414 111.203 80.6814 108.526 81.4566 105.848C82.2317 103.17 84.9312 102.021 87.636 102.791C88.7906 103.17 89.9506 103.934 90.3463 105.084C90.6814 105.656 90.8888 106.293 90.9543 106.953C91.0198 107.612 90.9418 108.278 90.7258 108.905Z" fill="white" fill-opacity="0.4"/>
<path d="M183.055 38.1446C181.721 36.7828 180.128 35.7009 178.37 34.9623C176.613 34.2237 174.725 33.8433 172.819 33.8433C170.912 33.8433 169.024 34.2237 167.267 34.9623C165.509 35.7009 163.916 36.7828 162.582 38.1446C161.209 39.4518 160.116 41.0244 159.369 42.7668C158.622 44.5093 158.237 46.3853 158.237 48.2811C158.237 50.1769 158.622 52.053 159.369 53.7954C160.116 55.5379 161.209 57.1104 162.582 58.4177C165.383 61.1153 169.122 62.6196 173.011 62.6132C181.142 62.6132 187.69 56.1085 187.69 48.46C187.3 44.2608 185.755 40.8224 183.055 38.1446ZM172.621 53.0621C171.638 53.0546 170.68 52.7564 169.867 52.2051C169.053 51.6538 168.421 50.874 168.051 49.9641C167.68 49.0542 167.587 48.0549 167.783 47.0921C167.979 46.1294 168.456 45.2463 169.153 44.5541C169.851 43.862 170.738 43.3918 171.702 43.2029C172.666 43.0139 173.665 43.1147 174.572 43.4924C175.479 43.8701 176.254 44.5079 176.799 45.3254C177.344 46.1429 177.635 47.1034 177.635 48.086C177.635 49.6038 175.326 53.0621 172.621 53.0621Z" fill="white" fill-opacity="0.4"/>
<path d="M114.289 38.1445C112.916 39.4807 111.831 41.0837 111.1 42.8548C110.369 44.626 110.008 46.5279 110.04 48.4437C110.04 56.477 116.609 62.5969 124.719 62.5969C132.828 62.5969 139.398 56.0922 139.398 48.4437C139.398 44.6492 137.853 41.1746 135.148 38.1445C128.968 32.4095 119.699 32.4095 114.289 38.1445ZM129.359 48.0859C129.366 49.0813 129.078 50.0565 128.53 50.8879C127.983 51.7192 127.201 52.3691 126.283 52.7553C125.366 53.1414 124.354 53.2464 123.377 53.0568C122.4 52.8672 121.501 52.3917 120.794 51.6904C120.088 50.9892 119.605 50.094 119.408 49.1182C119.211 48.1424 119.309 47.1302 119.688 46.2098C120.067 45.2894 120.711 44.5023 121.538 43.9485C122.365 43.3947 123.338 43.099 124.334 43.099C125.879 43.5001 129.359 45.8093 129.359 48.0859Z" fill="white" fill-opacity="0.4"/>
<path d="M162.576 85.9596C161.203 87.2664 160.11 88.8385 159.363 90.5805C158.617 92.3225 158.231 94.1981 158.231 96.0934C158.231 97.9888 158.617 99.8644 159.363 101.606C160.11 103.348 161.203 104.921 162.576 106.227C163.91 107.59 165.502 108.674 167.26 109.413C169.018 110.152 170.906 110.533 172.813 110.533C174.72 110.533 176.608 110.152 178.366 109.413C180.124 108.674 181.716 107.59 183.05 106.227C184.423 104.921 185.516 103.348 186.263 101.606C187.009 99.8644 187.395 97.9888 187.395 96.0934C187.395 94.1981 187.009 92.3225 186.263 90.5805C185.516 88.8385 184.423 87.2664 183.05 85.9596C177.255 80.2192 167.986 80.2192 162.576 85.9596ZM172.621 100.877C171.639 100.868 170.681 100.567 169.869 100.015C169.058 99.4623 168.427 98.6818 168.058 97.7717C167.689 96.8617 167.597 95.8627 167.795 94.9007C167.992 93.9386 168.47 93.0565 169.168 92.3655C169.866 91.6744 170.752 91.2053 171.716 91.0172C172.68 90.8292 173.678 90.9305 174.585 91.3085C175.491 91.6865 176.265 92.3243 176.81 93.1416C177.355 93.9588 177.645 94.9189 177.645 95.901C177.616 97.2199 177.076 98.4759 176.138 99.4042C175.201 100.333 173.94 100.861 172.621 100.877Z" fill="white" fill-opacity="0.4"/>
<path d="M78.7519 130.328C71.0221 128.035 62.9129 132.236 60.5929 139.505C58.2783 147.159 62.528 155.187 69.8621 157.485C77.5919 159.778 85.7065 155.571 88.0211 148.302C88.661 146.517 88.9266 144.618 88.8015 142.726C88.6763 140.833 88.1631 138.986 87.2937 137.3C86.4243 135.614 85.2173 134.125 83.7478 132.926C82.2783 131.726 80.5778 130.842 78.7519 130.328ZM79.1367 145.245C78.3616 147.923 75.6621 149.072 72.9573 148.302C70.2524 147.533 69.0924 144.866 69.8621 142.188C70.6372 140.275 72.5724 138.74 74.5021 138.74C77.5919 139.125 79.9065 142.188 79.1367 145.245Z" fill="white" fill-opacity="0.4"/>
<path d="M67.1624 166.689C59.4326 164.396 51.3234 168.603 49.0088 175.872C46.6887 183.52 50.5482 191.553 58.278 193.852C66.0078 196.15 74.117 191.938 76.4316 184.669C78.7517 176.988 74.5019 168.96 67.1624 166.689ZM67.1624 181.991C66.3872 184.669 63.6824 185.813 60.9775 185.054C59.8229 184.669 58.6629 183.905 58.2672 182.756C57.9208 182.029 57.7621 181.228 57.8056 180.424C57.8491 179.62 58.0934 178.84 58.5162 178.156C58.9389 177.471 59.5266 176.903 60.2256 176.504C60.9245 176.105 61.7123 175.887 62.5169 175.872C66.0024 175.465 68.317 178.522 67.1624 181.964V181.991Z" fill="white" fill-opacity="0.4"/>
<path d="M206.613 86.3393C209.323 86.3393 211.248 84.0464 211.248 81.3686V39.3047C211.248 22.8586 197.729 9.84912 181.505 9.84912H115.84C99.2309 9.84912 86.0967 23.238 86.0967 39.3047V70.2889C82.3417 70.7166 78.6807 71.749 75.2555 73.3461L16.5395 103.16C13.0499 104.892 9.94355 107.308 7.40452 110.263C4.86549 113.218 2.94542 116.652 1.75805 120.363C0.570674 124.074 0.140163 127.985 0.492019 131.865C0.843875 135.746 1.97094 139.516 3.80644 142.952L33.9396 201.088C35.1284 203.489 36.693 205.685 38.5742 207.593H15.0163C14.3493 207.571 13.6848 207.683 13.0621 207.923C12.4395 208.163 11.8715 208.526 11.3919 208.99C10.9124 209.454 10.531 210.01 10.2706 210.624C10.0101 211.239 9.87593 211.899 9.87593 212.566C9.87593 213.234 10.0101 213.894 10.2706 214.509C10.531 215.123 10.9124 215.679 11.3919 216.143C11.8715 216.607 12.4395 216.969 13.0621 217.209C13.6848 217.449 14.3493 217.562 15.0163 217.54H193.479C194.146 217.562 194.81 217.449 195.433 217.209C196.056 216.969 196.624 216.607 197.103 216.143C197.583 215.679 197.964 215.123 198.225 214.509C198.485 213.894 198.619 213.234 198.619 212.566C198.619 211.899 198.485 211.239 198.225 210.624C197.964 210.01 197.583 209.454 197.103 208.99C196.624 208.526 196.056 208.163 195.433 207.923C194.81 207.683 194.146 207.571 193.479 207.593H86.0913L132.448 184.284C147.127 176.636 152.922 159.041 145.192 144.508L139.772 134.176H181.104C197.712 134.176 210.847 120.793 210.847 104.726C210.847 102.048 208.532 99.7554 206.212 99.7554C204.894 99.7718 203.633 100.299 202.696 101.226C201.759 102.153 201.218 103.408 201.187 104.726C201.192 107.356 200.675 109.96 199.665 112.388C198.655 114.816 197.173 117.02 195.304 118.87C193.436 120.72 191.218 122.181 188.781 123.167C186.343 124.153 183.733 124.645 181.104 124.614H134.763L115.064 86.3664C113.144 82.497 110.375 79.1112 106.963 76.4615C103.551 73.8119 99.585 71.9668 95.3605 71.0641V39.3047C95.3553 36.6743 95.8728 34.0691 96.883 31.6404C97.8931 29.2116 99.3758 27.0078 101.245 25.1569C103.114 23.3061 105.332 21.845 107.77 20.8586C110.209 19.8722 112.819 19.3802 115.449 19.4111H181.12C183.75 19.3809 186.359 19.8735 188.797 20.8602C191.235 21.8469 193.453 23.3081 195.321 25.1589C197.189 27.0097 198.672 29.2133 199.681 31.6416C200.691 34.07 201.209 36.6748 201.203 39.3047V81.3686C201.594 84.4259 203.908 86.3393 206.613 86.3393ZM106.565 90.9306L136.693 149.072C137.903 151.406 138.633 153.959 138.84 156.58C139.047 159.201 138.727 161.837 137.899 164.333C137.071 166.828 135.752 169.132 134.018 171.11C132.285 173.087 130.174 174.697 127.808 175.844L69.0923 205.658C66.2232 207.134 63.0494 207.921 59.823 207.956H59.4327C52.0932 207.956 45.5289 203.744 41.664 197.24L11.5308 139.125C10.3224 136.789 9.59405 134.235 9.38875 131.614C9.18345 128.992 9.50535 126.355 10.3355 123.86C11.1656 121.365 12.4871 119.061 14.222 117.084C15.9569 115.108 18.0701 113.499 20.4369 112.353L79.1529 82.5395C89.181 77.1622 101.54 80.9838 106.565 90.9306Z" fill="white" fill-opacity="0.4"/>
<path d="M19.6453 76.7775C21.5155 76.7918 23.37 76.4362 25.1022 75.731C26.8345 75.0259 28.4101 73.9852 29.7386 72.6688C31.0671 71.3524 32.1222 69.7863 32.8431 68.0606C33.5641 66.3349 33.9367 64.4837 33.9395 62.6135C33.9395 54.5801 27.3751 48.0754 19.6453 48.0754C17.7267 48.0654 15.8249 48.4336 14.0486 49.1589C12.2724 49.8843 10.6565 50.9525 9.29325 52.3027C7.93003 53.6528 6.84623 55.2583 6.10379 57.0275C5.36135 58.7967 4.97483 60.6948 4.96631 62.6135C4.96631 70.6577 11.5307 76.7775 19.6453 76.7775ZM19.6453 57.6536C22.3556 57.6536 24.2799 59.9465 24.2799 62.6243C24.2799 65.3021 21.9653 67.6004 19.6453 67.6004C18.9784 67.6224 18.3138 67.5101 17.6912 67.2701C17.0686 67.0301 16.5006 66.6673 16.021 66.2033C15.5414 65.7393 15.1601 65.1835 14.8996 64.5692C14.6392 63.9548 14.505 63.2943 14.505 62.627C14.505 61.9597 14.6392 61.2992 14.8996 60.6849C15.1601 60.0705 15.5414 59.5148 16.021 59.0508C16.5006 58.5868 17.0686 58.224 17.6912 57.984C18.3138 57.7439 18.9784 57.6316 19.6453 57.6536Z" fill="white" fill-opacity="0.4"/>
<path d="M186.139 196.503C195.414 196.503 203.138 188.849 203.138 179.672C203.138 170.495 195.414 162.841 186.139 162.841C176.865 162.841 169.14 170.484 169.14 179.699C169.14 188.914 176.87 196.503 186.139 196.503ZM186.139 172.403C188.067 172.403 189.916 173.169 191.279 174.532C192.643 175.895 193.408 177.744 193.408 179.672C193.408 181.6 192.643 183.449 191.279 184.812C189.916 186.175 188.067 186.941 186.139 186.941C181.89 186.941 178.8 183.878 178.8 179.672C178.8 175.845 182.28 172.403 186.139 172.403Z" fill="white" fill-opacity="0.4"/>
<path d="M29.3049 9.83845C30.287 9.84808 31.2442 10.1481 32.0561 10.7007C32.868 11.2533 33.4982 12.0338 33.8673 12.9439C34.2365 13.8539 34.3281 14.8529 34.1306 15.8149C33.9332 16.777 33.4554 17.6591 32.7576 18.3501C32.0598 19.0412 31.1731 19.5103 30.2091 19.6983C29.2452 19.8864 28.2472 19.7851 27.3408 19.4071C26.4343 19.029 25.66 18.3912 25.1154 17.574C24.5707 16.7568 24.2801 15.7967 24.28 14.8146C24.2829 14.1578 24.4151 13.508 24.6693 12.9024C24.9234 12.2968 25.2944 11.7472 25.7611 11.285C26.2278 10.8229 26.781 10.4572 27.389 10.209C27.9971 9.96081 28.6482 9.83488 29.3049 9.83845Z" fill="white" fill-opacity="0.4"/>
<path d="M67.9321 48.0862C68.9124 48.0766 69.8679 47.7773 70.6785 47.226C71.4892 46.6747 72.1187 45.896 72.4879 44.9879C72.8572 44.0797 72.9496 43.0827 72.7537 42.1221C72.5577 41.1616 72.0821 40.2804 71.3866 39.5895C70.6912 38.8986 69.807 38.4287 68.8452 38.239C67.8834 38.0493 66.8869 38.1482 65.9812 38.5233C65.0755 38.8985 64.3009 39.533 63.7549 40.3472C63.2089 41.1614 62.9159 42.1189 62.9126 43.0992C62.9392 44.4191 63.4776 45.6771 64.4141 46.6075C65.3506 47.538 66.612 48.0682 67.9321 48.0862Z" fill="white" fill-opacity="0.4"/>
<path d="M174.165 148.687C174.176 147.691 173.891 146.714 173.345 145.881C172.8 145.047 172.019 144.395 171.101 144.006C170.184 143.617 169.172 143.51 168.194 143.698C167.216 143.886 166.315 144.36 165.607 145.06C164.899 145.761 164.415 146.656 164.217 147.632C164.018 148.609 164.115 149.622 164.493 150.543C164.872 151.464 165.516 152.252 166.343 152.807C167.171 153.362 168.144 153.658 169.141 153.658C171.845 153.273 174.165 151.365 174.165 148.687Z" fill="white" fill-opacity="0.4"/>
<path d="M145.192 191.526C142.482 191.526 140.173 193.825 140.173 196.118C140.173 198.411 142.493 201.088 145.192 201.088C146.51 201.072 147.771 200.545 148.708 199.617C149.645 198.69 150.186 197.436 150.217 196.118C150.217 193.44 147.897 191.526 145.192 191.526Z" fill="white" fill-opacity="0.4"/>
<path d="M14.626 186.94C14.5965 185.62 14.0554 184.364 13.1169 183.435C12.1783 182.507 10.9158 181.979 9.59566 181.964C8.92872 181.942 8.26417 182.054 7.64154 182.294C7.01891 182.535 6.45091 182.897 5.97134 183.361C5.49177 183.825 5.11042 184.381 4.84998 184.995C4.58953 185.61 4.45532 186.27 4.45532 186.938C4.45532 187.605 4.58953 188.265 4.84998 188.88C5.11042 189.494 5.49177 190.05 5.97134 190.514C6.45091 190.978 7.01891 191.341 7.64154 191.581C8.26417 191.821 8.92872 191.933 9.59566 191.911C12.6908 191.526 14.626 189.613 14.626 186.94Z" fill="white" fill-opacity="0.4"/>
<path d="M203.138 9.8383C205.849 9.8383 208.163 7.54538 208.163 5.25247C208.12 3.94905 207.573 2.71335 206.635 1.80647C205.698 0.899587 204.445 0.392578 203.141 0.392578C201.837 0.392578 200.584 0.899587 199.647 1.80647C198.71 2.71335 198.162 3.94905 198.119 5.25247C198.119 7.92483 200.433 9.8383 203.138 9.8383Z" fill="white" fill-opacity="0.4"/>
</svg>
