<svg width="21" height="20" viewBox="0 0 21 20" fill="none" xmlns="http://www.w3.org/2000/svg">
<path d="M13.7411 1.4625L14.747 3.58671C14.9924 4.10504 15.4785 4.45838 16.0473 4.53191L18.3734 4.82508L17.9407 7.13634C17.8354 7.69893 18.0208 8.26961 18.4367 8.66288L20.1453 10.2685L18.4367 11.8844C18.0208 12.2776 17.8354 12.8482 17.9407 13.4109L18.3793 15.7139L16.0472 16.0153C15.4785 16.0888 14.9923 16.4422 14.7469 16.9605L13.7507 19.0815L11.6877 17.9537C11.4419 17.8193 11.1638 17.7483 10.8835 17.7483C10.6034 17.7483 10.3253 17.8193 10.0794 17.9537L8.02601 19.0846L7.02008 16.9604C6.77462 16.4421 6.28853 16.0887 5.7198 16.0152L3.39372 15.7221L3.82635 13.4108C3.93164 12.8482 3.74625 12.2775 3.33039 11.8842L1.62179 10.2787L3.33047 8.66273C3.7463 8.26945 3.9317 7.6988 3.8264 7.13628L3.38781 4.8332L5.71988 4.53181C6.28863 4.4583 6.77475 4.10498 7.02021 3.58665L8.02292 1.46922L10.0794 2.5934C10.3253 2.72781 10.6034 2.79885 10.8836 2.79885C11.1638 2.79885 11.4418 2.72781 11.6877 2.59342L13.7411 1.4625ZM8.02061 0.624512C7.70908 0.624512 7.40865 0.79956 7.26533 1.1022L6.25943 3.22638C6.13779 3.48323 5.89385 3.66055 5.61199 3.69697L3.27991 3.99837C2.80433 4.05984 2.47819 4.50843 2.5664 4.97978L2.99898 7.29113C3.05118 7.56998 2.95816 7.85624 2.75206 8.05117L1.04341 9.66708C0.695167 9.99642 0.695167 10.5507 1.04341 10.88L2.75201 12.4958C2.95813 12.6908 3.05113 12.9771 2.99893 13.2559L2.5663 15.5672C2.47808 16.0385 2.80421 16.4871 3.27979 16.5486L5.61188 16.8501C5.89372 16.8865 6.13766 17.0638 6.2593 17.3207L7.26523 19.4449C7.40855 19.7476 7.7089 19.9226 8.02048 19.9226C8.15548 19.9226 8.29266 19.8897 8.42 19.8201L10.4832 18.6923C10.6079 18.6242 10.7457 18.5901 10.8835 18.5901C11.0214 18.5901 11.1592 18.6242 11.2839 18.6924L13.3469 19.8201C13.4743 19.8898 13.6114 19.9226 13.7465 19.9226C14.058 19.9226 14.3584 19.7476 14.5018 19.4449L15.5077 17.3208C15.6293 17.0639 15.8733 16.8866 16.1551 16.8502L18.4872 16.5488C18.9628 16.4873 19.2889 16.0387 19.2007 15.5674L18.7681 13.256C18.7159 12.9772 18.8089 12.6909 19.0151 12.496L20.7237 10.8801C21.0719 10.5507 21.0719 9.99643 20.7237 9.66709L19.0151 8.05129C18.809 7.85636 18.716 7.57008 18.7682 7.29122L19.2008 4.97995C19.289 4.5086 18.9629 4.05999 18.4873 3.99852L16.1552 3.69708C15.8734 3.66065 15.6294 3.48333 15.5078 3.22648L14.5019 1.10223C14.3586 0.799542 14.0582 0.624508 13.7466 0.624537C13.6116 0.624549 13.4744 0.657429 13.3471 0.727032L11.2839 1.85479C11.1592 1.92299 11.0214 1.95708 10.8836 1.95708C10.7457 1.95708 10.6079 1.92298 10.4832 1.85478L8.42015 0.727018C8.29276 0.657382 8.15568 0.624512 8.02061 0.624512Z" fill="#FD2929"/>
<path d="M8.0608 8.46606H7.60209V11.3046L5.70316 8.46606H5.2124V12.0814H5.6711V9.24043L7.57003 12.0814H8.0608V8.46606Z" fill="#FD2929"/>
<path d="M11.4891 8.46606H8.875V12.0814H11.573V11.6548H9.35343V10.4242H11.3535V10H9.35343V8.89271H11.4891V8.46606Z" fill="#FD2929"/>
<path d="M16.5549 8.46606H16.074L15.5068 10.7892C15.4328 11.0851 15.3728 11.3473 15.3268 11.5759C15.2692 11.1764 15.1755 10.7497 15.0456 10.2959L14.5278 8.46606H13.9507L13.2626 10.9075C13.2462 10.9667 13.1919 11.1895 13.0999 11.5759C13.0571 11.3309 13.0061 11.0843 12.947 10.836L12.397 8.46606H11.9062L12.8656 12.0814H13.3539L14.1208 9.32675C14.1537 9.21001 14.1891 9.06863 14.2269 8.90257C14.2384 8.95518 14.2762 9.09657 14.3403 9.32675L15.1024 12.0814H15.5635L16.5549 8.46606Z" fill="#FD2929"/>
</svg>
