<svg width="60" height="35" viewBox="0 0 60 35" fill="none" xmlns="http://www.w3.org/2000/svg">
<path fill-rule="evenodd" clip-rule="evenodd" d="M10.7642 4.95789C10.739 4.96294 10.7188 4.97051 10.6935 4.97556L10.6456 4.99071L10.6279 4.99575C10.5446 5.02604 10.4689 5.06895 10.3982 5.11691L10.3704 5.13963C10.272 5.21535 10.1837 5.30874 10.118 5.41728L10.0953 5.45515L10.0903 5.47029C10.0776 5.49301 10.065 5.51572 10.0549 5.53844L6.58425 13.3507C6.46562 13.6157 6.46814 13.9186 6.5893 14.1837C6.71046 14.4462 6.93763 14.6456 7.21781 14.7289L9.97414 15.5543V17.6846C9.3835 17.5685 8.77264 17.5382 8.16685 17.5988C5.88507 17.826 1.57133 18.2601 1.57133 18.2601C1.28863 18.2879 1.03117 18.4368 0.859505 18.6665C0.690388 18.8937 0.624762 19.1865 0.682815 19.4641L2.51026 28.5255C2.61376 29.0353 3.08324 29.3811 3.59817 29.3307L6.73819 29.0227C7.11176 28.9874 7.48026 29.1287 7.73272 29.4114L10.7011 32.7307C11.0015 33.0664 11.3523 33.3516 11.7461 33.5788L13.0789 34.3486C13.8058 34.7676 14.6388 34.962 15.4768 34.909C18.0539 34.7424 25.0356 34.2981 28.1683 34.0987C28.9407 34.0508 29.6272 33.6873 30.1018 33.1345C30.5738 33.6873 31.2604 34.0508 32.0353 34.0987L44.7268 34.909C45.5623 34.962 46.3978 34.7651 47.1247 34.3486L48.4574 33.5788C48.8487 33.3516 49.1995 33.0664 49.5024 32.7307L52.4708 29.4114C52.7207 29.1313 53.0918 28.9874 53.4654 29.0227L56.6054 29.3307C57.1203 29.3812 57.5898 29.0328 57.6933 28.5255L59.5207 19.4641C59.5763 19.1865 59.5132 18.8937 59.3441 18.6665C59.1749 18.4368 58.915 18.2879 58.6322 18.2601C58.6322 18.2601 54.3185 17.826 52.0367 17.5988C51.4309 17.5382 50.8201 17.5685 50.2294 17.6846V15.5543L52.9857 14.7289C53.2634 14.6456 53.4931 14.4462 53.6143 14.1837C53.7354 13.9187 53.7379 13.6158 53.6193 13.3507L50.1486 5.53844C50.1385 5.5132 50.1259 5.49301 50.1133 5.47029L50.0906 5.42738L50.0855 5.41728C50.0199 5.30874 49.9316 5.21283 49.8331 5.13963L49.8054 5.11691C49.7347 5.06895 49.659 5.02605 49.5757 4.99575L49.5302 4.98061L49.51 4.97556C49.4848 4.97051 49.4646 4.96294 49.4394 4.95789L30.3319 0.613843C30.1855 0.58103 30.0316 0.58103 29.8826 0.613843L10.7752 4.95789H10.7642ZM42.4927 29.4874C41.7128 29.5505 35.0339 30.0932 32.0027 30.3279C31.6342 30.3557 31.4121 30.7419 31.4348 31.1129L31.4499 31.3754C31.4752 31.754 31.7781 32.0594 32.1592 32.0847L44.8482 32.895C45.2874 32.9227 45.7266 32.8192 46.1077 32.5996L47.4405 31.8298C47.6474 31.7111 47.8292 31.5597 47.9907 31.383L50.9565 28.0638C51.6381 27.304 52.6376 26.9153 53.6523 27.0138L55.8861 27.2333L57.3123 20.161L51.8273 19.6107C51.1029 19.5375 50.3709 19.6587 49.7096 19.9641L47.0795 21.1757C46.5418 21.423 46.0648 21.784 45.6811 22.2333L42.324 26.1633C42.1801 26.3299 42.112 26.547 42.1322 26.764C42.1498 26.9836 42.2584 27.1856 42.4275 27.3244V27.3269C42.7178 27.5642 43.1368 27.5642 43.4271 27.3269L46.7942 24.5832C47.2258 24.2323 47.8619 24.2954 48.2128 24.7296C48.5636 25.1612 48.5005 25.7973 48.0664 26.1507C48.0664 26.1507 46.0345 27.8065 44.6992 28.8944C44.0657 29.4118 43.2604 29.6087 42.4931 29.4901L42.4927 29.4874ZM10.1665 19.8303C9.59352 19.6233 8.97766 19.5476 8.36677 19.6082L2.88183 20.1584L4.30794 27.2308L6.54177 27.0112C7.55646 26.9128 8.55603 27.3015 9.23755 28.0612L12.2034 31.3805C12.3624 31.5571 12.5467 31.7086 12.7536 31.8272L14.0864 32.5971C14.4675 32.8167 14.9067 32.9202 15.3459 32.8924L28.0348 32.0822C28.416 32.0569 28.7189 31.754 28.7442 31.3729L28.7593 31.1103C28.782 30.7393 28.5624 30.3531 28.1914 30.3254C25.1599 30.0906 18.4813 29.548 17.7014 29.4848C16.9365 29.6035 16.1313 29.4066 15.4952 28.8891C14.1575 27.8012 12.1281 26.1454 12.1281 26.1454C11.6965 25.792 11.6308 25.156 11.9817 24.7243C12.3325 24.2927 12.9686 24.2271 13.4002 24.5779L16.7674 27.3217C17.0577 27.5589 17.4767 27.5589 17.767 27.3217V27.3191C17.9361 27.1828 18.0446 26.9809 18.0623 26.7588C18.0825 26.5417 18.0143 26.3246 17.8704 26.158L14.5134 22.228C14.1272 21.7787 13.6501 21.4152 13.115 21.1704L11.0881 20.2365C11.0528 20.2415 11.0174 20.2415 10.9821 20.2415C10.6464 20.2415 10.3511 20.0775 10.1668 19.8251L10.1665 19.8303ZM31.1065 28.4877C31.3387 28.3943 31.5861 28.3338 31.8485 28.3136C33.9637 28.1495 37.8509 27.8365 40.2714 27.6421C40.1932 27.4175 40.1402 27.1827 40.12 26.943C40.0518 26.1832 40.2916 25.431 40.7889 24.8505C41.8238 23.6364 43.2802 21.9326 44.146 20.9179C44.719 20.2465 45.4333 19.7063 46.236 19.3378L48.2048 18.4317V16.1625L34.7333 20.2061L34.6904 20.2188L34.645 20.2263L34.6021 20.2339L34.5567 20.239L34.5137 20.244L34.4683 20.249H34.4254L34.3825 20.2465L34.3371 20.2415L34.2941 20.2364L34.2538 20.2289L34.2108 20.2213L34.1705 20.2112L34.1276 20.1986L34.0872 20.1834L34.0493 20.1683L33.9736 20.1329L33.9357 20.1127L33.9004 20.09L33.7944 20.0143L33.7287 19.9588L33.6984 19.926L33.6429 19.8603L33.5672 19.7543L33.5546 19.7341C33.552 19.7291 33.5495 19.7215 33.5445 19.7139L31.0986 15.1654V28.4876L31.1065 28.4877ZM29.0872 15.1655L26.6413 19.714L26.6185 19.7544L26.5428 19.8604L26.4873 19.9261L26.457 19.9589L26.3914 20.0144L26.2854 20.0901L26.25 20.1128L26.2122 20.133L26.1364 20.1684L26.0986 20.1835L26.0582 20.1987L26.0153 20.2113L25.9749 20.2214L25.932 20.2289L25.8916 20.2365L25.8487 20.2416L25.8033 20.2466L25.7603 20.2491H25.7174L25.672 20.2441L25.6291 20.239L25.5837 20.234L25.5407 20.2264L25.4953 20.2189L25.4524 20.2062L11.9809 16.1626V18.4318L13.9498 19.3379C14.7524 19.7064 15.4668 20.2466 16.0398 20.918C16.903 21.9327 18.362 23.6365 19.3968 24.8506C19.8941 25.4311 20.1339 26.1833 20.0658 26.9431C20.0456 27.1829 19.9926 27.4176 19.9143 27.6422C22.3349 27.8391 26.2221 28.1521 28.3372 28.3137C28.5972 28.3339 28.8471 28.3944 29.0793 28.4878V15.1656L29.0872 15.1655ZM48.6417 7.1439L31.5859 11.7933L34.9405 18.0304L48.9218 13.8353H48.9243L51.2995 13.1235L48.6417 7.1439ZM8.89418 13.1236L11.2719 13.8354L25.2532 18.0305L28.6078 11.7934L11.552 7.14397L8.89418 13.1236ZM30.0965 10.1097L15.1459 6.03326L28.5819 2.97904L30.0964 2.63576L45.0469 6.03322L30.0965 10.1097Z" fill="#343434"/>
</svg>
