<svg width="88" height="88" viewBox="0 0 88 88" fill="none" xmlns="http://www.w3.org/2000/svg">
<path fill-rule="evenodd" clip-rule="evenodd" d="M87.6372 44.1061C87.6372 55.6794 83.0397 66.7788 74.8561 74.9624C66.6725 83.146 55.5731 87.7435 43.9998 87.7435C32.4264 87.7435 21.327 83.146 13.1434 74.9624C4.95981 66.7788 0.362305 55.6794 0.362305 44.1061C0.362305 32.5327 4.95981 21.4333 13.1434 13.2497C21.327 5.06613 32.4264 0.468628 43.9998 0.468628C55.5731 0.468628 66.6725 5.06613 74.8561 13.2497C83.0397 21.4333 87.6372 32.5327 87.6372 44.1061ZM43.9998 27.742C43.0417 27.7414 42.1003 27.9932 41.2704 28.4719C40.4405 28.9507 39.7514 29.6396 39.2724 30.4694C38.9215 31.1034 38.4477 31.6612 37.8788 32.1102C37.31 32.5591 36.6573 32.8902 35.959 33.084C35.2608 33.2779 34.5308 33.3307 33.8119 33.2393C33.093 33.1479 32.3995 32.9142 31.772 32.5518C31.1444 32.1894 30.5953 31.7056 30.1569 31.1286C29.7184 30.5516 29.3993 29.893 29.2182 29.1913C29.0371 28.4896 28.9976 27.7589 29.1021 27.0418C29.2066 26.3247 29.4529 25.6355 29.8267 25.0147C31.1466 22.7328 32.9983 20.8035 35.2241 19.3911C37.45 17.9787 39.9841 17.1249 42.6109 16.9024C45.2376 16.68 47.8793 17.0954 50.311 18.1134C52.7426 19.1314 54.8924 20.7218 56.5772 22.7493C58.2621 24.7767 59.4322 27.1812 59.988 29.7582C60.5438 32.3351 60.4687 35.0081 59.7693 37.5498C59.0699 40.0915 57.7668 42.4266 55.9709 44.3563C54.1749 46.2861 51.9394 47.7535 49.4544 48.6335V49.5608C49.4544 51.0074 48.8797 52.3948 47.8568 53.4178C46.8338 54.4407 45.4464 55.0154 43.9998 55.0154C42.5531 55.0154 41.1657 54.4407 40.1427 53.4178C39.1198 52.3948 38.5451 51.0074 38.5451 49.5608V44.1061C38.5451 42.6594 39.1198 41.272 40.1427 40.249C41.1657 39.2261 42.5531 38.6514 43.9998 38.6514C45.4464 38.6514 46.8338 38.0767 47.8568 37.0538C48.8797 36.0308 49.4544 34.6434 49.4544 33.1967C49.4544 31.75 48.8797 30.3626 47.8568 29.3397C46.8338 28.3167 45.4464 27.742 43.9998 27.742ZM43.9998 71.3795C45.4464 71.3795 46.8338 70.8048 47.8568 69.7818C48.8797 68.7589 49.4544 67.3715 49.4544 65.9248C49.4544 64.4781 48.8797 63.0907 47.8568 62.0678C46.8338 61.0448 45.4464 60.4701 43.9998 60.4701C42.5531 60.4701 41.1657 61.0448 40.1427 62.0678C39.1198 63.0907 38.5451 64.4781 38.5451 65.9248C38.5451 67.3715 39.1198 68.7589 40.1427 69.7818C41.1657 70.8048 42.5531 71.3795 43.9998 71.3795Z" fill="#343434"/>
</svg>
