<svg width="94" height="95" viewBox="0 0 94 95" fill="none" xmlns="http://www.w3.org/2000/svg">
<path fill-rule="evenodd" clip-rule="evenodd" d="M30.11 36.4487C30.11 27.1596 37.692 19.5817 47.001 19.5817C56.31 19.5817 63.892 27.1598 63.892 36.4487C63.892 42.937 60.1772 48.7647 54.4232 51.5857C52.5013 52.5271 51.4076 54.2888 51.4076 56.4451V60.6326H42.5951V56.4451C42.5951 50.9334 45.6029 46.1331 50.5678 43.7031C55.4975 41.289 56.6459 34.6601 52.7319 30.7541C49.5796 27.6057 44.4233 27.6057 41.2709 30.7541C39.8178 32.2033 38.9232 34.215 38.9232 36.4494L30.11 36.4487ZM42.594 71.2187V66.8125H51.4065V75.9297H42.594V71.2187ZM24.172 0.75769C10.879 0.75769 0 11.6367 0 24.9297V70.5857C0 83.8787 10.879 94.7577 24.172 94.7577H69.828C83.121 94.7577 94 83.8787 94 70.5857V24.9297C94 11.6367 83.121 0.75769 69.828 0.75769H24.172Z" fill="#343434"/>
</svg>
