<svg width="13" height="13" viewBox="0 0 13 13" fill="none" xmlns="http://www.w3.org/2000/svg">
<path d="M5.52588 5.65872C5.52588 5.23998 5.69223 4.83838 5.98832 4.54228C6.28442 4.24618 6.68602 4.07983 7.10477 4.07983C7.52351 4.07983 7.92511 4.24618 8.22121 4.54228C8.51731 4.83838 8.68365 5.23998 8.68365 5.65872C8.68365 6.07747 8.51731 6.47907 8.22121 6.77516C7.92511 7.07126 7.52351 7.23761 7.10477 7.23761C6.68602 7.23761 6.28442 7.07126 5.98832 6.77516C5.69223 6.47907 5.52588 6.07747 5.52588 5.65872Z" fill="#0920B0"/>
<path fill-rule="evenodd" clip-rule="evenodd" d="M6.31555 12.7637C7.99054 12.7637 9.59692 12.0983 10.7813 10.9139C11.9657 9.72949 12.6311 8.12311 12.6311 6.44812C12.6311 4.77313 11.9657 3.16675 10.7813 1.98235C9.59692 0.797955 7.99054 0.132568 6.31555 0.132568C4.64056 0.132568 3.03418 0.797955 1.84978 1.98235C0.665386 3.16675 0 4.77313 0 6.44812C0 8.12311 0.665386 9.72949 1.84978 10.9139C3.03418 12.0983 4.64056 12.7637 6.31555 12.7637ZM7.10499 2.5009C6.54822 2.50087 6.00134 2.64805 5.51979 2.92753C5.03824 3.207 4.63914 3.60882 4.36295 4.09227C4.08676 4.57571 3.94331 5.12358 3.94713 5.68034C3.95095 6.2371 4.10191 6.78295 4.3847 7.26256L2.5999 9.04671C2.45375 9.19508 2.37215 9.39519 2.37287 9.60345C2.3736 9.81171 2.45659 10.0112 2.60376 10.1586C2.75094 10.3059 2.95038 10.3892 3.15864 10.3901C3.3669 10.3911 3.56711 10.3097 3.71565 10.1638L5.50111 8.37897C5.9194 8.62555 6.38892 8.77235 6.87317 8.80795C7.35742 8.84355 7.84337 8.767 8.29322 8.58425C8.74308 8.4015 9.14473 8.11747 9.46696 7.75423C9.78918 7.391 10.0233 6.95835 10.1511 6.48992C10.2789 6.02148 10.297 5.52988 10.2039 5.05333C10.1108 4.57677 9.90911 4.1281 9.61442 3.74219C9.31973 3.35628 8.94002 3.04353 8.50479 2.82825C8.06957 2.61296 7.59056 2.50094 7.10499 2.5009Z" fill="#0920B0"/>
</svg>
