<svg width="52" height="71" viewBox="0 0 52 71" fill="none" xmlns="http://www.w3.org/2000/svg">
<path fill-rule="evenodd" clip-rule="evenodd" d="M48.8681 25.8891C48.8681 38.5194 38.6305 48.7569 26.0003 48.7569C13.37 48.7569 3.13248 38.5194 3.13248 25.8891C3.13248 13.2589 13.37 3.02133 26.0003 3.02133C38.6305 3.02133 48.8681 13.2589 48.8681 25.8891ZM26.9907 51.4823C26.6605 51.4973 26.3304 51.5033 26.0002 51.5033C21.0689 51.5033 16.4618 50.1076 12.5509 47.6915L6.42204 61.9215L12.4068 60.6969C12.9801 60.5798 13.5654 60.8379 13.8625 61.3422L16.8038 66.3094L21.9932 54.0457C22.2874 53.3464 23.0917 53.0193 23.791 53.3164C24.4873 53.6105 24.8145 54.4149 24.5204 55.1142L18.5536 69.215C17.9984 70.5266 16.1855 70.6497 15.4592 69.4221L11.9986 63.5814L5.08343 64.9981C3.70577 65.2802 2.58028 63.8966 3.13857 62.606L10.2548 46.0925C4.24907 41.4043 0.38916 34.0992 0.38916 25.8901C0.38916 11.7478 11.8546 0.279297 26 0.279297C40.1454 0.279297 51.6108 11.7478 51.6108 25.8901C51.6108 38.7178 42.1831 49.3403 29.8809 51.2097L36.8141 66.3878L39.8035 61.3425C40.1006 60.8383 40.6859 60.5801 41.2591 60.6972L47.2469 61.9218L41.8084 49.3008C41.5083 48.6045 41.8294 47.7971 42.5258 47.4999C43.2221 47.1998 44.0294 47.5209 44.3266 48.2173L50.5275 62.6063C51.0857 63.8969 49.9602 65.2805 48.5856 64.9984L41.6674 63.5817L38.1949 69.4434C37.4805 70.6529 35.7007 70.5569 35.1184 69.2813L26.9907 51.4823Z" fill="#343434"/>
<path fill-rule="evenodd" clip-rule="evenodd" d="M21.7052 19.697C21.6542 19.802 21.5522 19.8741 21.4381 19.8921L12.791 21.2547C12.4969 21.3027 12.3769 21.6659 12.5899 21.876L18.7818 28.0588C18.8659 28.1429 18.9049 28.2599 18.8869 28.377L17.5122 37.021C17.4642 37.3151 17.7733 37.5402 18.0374 37.4021L25.8347 33.4253C25.9368 33.3713 26.0628 33.3713 26.1649 33.4253L33.9621 37.4021C34.2263 37.5402 34.5354 37.3151 34.4874 37.021L33.1127 28.377C33.0947 28.2599 33.1337 28.1429 33.2178 28.0588L39.4096 21.876C39.6197 21.6659 39.5027 21.3027 39.2085 21.2547L30.5615 19.8921C30.4474 19.8741 30.3454 19.802 30.2943 19.697L26.3265 11.8966C26.1884 11.6295 25.8102 11.6295 25.6722 11.8966L21.7052 19.697ZM32.1895 17.3709L28.7739 10.6508C27.6184 8.38479 24.3829 8.38479 23.2273 10.6508L19.8117 17.3709L12.3653 18.5444C9.85313 18.9406 8.85066 22.02 10.6515 23.8179L15.9849 29.1454L14.8023 36.5888C14.4001 39.1009 17.0204 41.0039 19.2864 39.8483L26.0005 36.4208L32.7146 39.8483C34.9807 41.0039 37.6009 39.101 37.1987 36.5888L36.0161 29.1454L41.3496 23.8179C43.1504 22.0201 42.148 18.9406 39.6357 18.5444L32.1895 17.3709Z" fill="#343434"/>
</svg>
