<svg width="74" height="71" viewBox="0 0 74 71" fill="none" xmlns="http://www.w3.org/2000/svg">
<path d="M56.92 70.4736C56.3336 70.476 55.7552 70.3361 55.2333 70.0657L36.5333 60.1644L17.8333 70.0657C17.2261 70.3886 16.5415 70.5327 15.8573 70.4817C15.1731 70.4307 14.5167 70.1866 13.9629 69.7771C13.409 69.3677 12.9799 68.8092 12.7242 68.1654C12.4686 67.5215 12.3966 66.818 12.5166 66.1348L16.1833 45.2569L1.07664 30.4236C0.605321 29.9479 0.270972 29.3514 0.109478 28.6981C-0.0520165 28.0447 -0.0345592 27.3593 0.159976 26.7152C0.372496 26.0562 0.763422 25.4706 1.28839 25.0248C1.81336 24.5791 2.45136 24.2911 3.12998 24.1936L24.03 21.1157L33.2333 2.09191C33.5336 1.46494 34.0023 0.936177 34.586 0.566202C35.1696 0.196227 35.8445 0 36.5333 0C37.2221 0 37.897 0.196227 38.4806 0.566202C39.0643 0.936177 39.5331 1.46494 39.8333 2.09191L49.1466 21.0786L70.0466 24.1565C70.7253 24.254 71.3633 24.542 71.8882 24.9877C72.4132 25.4335 72.8041 26.0191 73.0166 26.6782C73.2112 27.3222 73.2286 28.0077 73.0671 28.661C72.9056 29.3143 72.5713 29.9108 72.1 30.3865L56.9933 45.2198L60.66 66.0977C60.7909 66.793 60.7223 67.5116 60.4625 68.1687C60.2026 68.8258 59.7622 69.3939 59.1933 69.8061C58.5293 70.2766 57.7299 70.5114 56.92 70.4736ZM36.5333 52.3027C37.1211 52.2879 37.7024 52.4285 38.22 52.7107L52.0433 60.1273L49.4033 44.5152C49.3002 43.9191 49.3433 43.3065 49.5287 42.7311C49.714 42.1557 50.0361 41.6351 50.4666 41.2148L61.4666 30.3494L46.0666 28.0502C45.5019 27.9353 44.9719 27.6873 44.5196 27.3265C44.0673 26.9657 43.7054 26.5022 43.4633 25.9736L36.5333 12.0673L29.6033 25.9736C29.338 26.5065 28.9495 26.9668 28.4708 27.3154C27.992 27.664 27.4372 27.8906 26.8533 27.9761L11.4533 30.2752L22.4533 41.1407C22.8833 41.5613 23.205 42.082 23.3904 42.6573C23.5757 43.2325 23.6191 43.845 23.5166 44.4411L20.8766 59.8677L34.7 52.4511C35.2857 52.2308 35.9204 52.1795 36.5333 52.3027Z" fill="#0F1030"/>
</svg>
