<svg width="57" height="80" viewBox="0 0 57 80" fill="none" xmlns="http://www.w3.org/2000/svg">
<path d="M56.1281 74.2187L46.8881 38.5937C50.3043 34.3875 52.1545 29.1464 52.1281 23.75C52.1281 17.4511 49.5995 11.4102 45.0986 6.95621C40.5978 2.50222 34.4933 0 28.1281 0C21.7629 0 15.6584 2.50222 11.1575 6.95621C6.65664 11.4102 4.12808 17.4511 4.12808 23.75C4.11712 29.188 6.0113 34.4617 9.48808 38.6729L0.12808 74.2187C-0.0710162 74.9785 -0.0373847 75.7796 0.224702 76.5204C0.486789 77.2612 0.9655 77.9081 1.6 78.3791C2.2345 78.85 2.99615 79.1236 3.78817 79.1652C4.58018 79.2067 5.3668 79.0144 6.04808 78.6125L27.3681 66.2229L50.0881 78.6521C50.702 79.0187 51.4117 79.1977 52.1281 79.1667C52.7497 79.1879 53.3677 79.0652 53.9329 78.8082C54.4981 78.5512 54.9947 78.167 55.3833 77.6864C55.7718 77.2058 56.0415 76.642 56.1708 76.0399C56.3001 75.4378 56.2855 74.8142 56.1281 74.2187ZM28.1281 7.91667C32.3715 7.91667 36.4412 9.58482 39.4418 12.5541C42.4424 15.5235 44.1281 19.5507 44.1281 23.75C44.1281 27.9493 42.4424 31.9765 39.4418 34.9459C36.4412 37.9152 32.3715 39.5833 28.1281 39.5833C23.8846 39.5833 19.815 37.9152 16.8144 34.9459C13.8138 31.9765 12.1281 27.9493 12.1281 23.75C12.1281 19.5507 13.8138 15.5235 16.8144 12.5541C19.815 9.58482 23.8846 7.91667 28.1281 7.91667ZM29.3681 58.2271C28.76 57.8797 28.0702 57.6968 27.3681 57.6968C26.6659 57.6968 25.9762 57.8797 25.3681 58.2271L10.3681 66.9354L16.1281 44.3729C19.7305 46.4219 23.813 47.5002 27.9681 47.5002C32.1232 47.5002 36.2056 46.4219 39.8081 44.3729L45.9281 67.2917L29.3681 58.2271Z" fill="#0F1030"/>
</svg>
