<svg width="92" height="105" viewBox="0 0 92 105" fill="none" xmlns="http://www.w3.org/2000/svg">
<path d="M66.5392 1.31746C66.1551 0.925606 65.6966 0.614407 65.1907 0.402114C64.6847 0.18982 64.1414 0.0807081 63.5927 0.0811783H28.0498C24.771 0.0811783 21.6265 1.38368 19.308 3.70215C16.9895 6.02062 15.687 9.16514 15.687 12.4439V85.8582C15.687 89.137 16.9895 92.2815 19.308 94.6C21.6265 96.9185 24.771 98.221 28.0498 98.221H78.9844C82.2632 98.221 85.4077 96.9185 87.7262 94.6C90.0447 92.2815 91.3472 89.137 91.3472 85.8582V28.3301C91.3454 27.2555 90.924 26.2241 90.1727 25.4558L66.5392 1.31746ZM67.5694 14.1335L78.3972 25.1982H68.5791C68.3058 25.1982 68.0438 25.0897 67.8506 24.8965C67.6574 24.7033 67.5488 24.4412 67.5488 24.168L67.5694 14.1335ZM79.005 89.9791H28.0498C26.9568 89.9791 25.9087 89.545 25.1358 88.7721C24.363 87.9993 23.9289 86.9511 23.9289 85.8582V12.4439C23.9289 11.351 24.363 10.3028 25.1358 9.53001C25.9087 8.75719 26.9568 8.32302 28.0498 8.32302H59.307V24.168C59.307 26.6271 60.2839 28.9855 62.0227 30.7243C63.7616 32.4632 66.12 33.44 68.5791 33.44H83.1053V85.8582C83.1053 86.9511 82.6712 87.9993 81.8983 88.7721C81.1255 89.545 80.0773 89.9791 78.9844 89.9791H79.005Z" fill="#343434"/>
<path d="M73.6073 45.2976H45.8426C44.7497 45.2976 43.7015 45.7318 42.9287 46.5046C42.1558 47.2774 41.7217 48.3256 41.7217 49.4185C41.7217 50.5115 42.1558 51.5596 42.9287 52.3325C43.7015 53.1053 44.7497 53.5395 45.8426 53.5395H73.6073C74.7003 53.5395 75.7484 53.1053 76.5213 52.3325C77.2941 51.5596 77.7282 50.5115 77.7282 49.4185C77.7282 48.3256 77.2941 47.2774 76.5213 46.5046C75.7484 45.7318 74.7003 45.2976 73.6073 45.2976Z" fill="#343434"/>
<path d="M33.4266 45.2979C32.3337 45.2979 31.2855 45.7321 30.5127 46.5049C29.7398 47.2777 29.3057 48.3259 29.3057 49.4189C29.3057 50.5118 29.7398 51.56 30.5127 52.3328C31.2855 53.1056 32.3337 53.5398 33.4266 53.5398H33.4781C34.571 53.5398 35.6192 53.1056 36.392 52.3328C37.1649 51.56 37.599 50.5118 37.599 49.4189C37.5991 48.8733 37.4908 48.3332 37.2805 47.8299C37.0702 47.3265 36.762 46.8699 36.3739 46.4866C35.9857 46.1032 35.5254 45.8007 35.0194 45.5967C34.5135 45.3927 33.9721 45.2911 33.4266 45.2979Z" fill="#343434"/>
<path d="M73.6073 58.7019H45.8426C44.7497 58.7019 43.7015 59.1361 42.9287 59.9089C42.1558 60.6817 41.7217 61.7299 41.7217 62.8228C41.7217 63.9158 42.1558 64.9639 42.9287 65.7368C43.7015 66.5096 44.7497 66.9437 45.8426 66.9437H73.6073C74.7003 66.9437 75.7484 66.5096 76.5213 65.7368C77.2941 64.9639 77.7282 63.9158 77.7282 62.8228C77.7282 61.7299 77.2941 60.6817 76.5213 59.9089C75.7484 59.1361 74.7003 58.7019 73.6073 58.7019Z" fill="#343434"/>
<path d="M33.4266 58.7022C32.3337 58.7022 31.2855 59.1364 30.5127 59.9092C29.7398 60.682 29.3057 61.7302 29.3057 62.8231C29.3057 63.9161 29.7398 64.9643 30.5127 65.7371C31.2855 66.5099 32.3337 66.9441 33.4266 66.9441H33.4781C34.571 66.9441 35.6192 66.5099 36.392 65.7371C37.1649 64.9643 37.599 63.9161 37.599 62.8231C37.5991 62.2776 37.4908 61.7375 37.2805 61.2342C37.0702 60.7308 36.762 60.2742 36.3739 59.8909C35.9857 59.5075 35.5254 59.205 35.0194 59.001C34.5135 58.797 33.9721 58.6954 33.4266 58.7022Z" fill="#343434"/>
<path d="M73.6073 72.0951H45.8426C44.7497 72.0951 43.7015 72.5293 42.9287 73.3021C42.1558 74.0749 41.7217 75.1231 41.7217 76.216C41.7217 77.309 42.1558 78.3571 42.9287 79.13C43.7015 79.9028 44.7497 80.3369 45.8426 80.3369H73.6073C74.7003 80.3369 75.7484 79.9028 76.5213 79.13C77.2941 78.3571 77.7282 77.309 77.7282 76.216C77.7282 75.1231 77.2941 74.0749 76.5213 73.3021C75.7484 72.5293 74.7003 72.0951 73.6073 72.0951Z" fill="#343434"/>
<path d="M33.4266 72.0954C32.3337 72.0954 31.2855 72.5296 30.5127 73.3024C29.7398 74.0752 29.3057 75.1234 29.3057 76.2163C29.3057 77.3093 29.7398 78.3575 30.5127 79.1303C31.2855 79.9031 32.3337 80.3373 33.4266 80.3373H33.4781C34.571 80.3373 35.6192 79.9031 36.392 79.1303C37.1649 78.3575 37.599 77.3093 37.599 76.2163C37.5991 75.6708 37.4908 75.1307 37.2805 74.6273C37.0702 74.124 36.762 73.6674 36.3739 73.284C35.9857 72.9007 35.5254 72.5982 35.0194 72.3942C34.5135 72.1902 33.9721 72.0886 33.4266 72.0954Z" fill="#343434"/>
<circle cx="19.1257" cy="86.2573" r="18.4734" fill="white"/>
<circle cx="19.1255" cy="86.2574" r="13.066" fill="white"/>
<path d="M19.1259 70.4036C10.3843 70.4036 3.27197 77.5159 3.27197 86.2575C3.27197 94.9991 10.3843 102.111 19.1259 102.111C27.8675 102.111 34.9798 94.9991 34.9798 86.2575C34.9798 77.5159 27.8675 70.4036 19.1259 70.4036ZM16.2299 94.2137L10.0851 87.386L11.8981 85.755L16.1665 90.4966L26.2886 78.4411L28.1586 80.007L16.2299 94.2137Z" fill="#343434"/>
</svg>
