<svg width="72" height="38" viewBox="0 0 72 38" fill="none" xmlns="http://www.w3.org/2000/svg">
<path d="M52.8317 11.9102C52.6442 11.3634 52.1637 10.9766 51.5934 10.9102L41.5934 9.69933L36.9332 0.80093V0.797024C36.6637 0.300934 36.1402 -0.00766517 35.5699 0.000144825C34.9996 0.0118638 34.484 0.347806 34.2418 0.867336L30.0113 9.97673L20.0933 11.6486C19.5425 11.7424 19.0894 12.1252 18.9019 12.6486C18.7417 13.1955 18.9019 13.7892 19.3199 14.1798L26.6793 21.0196L25.2184 30.961L25.2223 30.9571C25.109 31.5392 25.3473 32.1368 25.8316 32.4766C26.0816 32.6524 26.3785 32.7422 26.6832 32.7383C26.9371 32.7423 27.191 32.6758 27.4098 32.5469L36.2106 27.6485L45.2106 32.1094C45.7301 32.379 46.3629 32.3282 46.8317 31.9766C47.2809 31.629 47.4996 31.0587 47.3903 30.5L45.4098 20.6484L52.4098 13.4687C52.8433 13.0742 53.0075 12.4649 52.8317 11.9102ZM42.7227 19.0977C42.375 19.4493 42.2227 19.9532 42.3204 20.4375L43.8321 28.0898L36.8321 24.6484C36.3906 24.4258 35.8711 24.4258 35.4337 24.6484L28.6251 28.4492L29.754 20.7304V20.7265C29.8204 20.2421 29.6524 19.7539 29.293 19.4179L23.5821 14.1093L31.2618 12.8085C31.7501 12.7226 32.1642 12.4062 32.3712 11.957L35.6524 4.88667L39.2735 11.7851V11.789C39.5001 12.2265 39.9298 12.5273 40.4219 12.5898L48.1602 13.5194L42.7227 19.0977Z" fill="#0F1030"/>
<path d="M16.2542 36.8592C16.7659 37.1053 17.3753 37.0428 17.8284 36.6952C18.2776 36.3514 18.4963 35.7772 18.3909 35.2186L17.2815 29.578L21.2815 25.4686C21.6838 25.0584 21.8166 24.4569 21.6252 23.9178C21.4338 23.3787 20.9494 22.992 20.383 22.9295L14.6838 22.2381L12.0315 17.1483C11.7542 16.6522 11.2307 16.3436 10.6604 16.3397C10.094 16.3553 9.58233 16.6913 9.34403 17.2069L6.92213 22.4257L1.25023 23.4257L1.25413 23.4296C0.687725 23.5233 0.226834 23.9296 0.0627341 24.4804C-0.101326 25.0273 0.0627347 25.621 0.480705 26.0077L4.69161 29.9179L3.83222 35.5702C3.74238 36.1327 3.98847 36.6991 4.46113 37.0194C4.71113 37.1952 5.00802 37.2889 5.3127 37.2889C5.56661 37.2889 5.8205 37.2225 6.04316 37.0975L11.0432 34.2967L16.2542 36.8592ZM10.3245 31.3006L7.32448 32.9998L7.83229 29.5389C7.89869 29.0467 7.72291 28.5546 7.36354 28.2186L4.80494 25.8397L8.25414 25.2499C8.73852 25.1679 9.15258 24.8554 9.36354 24.4101L10.8323 21.2265L12.4534 24.3281C12.68 24.7656 13.1097 25.0663 13.6018 25.1288L17.0823 25.5507L14.6331 28.0507V28.0468C14.2933 28.4023 14.1449 28.8984 14.2308 29.3788L14.8324 32.8202L11.6918 31.2616V31.2577C11.2543 31.0546 10.7464 31.0702 10.3207 31.2968L10.3245 31.3006Z" fill="#0F1030"/>
<path d="M70.3711 23.2962L64.6797 22.4681L62.1406 17.3079C61.8906 16.7962 61.3672 16.472 60.7968 16.472C60.2265 16.472 59.703 16.7962 59.453 17.3079L56.9022 22.4681L51.2108 23.2962C50.6444 23.3743 50.1756 23.7689 49.9999 24.3118C49.8203 24.8548 49.9687 25.4524 50.3828 25.847L54.5038 29.847L53.5038 35.5189C53.4023 36.0775 53.6328 36.6439 54.0937 36.9759C54.5546 37.3119 55.164 37.3587 55.6718 37.097L60.832 34.4368L65.9218 37.1165C66.1405 37.2298 66.3788 37.2845 66.621 37.2884C66.9374 37.2845 67.246 37.1868 67.5038 36.9993C67.9687 36.6673 68.203 36.1009 68.1015 35.5384L67.1015 29.8665L71.2226 25.8665C71.6249 25.4681 71.7695 24.8783 71.6015 24.3392C71.4296 23.7806 70.9493 23.3744 70.3711 23.2962ZM64.4297 28.2962H64.4337C64.0704 28.6478 63.9102 29.1556 64.004 29.6478L64.5938 33.097L61.4922 31.4681C61.0586 31.2377 60.5352 31.2377 60.1016 31.4681L57 33.097L57.5937 29.6478C57.6719 29.1595 57.5117 28.6634 57.1602 28.3197L54.6485 25.8783L58.1173 25.3666H58.1212C58.6094 25.3002 59.0313 24.9916 59.2423 24.5463L60.8321 21.3666L62.3829 24.4955V24.4994C62.5977 24.9447 63.0235 25.2494 63.5118 25.3197L66.9806 25.8314L64.4297 28.2962Z" fill="#0F1030"/>
</svg>
