<svg width="78" height="78" viewBox="0 0 78 78" fill="none" xmlns="http://www.w3.org/2000/svg">
<path fill-rule="evenodd" clip-rule="evenodd" d="M39.0008 70.2C47.2755 70.2 55.2114 66.9129 61.0625 61.0618C66.9137 55.2106 70.2008 47.2748 70.2008 39C70.2008 30.7253 66.9137 22.7894 61.0625 16.9383C55.2114 11.0872 47.2755 7.80002 39.0008 7.80002C30.726 7.80002 22.7902 11.0872 16.939 16.9383C11.0879 22.7894 7.80078 30.7253 7.80078 39C7.80078 47.2748 11.0879 55.2106 16.939 61.0618C22.7902 66.9129 30.726 70.2 39.0008 70.2ZM53.4568 33.956C54.1457 33.2167 54.5207 32.2389 54.5029 31.2285C54.4851 30.2181 54.0758 29.2541 53.3612 28.5396C52.6467 27.825 51.6827 27.4157 50.6723 27.3979C49.6619 27.3801 48.6841 27.7551 47.9448 28.444L35.1008 41.2848L30.0568 36.244C29.3175 35.5551 28.3396 35.1801 27.3293 35.1979C26.3189 35.2157 25.3549 35.625 24.6403 36.3396C23.9258 37.0541 23.5165 38.0181 23.4987 39.0285C23.4808 40.0389 23.8559 41.0167 24.5448 41.756L32.3448 49.556C33.076 50.2864 34.0673 50.6966 35.1008 50.6966C36.1343 50.6966 37.1255 50.2864 37.8568 49.556L53.4568 33.956Z" fill="#343434"/>
</svg>
