<svg width="138" height="139" viewBox="0 0 138 139" fill="none" xmlns="http://www.w3.org/2000/svg">
<path d="M23.2012 89.6492C23.0686 90.6495 23.0014 91.6575 23 92.6667C23 106.439 35.2935 117.478 48.9957 115.625C50.9925 119.201 53.8974 122.177 57.4126 124.249C60.9279 126.321 64.927 127.414 69 127.417C73.073 127.414 77.0721 126.321 80.5874 124.249C84.1026 122.177 87.0075 119.201 89.0042 115.625C102.678 117.478 115 106.439 115 92.6667C115 91.6647 114.931 90.657 114.799 89.6492C118.347 87.6364 121.3 84.7099 123.356 81.1694C125.412 77.6289 126.497 73.6017 126.5 69.5C126.497 65.3983 125.412 61.3711 123.356 57.8306C121.3 54.2901 118.347 51.3637 114.799 49.3508C114.931 48.3431 115 47.3353 115 46.3333C115 32.5608 102.678 21.4987 89.0042 23.3752C87.0075 19.7995 84.1026 16.823 80.5874 14.7509C77.0721 12.6787 73.073 11.5855 69 11.5833C64.927 11.5855 60.9279 12.6787 57.4126 14.7509C53.8974 16.823 50.9925 19.7995 48.9957 23.3752C35.2935 21.4987 23 32.5608 23 46.3333C23 47.3353 23.069 48.3431 23.2012 49.3508C19.6531 51.3637 16.6999 54.2901 14.6438 57.8306C12.5878 61.3711 11.5028 65.3983 11.5 69.5C11.5 77.9848 16.1115 85.6356 23.2012 89.6492ZM31.4928 58.3568L37.8292 56.6599L35.3337 50.5613C34.7864 49.2197 34.5032 47.7838 34.5 46.3333C34.5 39.9451 39.6577 34.75 46 34.75C47.4202 34.75 48.8692 35.0396 50.1975 35.5898L56.258 38.1034L57.9427 31.721C58.5916 29.2663 60.0275 27.0962 62.0271 25.5482C64.0267 24.0003 66.478 23.161 69 23.161C71.522 23.161 73.9733 24.0003 75.9729 25.5482C77.9725 27.0962 79.4083 29.2663 80.0572 31.721L81.742 38.1034L87.8025 35.5898C89.1307 35.0396 90.5797 34.75 92 34.75C98.3422 34.75 103.5 39.9451 103.5 46.3333C103.5 47.7639 103.212 49.2292 102.666 50.5613L100.171 56.6599L106.507 58.3568C108.939 59.0186 111.086 60.4686 112.617 62.4828C114.148 64.4971 114.978 66.9632 114.978 69.5C114.978 72.0368 114.148 74.503 112.617 76.5172C111.086 78.5314 108.939 79.9814 106.507 80.6432L100.171 82.3401L102.666 88.4388C103.212 89.7708 103.5 91.2361 103.5 92.6667C103.5 99.0549 98.3422 104.25 92 104.25C90.5797 104.25 89.1307 103.96 87.8025 103.41L81.742 100.897L80.0572 107.279C79.4083 109.734 77.9725 111.904 75.9729 113.452C73.9733 115 71.522 115.839 69 115.839C66.478 115.839 64.0267 115 62.0271 113.452C60.0275 111.904 58.5916 109.734 57.9427 107.279L56.258 100.897L50.1975 103.41C48.8635 103.96 47.4375 104.244 46 104.25C39.6577 104.25 34.5 99.0549 34.5 92.6667C34.5 91.2361 34.7875 89.7708 35.3337 88.4388L37.8292 82.3401L31.4928 80.6432C29.0614 79.9814 26.9142 78.5314 25.3831 76.5172C23.852 74.503 23.0223 72.0368 23.0223 69.5C23.0223 66.9632 23.852 64.4971 25.3831 62.4828C26.9142 60.4686 29.0614 59.0186 31.4928 58.3568Z" fill="#0F1030"/>
<path d="M90.5163 62.0288L82.4203 53.8046L63.2671 72.9055L55.8151 65.3995L47.6846 73.5889L63.2326 89.2496L90.5163 62.0288Z" fill="#0F1030"/>
</svg>
