<svg width="48" height="47" viewBox="0 0 48 47" fill="none" xmlns="http://www.w3.org/2000/svg">
<path fill-rule="evenodd" clip-rule="evenodd" d="M11.5 45.4702L11.5 24.0814L1.67958 24.0814C1.1686 24.0814 0.75606 23.667 0.75606 23.1579C0.75606 22.8759 0.88286 22.6242 1.07968 22.4539L23.4243 0.273992C23.7839 -0.0836889 24.3649 -0.0836888 24.7245 0.273992L47.1205 22.5033C47.4801 22.8629 47.482 23.4458 47.1243 23.8054C46.9445 23.9871 46.7079 24.0779 46.4695 24.0779L36.6491 24.0798L36.6491 45.4686C36.6491 45.9796 36.2346 46.3921 35.7256 46.3921L12.4211 46.3921C11.9102 46.3921 11.4976 45.9776 11.4976 45.4686L11.5 45.4702Z" fill="white"/>
</svg>
