<svg width="13" height="32" viewBox="0 0 13 32" fill="none" xmlns="http://www.w3.org/2000/svg">
<path d="M9.79533 8.36206H3.58298C1.87458 8.36206 0.476807 9.75984 0.476807 11.4682V20.7868H3.58298V31.6584H9.79533V20.7868H12.9015V11.4682C12.9015 9.75984 11.5037 8.36206 9.79533 8.36206Z" fill="black"/>
<path d="M6.68528 6.80903C7.50908 6.80903 8.29915 6.48177 8.88167 5.89925C9.46419 5.31673 9.79145 4.52666 9.79145 3.70285C9.79145 2.87905 9.46419 2.08898 8.88167 1.50646C8.29915 0.923936 7.50908 0.59668 6.68528 0.59668C5.86147 0.59668 5.0714 0.923936 4.48888 1.50646C3.90636 2.08898 3.5791 2.87905 3.5791 3.70285C3.5791 4.52666 3.90636 5.31673 4.48888 5.89925C5.0714 6.48177 5.86147 6.80903 6.68528 6.80903Z" fill="black"/>
</svg>
