<svg width="16" height="32" viewBox="0 0 16 32" fill="none" xmlns="http://www.w3.org/2000/svg">
<path d="M10.9656 10.3386C10.7199 9.73241 10.2992 9.21315 9.75711 8.8471C9.21502 8.48105 8.57616 8.28482 7.92206 8.28345C6.58855 8.28345 5.38055 9.09924 4.87852 10.3386L0.0778809 22.403H4.78439V31.816H11.0597V22.403H15.7662L10.9656 10.3386Z" fill="black"/>
<path d="M7.92332 6.7148C8.75548 6.7148 9.55356 6.38422 10.142 5.7958C10.7304 5.20737 11.061 4.40929 11.061 3.57713C11.061 2.74496 10.7304 1.94688 10.142 1.35846C9.55356 0.770028 8.75548 0.439453 7.92332 0.439453C7.09115 0.439453 6.29308 0.770028 5.70465 1.35846C5.11622 1.94688 4.78564 2.74496 4.78564 3.57713C4.78564 4.40929 5.11622 5.20737 5.70465 5.7958C6.29308 6.38422 7.09115 6.7148 7.92332 6.7148Z" fill="black"/>
</svg>
