<svg width="17" height="40" viewBox="0 0 17 40" fill="none" xmlns="http://www.w3.org/2000/svg">
<path d="M12.8772 8.89697C14.8161 8.89697 16.3892 10.4701 16.3892 12.4089V23.1204C16.3892 24.5746 15.2094 25.7544 13.7552 25.7544C13.3107 25.7544 12.8937 25.6446 12.526 25.4489V37.2266C12.526 38.6497 11.3737 39.8021 9.95056 39.8021H6.0874C4.66431 39.8021 3.51196 38.6497 3.51196 37.2266V25.5164C3.19186 25.6682 2.83518 25.7541 2.45837 25.7541C1.10116 25.7541 0 24.653 0 23.2958V12.4087C0 10.4698 1.57308 8.89672 3.51196 8.89672L12.8772 8.89697ZM3.51196 10.3018C2.34861 10.3018 1.40479 11.2456 1.40479 12.4089V23.296C1.40479 23.8777 1.8767 24.3496 2.45837 24.3496C3.04005 24.3496 3.51196 23.8777 3.51196 23.296V13.9308C3.51196 13.543 3.82658 13.2284 4.21436 13.2284C4.60213 13.2284 4.91675 13.543 4.91675 13.9308V37.2268C4.91675 37.8725 5.44172 38.3975 6.0874 38.3975H7.37512V23.4131C7.37512 23.0253 7.68974 22.7107 8.07751 22.7107C8.46529 22.7107 8.77991 23.0253 8.77991 23.4131V38.3975H9.95056C10.5962 38.3975 11.1212 37.8725 11.1212 37.2268V13.9308C11.1212 13.543 11.4358 13.2284 11.8236 13.2284C12.2114 13.2284 12.526 13.543 12.526 13.9308V23.1204C12.526 23.799 13.0766 24.3496 13.7552 24.3496C14.4338 24.3496 14.9844 23.799 14.9844 23.1204V12.4089C14.9844 11.2456 14.0405 10.3018 12.8772 10.3018H3.51196ZM8.42871 0C10.4975 0 12.1748 1.67731 12.1748 3.74609C12.1748 5.81487 10.4975 7.49219 8.42871 7.49219C6.35993 7.49219 4.68262 5.81487 4.68262 3.74609C4.68262 1.67731 6.35993 0 8.42871 0ZM8.42871 1.40479C7.13551 1.40479 6.0874 2.4529 6.0874 3.74609C6.0874 5.03929 7.13551 6.0874 8.42871 6.0874C9.72191 6.0874 10.77 5.03929 10.77 3.74609C10.77 2.4529 9.72191 1.40479 8.42871 1.40479Z" fill="#0F1030"/>
</svg>
