<svg width="24" height="39" viewBox="0 0 24 39" fill="none" xmlns="http://www.w3.org/2000/svg">
<path d="M11.5589 9.70099C13.5216 9.70099 15.289 8.51915 16.0401 6.70716C16.7912 4.89518 16.3754 2.80943 14.9898 1.42177C13.6022 0.0341158 11.5144 -0.381741 9.70233 0.369365C7.89034 1.12047 6.7085 2.89004 6.7085 4.85058C6.71062 7.52828 8.88121 9.69888 11.5589 9.70099ZM11.5589 2.71627C12.4225 2.71627 13.2012 3.23611 13.53 4.03391C13.861 4.83173 13.6786 5.75046 13.0675 6.36154C12.4585 6.97261 11.5398 7.15507 10.742 6.82409C9.94428 6.49311 9.42441 5.71438 9.42441 4.85083C9.42441 3.67322 10.3792 2.71627 11.5589 2.71627Z" fill="#0F1030"/>
<path d="M22.9657 28.9034L15.2145 13.8025C14.5164 12.4722 13.1373 11.6362 11.6351 11.6298C10.1287 11.6319 8.74524 12.4701 8.04503 13.8025L0.152111 28.8926C-0.0643131 29.3127 -0.0494572 29.8134 0.194546 30.2187C0.438553 30.6218 0.875637 30.8722 1.34668 30.8743L5.97428 30.9167V37.5283C5.97428 37.889 6.11856 38.2348 6.37318 38.4894C6.6278 38.744 6.97367 38.8862 7.33222 38.8862H15.7406C16.1013 38.8883 16.4451 38.7462 16.7018 38.4937C16.9564 38.2391 17.0985 37.8932 17.0985 37.5346V30.8742H21.7219C22.1951 30.8742 22.6322 30.6281 22.8783 30.2228C23.1371 29.8282 23.1711 29.3274 22.9653 28.9031L22.9657 28.9034ZM15.7751 28.1587C15.024 28.1587 14.4172 28.7676 14.4172 29.5166V36.1705H8.70129V29.572C8.70129 28.8251 8.10081 28.2204 7.35606 28.2141L3.59624 28.1822L10.424 15.0906C10.6574 14.6471 11.1178 14.3734 11.6185 14.3798C12.115 14.3692 12.5733 14.6407 12.8025 15.08L19.5287 28.1651L15.7751 28.1587Z" fill="#0F1030"/>
</svg>
